<?xml version="1.0" encoding="UTF-8"?>
<svg xmlns="http://www.w3.org/2000/svg" width="361" height="113">
   <defs>
      <style type="text/css">
    @namespace "http://www.w3.org/2000/svg";
    .line                 {fill: none; stroke: #332900; stroke-width: 1;}
    .bold-line            {stroke: #141000; shape-rendering: crispEdges; stroke-width: 2;}
    .thin-line            {stroke: #1F1800; shape-rendering: crispEdges}
    .filled               {fill: #332900; stroke: none;}
    text.terminal         {font-family: Verdana, Sans-serif;
                            font-size: 12px;
                            fill: #141000;
                            font-weight: bold;
                          }
    text.nonterminal      {font-family: Verdana, Sans-serif;
                            font-size: 12px;
                            fill: #1A1400;
                            font-weight: normal;
                          }
    text.regexp           {font-family: Verdana, Sans-serif;
                            font-size: 12px;
                            fill: #1F1800;
                            font-weight: normal;
                          }
    rect, circle, polygon {fill: #332900; stroke: #332900;}
    rect.terminal         {fill: #FFDB4D; stroke: #332900; stroke-width: 1;}
    rect.nonterminal      {fill: #FFEC9E; stroke: #332900; stroke-width: 1;}
    rect.text             {fill: none; stroke: none;}
    polygon.regexp        {fill: #FFF4C7; stroke: #332900; stroke-width: 1;}
  </style>
   </defs>
   <polygon points="9 33 1 29 1 37"/>
   <polygon points="17 33 9 29 9 37"/>
   <rect x="71" y="19" width="26" height="32" rx="10"/>
   <rect x="69"
          y="17"
          width="26"
          height="32"
          class="terminal"
          rx="10"/>
   <text class="terminal" x="79" y="37">[</text>
   <a xmlns:xlink="http://www.w3.org/1999/xlink"
       xlink:href="#Expression"
       xlink:title="Expression">
      <rect x="137" y="19" width="90" height="32"/>
      <rect x="135" y="17" width="90" height="32" class="nonterminal"/>
      <text class="nonterminal" x="145" y="37">Expression</text>
   </a>
   <a xmlns:xlink="http://www.w3.org/1999/xlink"
       xlink:href="#Type"
       xlink:title="Type">
      <rect x="137" y="63" width="50" height="32"/>
      <rect x="135" y="61" width="50" height="32" class="nonterminal"/>
      <text class="nonterminal" x="145" y="81">Type</text>
   </a>
   <rect x="267" y="19" width="26" height="32" rx="10"/>
   <rect x="265"
          y="17"
          width="26"
          height="32"
          class="terminal"
          rx="10"/>
   <text class="terminal" x="275" y="37">]</text>
   <path class="line"
          d="m17 33 h2 m40 0 h10 m26 0 h10 m20 0 h10 m90 0 h10 m-130 0 h20 m110 0 h20 m-150 0 q10 0 10 10 m130 0 q0 -10 10 -10 m-140 10 v24 m130 0 v-24 m-130 24 q0 10 10 10 m110 0 q10 0 10 -10 m-120 10 h10 m50 0 h10 m0 0 h40 m20 -44 h10 m26 0 h10 m-262 0 l20 0 m-1 0 q-9 0 -9 -10 l0 -12 q0 -10 10 -10 m242 32 l20 0 m-20 0 q10 0 10 -10 l0 -12 q0 -10 -10 -10 m-242 0 h10 m0 0 h232 m-282 32 h20 m282 0 h20 m-322 0 q10 0 10 10 m302 0 q0 -10 10 -10 m-312 10 v58 m302 0 v-58 m-302 58 q0 10 10 10 m282 0 q10 0 10 -10 m-292 10 h10 m0 0 h272 m23 -78 h-3"/>
   <polygon points="351 33 359 29 359 37"/>
   <polygon points="351 33 343 29 343 37"/>
</svg>
