<?xml version="1.0" encoding="UTF-8"?>
<svg xmlns="http://www.w3.org/2000/svg" width="295" height="57">
   <defs>
      <style type="text/css">
    @namespace "http://www.w3.org/2000/svg";
    .line                 {fill: none; stroke: #332900; stroke-width: 1;}
    .bold-line            {stroke: #141000; shape-rendering: crispEdges; stroke-width: 2;}
    .thin-line            {stroke: #1F1800; shape-rendering: crispEdges}
    .filled               {fill: #332900; stroke: none;}
    text.terminal         {font-family: Verdana, Sans-serif;
                            font-size: 12px;
                            fill: #141000;
                            font-weight: bold;
                          }
    text.nonterminal      {font-family: Verdana, Sans-serif;
                            font-size: 12px;
                            fill: #1A1400;
                            font-weight: normal;
                          }
    text.regexp           {font-family: Verdana, Sans-serif;
                            font-size: 12px;
                            fill: #1F1800;
                            font-weight: normal;
                          }
    rect, circle, polygon {fill: #332900; stroke: #332900;}
    rect.terminal         {fill: #FFDB4D; stroke: #332900; stroke-width: 1;}
    rect.nonterminal      {fill: #FFEC9E; stroke: #332900; stroke-width: 1;}
    rect.text             {fill: none; stroke: none;}
    polygon.regexp        {fill: #FFF4C7; stroke: #332900; stroke-width: 1;}
  </style>
   </defs>
   <polygon points="9 5 1 1 1 9"/>
   <polygon points="17 5 9 1 9 9"/>
   <rect x="51" y="23" width="62" height="32" rx="10"/>
   <rect x="49"
          y="21"
          width="62"
          height="32"
          class="terminal"
          rx="10"/>
   <text class="terminal" x="59" y="41">assign</text>
   <a xmlns:xlink="http://www.w3.org/1999/xlink"
       xlink:href="#ExprList"
       xlink:title="ExprList">
      <rect x="133" y="23" width="70" height="32"/>
      <rect x="131" y="21" width="70" height="32" class="nonterminal"/>
      <text class="nonterminal" x="141" y="41">ExprList</text>
   </a>
   <rect x="223" y="23" width="24" height="32" rx="10"/>
   <rect x="221"
          y="21"
          width="24"
          height="32"
          class="terminal"
          rx="10"/>
   <text class="terminal" x="231" y="41">;</text>
   <path class="line"
          d="m17 5 h2 m20 0 h10 m0 0 h206 m-236 0 h20 m216 0 h20 m-256 0 q10 0 10 10 m236 0 q0 -10 10 -10 m-246 10 v12 m236 0 v-12 m-236 12 q0 10 10 10 m216 0 q10 0 10 -10 m-226 10 h10 m62 0 h10 m0 0 h10 m70 0 h10 m0 0 h10 m24 0 h10 m23 -32 h-3"/>
   <polygon points="285 5 293 1 293 9"/>
   <polygon points="285 5 277 1 277 9"/>
</svg>
