<?xml version="1.0" encoding="UTF-8"?>
<svg xmlns="http://www.w3.org/2000/svg" width="229" height="653">
   <defs>
      <style type="text/css">
    @namespace "http://www.w3.org/2000/svg";
    .line                 {fill: none; stroke: #332900; stroke-width: 1;}
    .bold-line            {stroke: #141000; shape-rendering: crispEdges; stroke-width: 2;}
    .thin-line            {stroke: #1F1800; shape-rendering: crispEdges}
    .filled               {fill: #332900; stroke: none;}
    text.terminal         {font-family: Verdana, Sans-serif;
                            font-size: 12px;
                            fill: #141000;
                            font-weight: bold;
                          }
    text.nonterminal      {font-family: Verdana, Sans-serif;
                            font-size: 12px;
                            fill: #1A1400;
                            font-weight: normal;
                          }
    text.regexp           {font-family: Verdana, Sans-serif;
                            font-size: 12px;
                            fill: #1F1800;
                            font-weight: normal;
                          }
    rect, circle, polygon {fill: #332900; stroke: #332900;}
    rect.terminal         {fill: #FFDB4D; stroke: #332900; stroke-width: 1;}
    rect.nonterminal      {fill: #FFEC9E; stroke: #332900; stroke-width: 1;}
    rect.text             {fill: none; stroke: none;}
    polygon.regexp        {fill: #FFF4C7; stroke: #332900; stroke-width: 1;}
  </style>
   </defs>
   <polygon points="9 17 1 13 1 21"/>
   <polygon points="17 17 9 13 9 21"/>
   <rect x="51" y="3" width="54" height="32" rx="10"/>
   <rect x="49"
          y="1"
          width="54"
          height="32"
          class="terminal"
          rx="10"/>
   <text class="terminal" x="59" y="21">fmod</text>
   <rect x="51" y="47" width="54" height="32" rx="10"/>
   <rect x="49"
          y="45"
          width="54"
          height="32"
          class="terminal"
          rx="10"/>
   <text class="terminal" x="59" y="65">fmax</text>
   <rect x="51" y="91" width="50" height="32" rx="10"/>
   <rect x="49"
          y="89"
          width="50"
          height="32"
          class="terminal"
          rx="10"/>
   <text class="terminal" x="59" y="109">fmin</text>
   <rect x="51" y="135" width="50" height="32" rx="10"/>
   <rect x="49"
          y="133"
          width="50"
          height="32"
          class="terminal"
          rx="10"/>
   <text class="terminal" x="59" y="153">fdim</text>
   <rect x="51" y="179" width="48" height="32" rx="10"/>
   <rect x="49"
          y="177"
          width="48"
          height="32"
          class="terminal"
          rx="10"/>
   <text class="terminal" x="59" y="197">pow</text>
   <rect x="51" y="223" width="58" height="32" rx="10"/>
   <rect x="49"
          y="221"
          width="58"
          height="32"
          class="terminal"
          rx="10"/>
   <text class="terminal" x="59" y="241">hypot</text>
   <rect x="51" y="267" width="58" height="32" rx="10"/>
   <rect x="49"
          y="265"
          width="58"
          height="32"
          class="terminal"
          rx="10"/>
   <text class="terminal" x="59" y="285">atan2</text>
   <rect x="51" y="311" width="56" height="32" rx="10"/>
   <rect x="49"
          y="309"
          width="56"
          height="32"
          class="terminal"
          rx="10"/>
   <text class="terminal" x="59" y="329">ldexp</text>
   <rect x="51" y="355" width="82" height="32" rx="10"/>
   <rect x="49"
          y="353"
          width="82"
          height="32"
          class="terminal"
          rx="10"/>
   <text class="terminal" x="59" y="373">nextafter</text>
   <rect x="51" y="399" width="80" height="32" rx="10"/>
   <rect x="49"
          y="397"
          width="80"
          height="32"
          class="terminal"
          rx="10"/>
   <text class="terminal" x="59" y="417">copysign</text>
   <rect x="51" y="443" width="130" height="32" rx="10"/>
   <rect x="49"
          y="441"
          width="130"
          height="32"
          class="terminal"
          rx="10"/>
   <text class="terminal" x="59" y="461">random_arcsine</text>
   <rect x="51" y="487" width="110" height="32" rx="10"/>
   <rect x="49"
          y="485"
          width="110"
          height="32"
          class="terminal"
          rx="10"/>
   <text class="terminal" x="59" y="505">random_beta</text>
   <rect x="51" y="531" width="130" height="32" rx="10"/>
   <rect x="49"
          y="529"
          width="130"
          height="32"
          class="terminal"
          rx="10"/>
   <text class="terminal" x="59" y="549">random_gamma</text>
   <rect x="51" y="575" width="128" height="32" rx="10"/>
   <rect x="49"
          y="573"
          width="128"
          height="32"
          class="terminal"
          rx="10"/>
   <text class="terminal" x="59" y="593">random_normal</text>
   <rect x="51" y="619" width="130" height="32" rx="10"/>
   <rect x="49"
          y="617"
          width="130"
          height="32"
          class="terminal"
          rx="10"/>
   <text class="terminal" x="59" y="637">random_weibull</text>
   <path class="line"
          d="m17 17 h2 m20 0 h10 m54 0 h10 m0 0 h76 m-170 0 h20 m150 0 h20 m-190 0 q10 0 10 10 m170 0 q0 -10 10 -10 m-180 10 v24 m170 0 v-24 m-170 24 q0 10 10 10 m150 0 q10 0 10 -10 m-160 10 h10 m54 0 h10 m0 0 h76 m-160 -10 v20 m170 0 v-20 m-170 20 v24 m170 0 v-24 m-170 24 q0 10 10 10 m150 0 q10 0 10 -10 m-160 10 h10 m50 0 h10 m0 0 h80 m-160 -10 v20 m170 0 v-20 m-170 20 v24 m170 0 v-24 m-170 24 q0 10 10 10 m150 0 q10 0 10 -10 m-160 10 h10 m50 0 h10 m0 0 h80 m-160 -10 v20 m170 0 v-20 m-170 20 v24 m170 0 v-24 m-170 24 q0 10 10 10 m150 0 q10 0 10 -10 m-160 10 h10 m48 0 h10 m0 0 h82 m-160 -10 v20 m170 0 v-20 m-170 20 v24 m170 0 v-24 m-170 24 q0 10 10 10 m150 0 q10 0 10 -10 m-160 10 h10 m58 0 h10 m0 0 h72 m-160 -10 v20 m170 0 v-20 m-170 20 v24 m170 0 v-24 m-170 24 q0 10 10 10 m150 0 q10 0 10 -10 m-160 10 h10 m58 0 h10 m0 0 h72 m-160 -10 v20 m170 0 v-20 m-170 20 v24 m170 0 v-24 m-170 24 q0 10 10 10 m150 0 q10 0 10 -10 m-160 10 h10 m56 0 h10 m0 0 h74 m-160 -10 v20 m170 0 v-20 m-170 20 v24 m170 0 v-24 m-170 24 q0 10 10 10 m150 0 q10 0 10 -10 m-160 10 h10 m82 0 h10 m0 0 h48 m-160 -10 v20 m170 0 v-20 m-170 20 v24 m170 0 v-24 m-170 24 q0 10 10 10 m150 0 q10 0 10 -10 m-160 10 h10 m80 0 h10 m0 0 h50 m-160 -10 v20 m170 0 v-20 m-170 20 v24 m170 0 v-24 m-170 24 q0 10 10 10 m150 0 q10 0 10 -10 m-160 10 h10 m130 0 h10 m-160 -10 v20 m170 0 v-20 m-170 20 v24 m170 0 v-24 m-170 24 q0 10 10 10 m150 0 q10 0 10 -10 m-160 10 h10 m110 0 h10 m0 0 h20 m-160 -10 v20 m170 0 v-20 m-170 20 v24 m170 0 v-24 m-170 24 q0 10 10 10 m150 0 q10 0 10 -10 m-160 10 h10 m130 0 h10 m-160 -10 v20 m170 0 v-20 m-170 20 v24 m170 0 v-24 m-170 24 q0 10 10 10 m150 0 q10 0 10 -10 m-160 10 h10 m128 0 h10 m0 0 h2 m-160 -10 v20 m170 0 v-20 m-170 20 v24 m170 0 v-24 m-170 24 q0 10 10 10 m150 0 q10 0 10 -10 m-160 10 h10 m130 0 h10 m23 -616 h-3"/>
   <polygon points="219 17 227 13 227 21"/>
   <polygon points="219 17 211 13 211 21"/>
</svg>
