<?xml version="1.0" encoding="UTF-8"?>
<svg xmlns="http://www.w3.org/2000/svg" width="469" height="119">
   <defs>
      <style type="text/css">
    @namespace "http://www.w3.org/2000/svg";
    .line                 {fill: none; stroke: #332900; stroke-width: 1;}
    .bold-line            {stroke: #141000; shape-rendering: crispEdges; stroke-width: 2;}
    .thin-line            {stroke: #1F1800; shape-rendering: crispEdges}
    .filled               {fill: #332900; stroke: none;}
    text.terminal         {font-family: Verdana, Sans-serif;
                            font-size: 12px;
                            fill: #141000;
                            font-weight: bold;
                          }
    text.nonterminal      {font-family: Verdana, Sans-serif;
                            font-size: 12px;
                            fill: #1A1400;
                            font-weight: normal;
                          }
    text.regexp           {font-family: Verdana, Sans-serif;
                            font-size: 12px;
                            fill: #1F1800;
                            font-weight: normal;
                          }
    rect, circle, polygon {fill: #332900; stroke: #332900;}
    rect.terminal         {fill: #FFDB4D; stroke: #332900; stroke-width: 1;}
    rect.nonterminal      {fill: #FFEC9E; stroke: #332900; stroke-width: 1;}
    rect.text             {fill: none; stroke: none;}
    polygon.regexp        {fill: #FFF4C7; stroke: #332900; stroke-width: 1;}
  </style>
   </defs>
   <polygon points="9 33 1 29 1 37"/>
   <polygon points="17 33 9 29 9 37"/>
   <a xmlns:xlink="http://www.w3.org/1999/xlink"
       xlink:href="#NonTypeId"
       xlink:title="NonTypeId">
      <rect x="51" y="19" width="88" height="32"/>
      <rect x="49" y="17" width="88" height="32" class="nonterminal"/>
      <text class="nonterminal" x="59" y="37">NonTypeId</text>
   </a>
   <rect x="199" y="19" width="26" height="32" rx="10"/>
   <rect x="197"
          y="17"
          width="26"
          height="32"
          class="terminal"
          rx="10"/>
   <text class="terminal" x="207" y="37">[</text>
   <a xmlns:xlink="http://www.w3.org/1999/xlink"
       xlink:href="#Expression"
       xlink:title="Expression">
      <rect x="245" y="19" width="90" height="32"/>
      <rect x="243" y="17" width="90" height="32" class="nonterminal"/>
      <text class="nonterminal" x="253" y="37">Expression</text>
   </a>
   <rect x="355" y="19" width="26" height="32" rx="10"/>
   <rect x="353"
          y="17"
          width="26"
          height="32"
          class="terminal"
          rx="10"/>
   <text class="terminal" x="363" y="37">]</text>
   <rect x="51" y="85" width="68" height="32" rx="10"/>
   <rect x="49"
          y="83"
          width="68"
          height="32"
          class="terminal"
          rx="10"/>
   <text class="terminal" x="59" y="103">default</text>
   <path class="line"
          d="m17 33 h2 m20 0 h10 m88 0 h10 m40 0 h10 m26 0 h10 m0 0 h10 m90 0 h10 m0 0 h10 m26 0 h10 m-222 0 l20 0 m-1 0 q-9 0 -9 -10 l0 -12 q0 -10 10 -10 m202 32 l20 0 m-20 0 q10 0 10 -10 l0 -12 q0 -10 -10 -10 m-202 0 h10 m0 0 h192 m-242 32 h20 m242 0 h20 m-282 0 q10 0 10 10 m262 0 q0 -10 10 -10 m-272 10 v14 m262 0 v-14 m-262 14 q0 10 10 10 m242 0 q10 0 10 -10 m-252 10 h10 m0 0 h232 m-390 -34 h20 m390 0 h20 m-430 0 q10 0 10 10 m410 0 q0 -10 10 -10 m-420 10 v46 m410 0 v-46 m-410 46 q0 10 10 10 m390 0 q10 0 10 -10 m-400 10 h10 m68 0 h10 m0 0 h302 m23 -66 h-3"/>
   <polygon points="459 33 467 29 467 37"/>
   <polygon points="459 33 451 29 451 37"/>
</svg>
