<?xml version="1.0" encoding="UTF-8"?>
<svg xmlns="http://www.w3.org/2000/svg" width="841" height="221">
   <defs>
      <style type="text/css">
    @namespace "http://www.w3.org/2000/svg";
    .line                 {fill: none; stroke: #332900; stroke-width: 1;}
    .bold-line            {stroke: #141000; shape-rendering: crispEdges; stroke-width: 2;}
    .thin-line            {stroke: #1F1800; shape-rendering: crispEdges}
    .filled               {fill: #332900; stroke: none;}
    text.terminal         {font-family: Verdana, Sans-serif;
                            font-size: 12px;
                            fill: #141000;
                            font-weight: bold;
                          }
    text.nonterminal      {font-family: Verdana, Sans-serif;
                            font-size: 12px;
                            fill: #1A1400;
                            font-weight: normal;
                          }
    text.regexp           {font-family: Verdana, Sans-serif;
                            font-size: 12px;
                            fill: #1F1800;
                            font-weight: normal;
                          }
    rect, circle, polygon {fill: #332900; stroke: #332900;}
    rect.terminal         {fill: #FFDB4D; stroke: #332900; stroke-width: 1;}
    rect.nonterminal      {fill: #FFEC9E; stroke: #332900; stroke-width: 1;}
    rect.text             {fill: none; stroke: none;}
    polygon.regexp        {fill: #FFF4C7; stroke: #332900; stroke-width: 1;}
  </style>
   </defs>
   <polygon points="9 17 1 13 1 21"/>
   <polygon points="17 17 9 13 9 21"/>
   <rect x="71" y="35" width="48" height="32" rx="10"/>
   <rect x="69"
          y="33"
          width="48"
          height="32"
          class="terminal"
          rx="10"/>
   <text class="terminal" x="79" y="53">E&lt;&gt;</text>
   <a xmlns:xlink="http://www.w3.org/1999/xlink"
       xlink:href="#ObservablePredicates"
       xlink:title="ObservablePredicates">
      <rect x="71" y="79" width="158" height="32"/>
      <rect x="69" y="77" width="158" height="32" class="nonterminal"/>
      <text class="nonterminal" x="79" y="97">ObservablePredicates</text>
   </a>
   <rect x="269" y="3" width="66" height="32" rx="10"/>
   <rect x="267"
          y="1"
          width="66"
          height="32"
          class="terminal"
          rx="10"/>
   <text class="terminal" x="277" y="21">control</text>
   <rect x="355" y="3" width="24" height="32" rx="10"/>
   <rect x="353"
          y="1"
          width="24"
          height="32"
          class="terminal"
          rx="10"/>
   <text class="terminal" x="363" y="21">:</text>
   <a xmlns:xlink="http://www.w3.org/1999/xlink"
       xlink:href="#SymbolicQuery"
       xlink:title="SymbolicQuery">
      <rect x="399" y="3" width="112" height="32"/>
      <rect x="397" y="1" width="112" height="32" class="nonterminal"/>
      <text class="nonterminal" x="407" y="21">SymbolicQuery</text>
   </a>
   <a xmlns:xlink="http://www.w3.org/1999/xlink"
       xlink:href="#Subjection"
       xlink:title="Subjection">
      <rect x="531" y="3" width="86" height="32"/>
      <rect x="529" y="1" width="86" height="32" class="nonterminal"/>
      <text class="nonterminal" x="539" y="21">Subjection</text>
   </a>
   <rect x="51" y="123" width="82" height="32" rx="10"/>
   <rect x="49"
          y="121"
          width="82"
          height="32"
          class="terminal"
          rx="10"/>
   <text class="terminal" x="59" y="141">control_t</text>
   <rect x="153" y="123" width="28" height="32" rx="10"/>
   <rect x="151"
          y="121"
          width="28"
          height="32"
          class="terminal"
          rx="10"/>
   <text class="terminal" x="161" y="141">*</text>
   <rect x="221" y="155" width="26" height="32" rx="10"/>
   <rect x="219"
          y="153"
          width="26"
          height="32"
          class="terminal"
          rx="10"/>
   <text class="terminal" x="229" y="173">(</text>
   <a xmlns:xlink="http://www.w3.org/1999/xlink"
       xlink:href="#Expression"
       xlink:title="Expression">
      <rect x="267" y="155" width="90" height="32"/>
      <rect x="265" y="153" width="90" height="32" class="nonterminal"/>
      <text class="nonterminal" x="275" y="173">Expression</text>
   </a>
   <rect x="397" y="187" width="24" height="32" rx="10"/>
   <rect x="395"
          y="185"
          width="24"
          height="32"
          class="terminal"
          rx="10"/>
   <text class="terminal" x="405" y="205">,</text>
   <a xmlns:xlink="http://www.w3.org/1999/xlink"
       xlink:href="#Expression"
       xlink:title="Expression">
      <rect x="441" y="187" width="90" height="32"/>
      <rect x="439" y="185" width="90" height="32" class="nonterminal"/>
      <text class="nonterminal" x="449" y="205">Expression</text>
   </a>
   <rect x="571" y="155" width="26" height="32" rx="10"/>
   <rect x="569"
          y="153"
          width="26"
          height="32"
          class="terminal"
          rx="10"/>
   <text class="terminal" x="579" y="173">)</text>
   <rect x="637" y="123" width="24" height="32" rx="10"/>
   <rect x="635"
          y="121"
          width="24"
          height="32"
          class="terminal"
          rx="10"/>
   <text class="terminal" x="645" y="141">:</text>
   <a xmlns:xlink="http://www.w3.org/1999/xlink"
       xlink:href="#SymbolicQuery"
       xlink:title="SymbolicQuery">
      <rect x="681" y="123" width="112" height="32"/>
      <rect x="679" y="121" width="112" height="32" class="nonterminal"/>
      <text class="nonterminal" x="689" y="141">SymbolicQuery</text>
   </a>
   <path class="line"
          d="m17 17 h2 m40 0 h10 m0 0 h168 m-198 0 h20 m178 0 h20 m-218 0 q10 0 10 10 m198 0 q0 -10 10 -10 m-208 10 v12 m198 0 v-12 m-198 12 q0 10 10 10 m178 0 q10 0 10 -10 m-188 10 h10 m48 0 h10 m0 0 h110 m-188 -10 v20 m198 0 v-20 m-198 20 v24 m198 0 v-24 m-198 24 q0 10 10 10 m178 0 q10 0 10 -10 m-188 10 h10 m158 0 h10 m20 -76 h10 m66 0 h10 m0 0 h10 m24 0 h10 m0 0 h10 m112 0 h10 m0 0 h10 m86 0 h10 m0 0 h176 m-782 0 h20 m762 0 h20 m-802 0 q10 0 10 10 m782 0 q0 -10 10 -10 m-792 10 v100 m782 0 v-100 m-782 100 q0 10 10 10 m762 0 q10 0 10 -10 m-772 10 h10 m82 0 h10 m0 0 h10 m28 0 h10 m20 0 h10 m0 0 h386 m-416 0 h20 m396 0 h20 m-436 0 q10 0 10 10 m416 0 q0 -10 10 -10 m-426 10 v12 m416 0 v-12 m-416 12 q0 10 10 10 m396 0 q10 0 10 -10 m-406 10 h10 m26 0 h10 m0 0 h10 m90 0 h10 m20 0 h10 m0 0 h144 m-174 0 h20 m154 0 h20 m-194 0 q10 0 10 10 m174 0 q0 -10 10 -10 m-184 10 v12 m174 0 v-12 m-174 12 q0 10 10 10 m154 0 q10 0 10 -10 m-164 10 h10 m24 0 h10 m0 0 h10 m90 0 h10 m20 -32 h10 m26 0 h10 m20 -32 h10 m24 0 h10 m0 0 h10 m112 0 h10 m23 -120 h-3"/>
   <polygon points="831 17 839 13 839 21"/>
   <polygon points="831 17 823 13 823 21"/>
</svg>
