<?xml version="1.0" encoding="UTF-8"?>
<svg xmlns="http://www.w3.org/2000/svg" width="245" height="453">
   <defs>
      <style type="text/css">
    @namespace "http://www.w3.org/2000/svg";
    .line                 {fill: none; stroke: #332900; stroke-width: 1;}
    .bold-line            {stroke: #141000; shape-rendering: crispEdges; stroke-width: 2;}
    .thin-line            {stroke: #1F1800; shape-rendering: crispEdges}
    .filled               {fill: #332900; stroke: none;}
    text.terminal         {font-family: Verdana, Sans-serif;
                            font-size: 12px;
                            fill: #141000;
                            font-weight: bold;
                          }
    text.nonterminal      {font-family: Verdana, Sans-serif;
                            font-size: 12px;
                            fill: #1A1400;
                            font-weight: normal;
                          }
    text.regexp           {font-family: Verdana, Sans-serif;
                            font-size: 12px;
                            fill: #1F1800;
                            font-weight: normal;
                          }
    rect, circle, polygon {fill: #332900; stroke: #332900;}
    rect.terminal         {fill: #FFDB4D; stroke: #332900; stroke-width: 1;}
    rect.nonterminal      {fill: #FFEC9E; stroke: #332900; stroke-width: 1;}
    rect.text             {fill: none; stroke: none;}
    polygon.regexp        {fill: #FFF4C7; stroke: #332900; stroke-width: 1;}
  </style>
   </defs>
   <polygon points="9 447 1 443 1 451"/>
   <polygon points="17 447 9 443 9 451"/>
   <a xmlns:xlink="http://www.w3.org/1999/xlink"
       xlink:href="#FunctionDecl"
       xlink:title="FunctionDecl">
      <rect x="51" y="399" width="100" height="32"/>
      <rect x="49" y="397" width="100" height="32" class="nonterminal"/>
      <text class="nonterminal" x="59" y="417">FunctionDecl</text>
   </a>
   <a xmlns:xlink="http://www.w3.org/1999/xlink"
       xlink:href="#ExternDecl"
       xlink:title="ExternDecl">
      <rect x="51" y="355" width="88" height="32"/>
      <rect x="49" y="353" width="88" height="32" class="nonterminal"/>
      <text class="nonterminal" x="59" y="373">ExternDecl</text>
   </a>
   <a xmlns:xlink="http://www.w3.org/1999/xlink"
       xlink:href="#VariableDecl"
       xlink:title="VariableDecl">
      <rect x="51" y="311" width="98" height="32"/>
      <rect x="49" y="309" width="98" height="32" class="nonterminal"/>
      <text class="nonterminal" x="59" y="329">VariableDecl</text>
   </a>
   <a xmlns:xlink="http://www.w3.org/1999/xlink"
       xlink:href="#TypeDecl"
       xlink:title="TypeDecl">
      <rect x="51" y="267" width="76" height="32"/>
      <rect x="49" y="265" width="76" height="32" class="nonterminal"/>
      <text class="nonterminal" x="59" y="285">TypeDecl</text>
   </a>
   <a xmlns:xlink="http://www.w3.org/1999/xlink"
       xlink:href="#ProcDecl"
       xlink:title="ProcDecl">
      <rect x="51" y="223" width="74" height="32"/>
      <rect x="49" y="221" width="74" height="32" class="nonterminal"/>
      <text class="nonterminal" x="59" y="241">ProcDecl</text>
   </a>
   <a xmlns:xlink="http://www.w3.org/1999/xlink"
       xlink:href="#BeforeUpdateDecl"
       xlink:title="BeforeUpdateDecl">
      <rect x="51" y="179" width="134" height="32"/>
      <rect x="49" y="177" width="134" height="32" class="nonterminal"/>
      <text class="nonterminal" x="59" y="197">BeforeUpdateDecl</text>
   </a>
   <a xmlns:xlink="http://www.w3.org/1999/xlink"
       xlink:href="#AfterUpdateDecl"
       xlink:title="AfterUpdateDecl">
      <rect x="51" y="135" width="122" height="32"/>
      <rect x="49" y="133" width="122" height="32" class="nonterminal"/>
      <text class="nonterminal" x="59" y="153">AfterUpdateDecl</text>
   </a>
   <a xmlns:xlink="http://www.w3.org/1999/xlink"
       xlink:href="#Instantiation"
       xlink:title="Instantiation">
      <rect x="51" y="91" width="102" height="32"/>
      <rect x="49" y="89" width="102" height="32" class="nonterminal"/>
      <text class="nonterminal" x="59" y="109">Instantiation</text>
   </a>
   <a xmlns:xlink="http://www.w3.org/1999/xlink"
       xlink:href="#PriorityDecl"
       xlink:title="PriorityDecl">
      <rect x="51" y="47" width="92" height="32"/>
      <rect x="49" y="45" width="92" height="32" class="nonterminal"/>
      <text class="nonterminal" x="59" y="65">PriorityDecl</text>
   </a>
   <a xmlns:xlink="http://www.w3.org/1999/xlink"
       xlink:href="#DynamicDeclaration"
       xlink:title="DynamicDeclaration">
      <rect x="51" y="3" width="146" height="32"/>
      <rect x="49" y="1" width="146" height="32" class="nonterminal"/>
      <text class="nonterminal" x="59" y="21">DynamicDeclaration</text>
   </a>
   <path class="line"
          d="m17 447 h2 m20 0 h10 m0 0 h156 m-186 0 l20 0 m-1 0 q-9 0 -9 -10 l0 -14 q0 -10 10 -10 m166 34 l20 0 m-20 0 q10 0 10 -10 l0 -14 q0 -10 -10 -10 m-166 0 h10 m100 0 h10 m0 0 h46 m-176 10 l0 -44 q0 -10 10 -10 m176 54 l0 -44 q0 -10 -10 -10 m-166 0 h10 m88 0 h10 m0 0 h58 m-176 10 l0 -44 q0 -10 10 -10 m176 54 l0 -44 q0 -10 -10 -10 m-166 0 h10 m98 0 h10 m0 0 h48 m-176 10 l0 -44 q0 -10 10 -10 m176 54 l0 -44 q0 -10 -10 -10 m-166 0 h10 m76 0 h10 m0 0 h70 m-176 10 l0 -44 q0 -10 10 -10 m176 54 l0 -44 q0 -10 -10 -10 m-166 0 h10 m74 0 h10 m0 0 h72 m-176 10 l0 -44 q0 -10 10 -10 m176 54 l0 -44 q0 -10 -10 -10 m-166 0 h10 m134 0 h10 m0 0 h12 m-176 10 l0 -44 q0 -10 10 -10 m176 54 l0 -44 q0 -10 -10 -10 m-166 0 h10 m122 0 h10 m0 0 h24 m-176 10 l0 -44 q0 -10 10 -10 m176 54 l0 -44 q0 -10 -10 -10 m-166 0 h10 m102 0 h10 m0 0 h44 m-176 10 l0 -44 q0 -10 10 -10 m176 54 l0 -44 q0 -10 -10 -10 m-166 0 h10 m92 0 h10 m0 0 h54 m-176 10 l0 -44 q0 -10 10 -10 m176 54 l0 -44 q0 -10 -10 -10 m-166 0 h10 m146 0 h10 m23 430 h-3"/>
   <polygon points="235 447 243 443 243 451"/>
   <polygon points="235 447 227 443 227 451"/>
</svg>
