<?xml version="1.0" encoding="UTF-8"?>
<svg xmlns="http://www.w3.org/2000/svg" width="737" height="301">
   <defs>
      <style type="text/css">
    @namespace "http://www.w3.org/2000/svg";
    .line                 {fill: none; stroke: #332900; stroke-width: 1;}
    .bold-line            {stroke: #141000; shape-rendering: crispEdges; stroke-width: 2;}
    .thin-line            {stroke: #1F1800; shape-rendering: crispEdges}
    .filled               {fill: #332900; stroke: none;}
    text.terminal         {font-family: Verdana, Sans-serif;
                            font-size: 12px;
                            fill: #141000;
                            font-weight: bold;
                          }
    text.nonterminal      {font-family: Verdana, Sans-serif;
                            font-size: 12px;
                            fill: #1A1400;
                            font-weight: normal;
                          }
    text.regexp           {font-family: Verdana, Sans-serif;
                            font-size: 12px;
                            fill: #1F1800;
                            font-weight: normal;
                          }
    rect, circle, polygon {fill: #332900; stroke: #332900;}
    rect.terminal         {fill: #FFDB4D; stroke: #332900; stroke-width: 1;}
    rect.nonterminal      {fill: #FFEC9E; stroke: #332900; stroke-width: 1;}
    rect.text             {fill: none; stroke: none;}
    polygon.regexp        {fill: #FFF4C7; stroke: #332900; stroke-width: 1;}
  </style>
   </defs>
   <polygon points="9 17 1 13 1 21"/>
   <polygon points="17 17 9 13 9 21"/>
   <rect x="71" y="3" width="64" height="32" rx="10"/>
   <rect x="69"
          y="1"
          width="64"
          height="32"
          class="terminal"
          rx="10"/>
   <text class="terminal" x="79" y="21">spawn</text>
   <a xmlns:xlink="http://www.w3.org/1999/xlink"
       xlink:href="#NonTypeId"
       xlink:title="NonTypeId">
      <rect x="155" y="3" width="88" height="32"/>
      <rect x="153" y="1" width="88" height="32" class="nonterminal"/>
      <text class="nonterminal" x="163" y="21">NonTypeId</text>
   </a>
   <rect x="263" y="3" width="26" height="32" rx="10"/>
   <rect x="261"
          y="1"
          width="26"
          height="32"
          class="terminal"
          rx="10"/>
   <text class="terminal" x="271" y="21">(</text>
   <a xmlns:xlink="http://www.w3.org/1999/xlink"
       xlink:href="#ArgList"
       xlink:title="ArgList">
      <rect x="309" y="3" width="64" height="32"/>
      <rect x="307" y="1" width="64" height="32" class="nonterminal"/>
      <text class="nonterminal" x="317" y="21">ArgList</text>
   </a>
   <rect x="71" y="47" width="46" height="32" rx="10"/>
   <rect x="69"
          y="45"
          width="46"
          height="32"
          class="terminal"
          rx="10"/>
   <text class="terminal" x="79" y="65">exit</text>
   <rect x="137" y="47" width="26" height="32" rx="10"/>
   <rect x="135"
          y="45"
          width="26"
          height="32"
          class="terminal"
          rx="10"/>
   <text class="terminal" x="145" y="65">(</text>
   <rect x="71" y="91" width="66" height="32" rx="10"/>
   <rect x="69"
          y="89"
          width="66"
          height="32"
          class="terminal"
          rx="10"/>
   <text class="terminal" x="79" y="109">numOf</text>
   <rect x="157" y="91" width="26" height="32" rx="10"/>
   <rect x="155"
          y="89"
          width="26"
          height="32"
          class="terminal"
          rx="10"/>
   <text class="terminal" x="165" y="109">(</text>
   <a xmlns:xlink="http://www.w3.org/1999/xlink"
       xlink:href="#NonTypeId"
       xlink:title="NonTypeId">
      <rect x="203" y="91" width="88" height="32"/>
      <rect x="201" y="89" width="88" height="32" class="nonterminal"/>
      <text class="nonterminal" x="211" y="109">NonTypeId</text>
   </a>
   <rect x="91" y="135" width="56" height="32" rx="10"/>
   <rect x="89"
          y="133"
          width="56"
          height="32"
          class="terminal"
          rx="10"/>
   <text class="terminal" x="99" y="153">forall</text>
   <rect x="91" y="179" width="60" height="32" rx="10"/>
   <rect x="89"
          y="177"
          width="60"
          height="32"
          class="terminal"
          rx="10"/>
   <text class="terminal" x="99" y="197">exists</text>
   <rect x="191" y="135" width="26" height="32" rx="10"/>
   <rect x="189"
          y="133"
          width="26"
          height="32"
          class="terminal"
          rx="10"/>
   <text class="terminal" x="199" y="153">(</text>
   <a xmlns:xlink="http://www.w3.org/1999/xlink"
       xlink:href="#Id"
       xlink:title="Id">
      <rect x="237" y="135" width="32" height="32"/>
      <rect x="235" y="133" width="32" height="32" class="nonterminal"/>
      <text class="nonterminal" x="245" y="153">Id</text>
   </a>
   <rect x="289" y="135" width="24" height="32" rx="10"/>
   <rect x="287"
          y="133"
          width="24"
          height="32"
          class="terminal"
          rx="10"/>
   <text class="terminal" x="297" y="153">:</text>
   <a xmlns:xlink="http://www.w3.org/1999/xlink"
       xlink:href="#NonTypeId"
       xlink:title="NonTypeId">
      <rect x="333" y="135" width="88" height="32"/>
      <rect x="331" y="133" width="88" height="32" class="nonterminal"/>
      <text class="nonterminal" x="341" y="153">NonTypeId</text>
   </a>
   <rect x="441" y="135" width="26" height="32" rx="10"/>
   <rect x="439"
          y="133"
          width="26"
          height="32"
          class="terminal"
          rx="10"/>
   <text class="terminal" x="449" y="153">)</text>
   <rect x="487" y="135" width="26" height="32" rx="10"/>
   <rect x="485"
          y="133"
          width="26"
          height="32"
          class="terminal"
          rx="10"/>
   <text class="terminal" x="495" y="153">(</text>
   <a xmlns:xlink="http://www.w3.org/1999/xlink"
       xlink:href="#Expression"
       xlink:title="Expression">
      <rect x="533" y="135" width="90" height="32"/>
      <rect x="531" y="133" width="90" height="32" class="nonterminal"/>
      <text class="nonterminal" x="541" y="153">Expression</text>
   </a>
   <rect x="663" y="3" width="26" height="32" rx="10"/>
   <rect x="661"
          y="1"
          width="26"
          height="32"
          class="terminal"
          rx="10"/>
   <text class="terminal" x="671" y="21">)</text>
   <rect x="71" y="223" width="48" height="32" rx="10"/>
   <rect x="69"
          y="221"
          width="48"
          height="32"
          class="terminal"
          rx="10"/>
   <text class="terminal" x="79" y="241">sum</text>
   <rect x="71" y="267" width="70" height="32" rx="10"/>
   <rect x="69"
          y="265"
          width="70"
          height="32"
          class="terminal"
          rx="10"/>
   <text class="terminal" x="79" y="285">foreach</text>
   <rect x="181" y="223" width="26" height="32" rx="10"/>
   <rect x="179"
          y="221"
          width="26"
          height="32"
          class="terminal"
          rx="10"/>
   <text class="terminal" x="189" y="241">(</text>
   <a xmlns:xlink="http://www.w3.org/1999/xlink"
       xlink:href="#Id"
       xlink:title="Id">
      <rect x="227" y="223" width="32" height="32"/>
      <rect x="225" y="221" width="32" height="32" class="nonterminal"/>
      <text class="nonterminal" x="235" y="241">Id</text>
   </a>
   <rect x="279" y="223" width="24" height="32" rx="10"/>
   <rect x="277"
          y="221"
          width="24"
          height="32"
          class="terminal"
          rx="10"/>
   <text class="terminal" x="287" y="241">:</text>
   <a xmlns:xlink="http://www.w3.org/1999/xlink"
       xlink:href="#NonTypeId"
       xlink:title="NonTypeId">
      <rect x="323" y="223" width="88" height="32"/>
      <rect x="321" y="221" width="88" height="32" class="nonterminal"/>
      <text class="nonterminal" x="331" y="241">NonTypeId</text>
   </a>
   <rect x="431" y="223" width="26" height="32" rx="10"/>
   <rect x="429"
          y="221"
          width="26"
          height="32"
          class="terminal"
          rx="10"/>
   <text class="terminal" x="439" y="241">)</text>
   <a xmlns:xlink="http://www.w3.org/1999/xlink"
       xlink:href="#Expression"
       xlink:title="Expression">
      <rect x="477" y="223" width="90" height="32"/>
      <rect x="475" y="221" width="90" height="32" class="nonterminal"/>
      <text class="nonterminal" x="485" y="241">Expression</text>
   </a>
   <path class="line"
          d="m17 17 h2 m40 0 h10 m64 0 h10 m0 0 h10 m88 0 h10 m0 0 h10 m26 0 h10 m0 0 h10 m64 0 h10 m0 0 h250 m-592 0 h20 m572 0 h20 m-612 0 q10 0 10 10 m592 0 q0 -10 10 -10 m-602 10 v24 m592 0 v-24 m-592 24 q0 10 10 10 m572 0 q10 0 10 -10 m-582 10 h10 m46 0 h10 m0 0 h10 m26 0 h10 m0 0 h460 m-582 -10 v20 m592 0 v-20 m-592 20 v24 m592 0 v-24 m-592 24 q0 10 10 10 m572 0 q10 0 10 -10 m-582 10 h10 m66 0 h10 m0 0 h10 m26 0 h10 m0 0 h10 m88 0 h10 m0 0 h332 m-582 -10 v20 m592 0 v-20 m-592 20 v24 m592 0 v-24 m-592 24 q0 10 10 10 m572 0 q10 0 10 -10 m-562 10 h10 m56 0 h10 m0 0 h4 m-100 0 h20 m80 0 h20 m-120 0 q10 0 10 10 m100 0 q0 -10 10 -10 m-110 10 v24 m100 0 v-24 m-100 24 q0 10 10 10 m80 0 q10 0 10 -10 m-90 10 h10 m60 0 h10 m20 -44 h10 m26 0 h10 m0 0 h10 m32 0 h10 m0 0 h10 m24 0 h10 m0 0 h10 m88 0 h10 m0 0 h10 m26 0 h10 m0 0 h10 m26 0 h10 m0 0 h10 m90 0 h10 m20 -132 h10 m26 0 h10 m-678 0 h20 m658 0 h20 m-698 0 q10 0 10 10 m678 0 q0 -10 10 -10 m-688 10 v200 m678 0 v-200 m-678 200 q0 10 10 10 m658 0 q10 0 10 -10 m-648 10 h10 m48 0 h10 m0 0 h22 m-110 0 h20 m90 0 h20 m-130 0 q10 0 10 10 m110 0 q0 -10 10 -10 m-120 10 v24 m110 0 v-24 m-110 24 q0 10 10 10 m90 0 q10 0 10 -10 m-100 10 h10 m70 0 h10 m20 -44 h10 m26 0 h10 m0 0 h10 m32 0 h10 m0 0 h10 m24 0 h10 m0 0 h10 m88 0 h10 m0 0 h10 m26 0 h10 m0 0 h10 m90 0 h10 m0 0 h122 m23 -220 h-3"/>
   <polygon points="727 17 735 13 735 21"/>
   <polygon points="727 17 719 13 719 21"/>
</svg>
