<?xml version="1.0" encoding="UTF-8"?>
<svg xmlns="http://www.w3.org/2000/svg" width="809" height="2489">
   <defs>
      <style type="text/css">
    @namespace "http://www.w3.org/2000/svg";
    .line                 {fill: none; stroke: #332900; stroke-width: 1;}
    .bold-line            {stroke: #141000; shape-rendering: crispEdges; stroke-width: 2;}
    .thin-line            {stroke: #1F1800; shape-rendering: crispEdges}
    .filled               {fill: #332900; stroke: none;}
    text.terminal         {font-family: Verdana, Sans-serif;
                            font-size: 12px;
                            fill: #141000;
                            font-weight: bold;
                          }
    text.nonterminal      {font-family: Verdana, Sans-serif;
                            font-size: 12px;
                            fill: #1A1400;
                            font-weight: normal;
                          }
    text.regexp           {font-family: Verdana, Sans-serif;
                            font-size: 12px;
                            fill: #1F1800;
                            font-weight: normal;
                          }
    rect, circle, polygon {fill: #332900; stroke: #332900;}
    rect.terminal         {fill: #FFDB4D; stroke: #332900; stroke-width: 1;}
    rect.nonterminal      {fill: #FFEC9E; stroke: #332900; stroke-width: 1;}
    rect.text             {fill: none; stroke: none;}
    polygon.regexp        {fill: #FFF4C7; stroke: #332900; stroke-width: 1;}
  </style>
   </defs>
   <polygon points="9 17 1 13 1 21"/>
   <polygon points="17 17 9 13 9 21"/>
   <rect x="51" y="3" width="52" height="32" rx="10"/>
   <rect x="49"
          y="1"
          width="52"
          height="32"
          class="terminal"
          rx="10"/>
   <text class="terminal" x="59" y="21">false</text>
   <rect x="51" y="47" width="48" height="32" rx="10"/>
   <rect x="49"
          y="45"
          width="48"
          height="32"
          class="terminal"
          rx="10"/>
   <text class="terminal" x="59" y="65">true</text>
   <a xmlns:xlink="http://www.w3.org/1999/xlink"
       xlink:href="#PosInteger"
       xlink:title="PosInteger">
      <rect x="51" y="91" width="90" height="32"/>
      <rect x="49" y="89" width="90" height="32" class="nonterminal"/>
      <text class="nonterminal" x="59" y="109">PosInteger</text>
   </a>
   <a xmlns:xlink="http://www.w3.org/1999/xlink"
       xlink:href="#DecimalNumber"
       xlink:title="DecimalNumber">
      <rect x="51" y="135" width="118" height="32"/>
      <rect x="49" y="133" width="118" height="32" class="nonterminal"/>
      <text class="nonterminal" x="59" y="153">DecimalNumber</text>
   </a>
   <a xmlns:xlink="http://www.w3.org/1999/xlink"
       xlink:href="#QuotedText"
       xlink:title="QuotedText">
      <rect x="51" y="179" width="94" height="32"/>
      <rect x="49" y="177" width="94" height="32" class="nonterminal"/>
      <text class="nonterminal" x="59" y="197">QuotedText</text>
   </a>
   <a xmlns:xlink="http://www.w3.org/1999/xlink"
       xlink:href="#BuiltinFunction1"
       xlink:title="BuiltinFunction1">
      <rect x="91" y="255" width="120" height="32"/>
      <rect x="89" y="253" width="120" height="32" class="nonterminal"/>
      <text class="nonterminal" x="99" y="273">BuiltinFunction1</text>
   </a>
   <rect x="251" y="223" width="26" height="32" rx="10"/>
   <rect x="249"
          y="221"
          width="26"
          height="32"
          class="terminal"
          rx="10"/>
   <text class="terminal" x="259" y="241">(</text>
   <a xmlns:xlink="http://www.w3.org/1999/xlink"
       xlink:href="#BuiltinFunction2"
       xlink:title="BuiltinFunction2">
      <rect x="91" y="299" width="120" height="32"/>
      <rect x="89" y="297" width="120" height="32" class="nonterminal"/>
      <text class="nonterminal" x="99" y="317">BuiltinFunction2</text>
   </a>
   <rect x="231" y="299" width="26" height="32" rx="10"/>
   <rect x="229"
          y="297"
          width="26"
          height="32"
          class="terminal"
          rx="10"/>
   <text class="terminal" x="239" y="317">(</text>
   <a xmlns:xlink="http://www.w3.org/1999/xlink"
       xlink:href="#BuiltinFunction3"
       xlink:title="BuiltinFunction3">
      <rect x="91" y="343" width="120" height="32"/>
      <rect x="89" y="341" width="120" height="32" class="nonterminal"/>
      <text class="nonterminal" x="99" y="361">BuiltinFunction3</text>
   </a>
   <rect x="231" y="343" width="26" height="32" rx="10"/>
   <rect x="229"
          y="341"
          width="26"
          height="32"
          class="terminal"
          rx="10"/>
   <text class="terminal" x="239" y="361">(</text>
   <a xmlns:xlink="http://www.w3.org/1999/xlink"
       xlink:href="#Expression"
       xlink:title="Expression">
      <rect x="277" y="343" width="90" height="32"/>
      <rect x="275" y="341" width="90" height="32" class="nonterminal"/>
      <text class="nonterminal" x="285" y="361">Expression</text>
   </a>
   <rect x="387" y="343" width="24" height="32" rx="10"/>
   <rect x="385"
          y="341"
          width="24"
          height="32"
          class="terminal"
          rx="10"/>
   <text class="terminal" x="395" y="361">,</text>
   <a xmlns:xlink="http://www.w3.org/1999/xlink"
       xlink:href="#Expression"
       xlink:title="Expression">
      <rect x="451" y="299" width="90" height="32"/>
      <rect x="449" y="297" width="90" height="32" class="nonterminal"/>
      <text class="nonterminal" x="459" y="317">Expression</text>
   </a>
   <rect x="561" y="299" width="24" height="32" rx="10"/>
   <rect x="559"
          y="297"
          width="24"
          height="32"
          class="terminal"
          rx="10"/>
   <text class="terminal" x="569" y="317">,</text>
   <a xmlns:xlink="http://www.w3.org/1999/xlink"
       xlink:href="#Expression"
       xlink:title="Expression">
      <rect x="625" y="223" width="90" height="32"/>
      <rect x="623" y="221" width="90" height="32" class="nonterminal"/>
      <text class="nonterminal" x="633" y="241">Expression</text>
   </a>
   <rect x="735" y="223" width="26" height="32" rx="10"/>
   <rect x="733"
          y="221"
          width="26"
          height="32"
          class="terminal"
          rx="10"/>
   <text class="terminal" x="743" y="241">)</text>
   <a xmlns:xlink="http://www.w3.org/1999/xlink"
       xlink:href="#NonTypeId"
       xlink:title="NonTypeId">
      <rect x="51" y="387" width="88" height="32"/>
      <rect x="49" y="385" width="88" height="32" class="nonterminal"/>
      <text class="nonterminal" x="59" y="405">NonTypeId</text>
   </a>
   <a xmlns:xlink="http://www.w3.org/1999/xlink"
       xlink:href="#Expression"
       xlink:title="Expression">
      <rect x="51" y="431" width="90" height="32"/>
      <rect x="49" y="429" width="90" height="32" class="nonterminal"/>
      <text class="nonterminal" x="59" y="449">Expression</text>
   </a>
   <rect x="181" y="431" width="26" height="32" rx="10"/>
   <rect x="179"
          y="429"
          width="26"
          height="32"
          class="terminal"
          rx="10"/>
   <text class="terminal" x="189" y="449">(</text>
   <a xmlns:xlink="http://www.w3.org/1999/xlink"
       xlink:href="#ArgList"
       xlink:title="ArgList">
      <rect x="227" y="431" width="64" height="32"/>
      <rect x="225" y="429" width="64" height="32" class="nonterminal"/>
      <text class="nonterminal" x="235" y="449">ArgList</text>
   </a>
   <rect x="311" y="431" width="26" height="32" rx="10"/>
   <rect x="309"
          y="429"
          width="26"
          height="32"
          class="terminal"
          rx="10"/>
   <text class="terminal" x="319" y="449">)</text>
   <rect x="181" y="475" width="26" height="32" rx="10"/>
   <rect x="179"
          y="473"
          width="26"
          height="32"
          class="terminal"
          rx="10"/>
   <text class="terminal" x="189" y="493">[</text>
   <a xmlns:xlink="http://www.w3.org/1999/xlink"
       xlink:href="#Expression"
       xlink:title="Expression">
      <rect x="227" y="475" width="90" height="32"/>
      <rect x="225" y="473" width="90" height="32" class="nonterminal"/>
      <text class="nonterminal" x="235" y="493">Expression</text>
   </a>
   <rect x="337" y="475" width="26" height="32" rx="10"/>
   <rect x="335"
          y="473"
          width="26"
          height="32"
          class="terminal"
          rx="10"/>
   <text class="terminal" x="345" y="493">]</text>
   <rect x="181" y="519" width="40" height="32" rx="10"/>
   <rect x="179"
          y="517"
          width="40"
          height="32"
          class="terminal"
          rx="10"/>
   <text class="terminal" x="189" y="537">++</text>
   <rect x="181" y="563" width="32" height="32" rx="10"/>
   <rect x="179"
          y="561"
          width="32"
          height="32"
          class="terminal"
          rx="10"/>
   <text class="terminal" x="189" y="581">--</text>
   <rect x="201" y="607" width="30" height="32" rx="10"/>
   <rect x="199"
          y="605"
          width="30"
          height="32"
          class="terminal"
          rx="10"/>
   <text class="terminal" x="209" y="625">&lt;</text>
   <rect x="201" y="651" width="40" height="32" rx="10"/>
   <rect x="199"
          y="649"
          width="40"
          height="32"
          class="terminal"
          rx="10"/>
   <text class="terminal" x="209" y="669">&lt;=</text>
   <rect x="201" y="695" width="40" height="32" rx="10"/>
   <rect x="199"
          y="693"
          width="40"
          height="32"
          class="terminal"
          rx="10"/>
   <text class="terminal" x="209" y="713">==</text>
   <rect x="201" y="739" width="34" height="32" rx="10"/>
   <rect x="199"
          y="737"
          width="34"
          height="32"
          class="terminal"
          rx="10"/>
   <text class="terminal" x="209" y="757">!=</text>
   <rect x="201" y="783" width="30" height="32" rx="10"/>
   <rect x="199"
          y="781"
          width="30"
          height="32"
          class="terminal"
          rx="10"/>
   <text class="terminal" x="209" y="801">&gt;</text>
   <rect x="201" y="827" width="40" height="32" rx="10"/>
   <rect x="199"
          y="825"
          width="40"
          height="32"
          class="terminal"
          rx="10"/>
   <text class="terminal" x="209" y="845">&gt;=</text>
   <rect x="201" y="871" width="30" height="32" rx="10"/>
   <rect x="199"
          y="869"
          width="30"
          height="32"
          class="terminal"
          rx="10"/>
   <text class="terminal" x="209" y="889">+</text>
   <rect x="201" y="915" width="26" height="32" rx="10"/>
   <rect x="199"
          y="913"
          width="26"
          height="32"
          class="terminal"
          rx="10"/>
   <text class="terminal" x="209" y="933">-</text>
   <rect x="201" y="959" width="28" height="32" rx="10"/>
   <rect x="199"
          y="957"
          width="28"
          height="32"
          class="terminal"
          rx="10"/>
   <text class="terminal" x="209" y="977">*</text>
   <rect x="201" y="1003" width="28" height="32" rx="10"/>
   <rect x="199"
          y="1001"
          width="28"
          height="32"
          class="terminal"
          rx="10"/>
   <text class="terminal" x="209" y="1021">/</text>
   <rect x="201" y="1047" width="34" height="32" rx="10"/>
   <rect x="199"
          y="1045"
          width="34"
          height="32"
          class="terminal"
          rx="10"/>
   <text class="terminal" x="209" y="1065">%</text>
   <rect x="201" y="1091" width="38" height="32" rx="10"/>
   <rect x="199"
          y="1089"
          width="38"
          height="32"
          class="terminal"
          rx="10"/>
   <text class="terminal" x="209" y="1109">**</text>
   <rect x="201" y="1135" width="30" height="32" rx="10"/>
   <rect x="199"
          y="1133"
          width="30"
          height="32"
          class="terminal"
          rx="10"/>
   <text class="terminal" x="209" y="1153">&amp;</text>
   <rect x="201" y="1179" width="26" height="32" rx="10"/>
   <rect x="199"
          y="1177"
          width="26"
          height="32"
          class="terminal"
          rx="10"/>
   <text class="terminal" x="209" y="1197">|</text>
   <rect x="201" y="1223" width="30" height="32" rx="10"/>
   <rect x="199"
          y="1221"
          width="30"
          height="32"
          class="terminal"
          rx="10"/>
   <text class="terminal" x="209" y="1241">^</text>
   <rect x="201" y="1267" width="40" height="32" rx="10"/>
   <rect x="199"
          y="1265"
          width="40"
          height="32"
          class="terminal"
          rx="10"/>
   <text class="terminal" x="209" y="1285">&lt;&lt;</text>
   <rect x="201" y="1311" width="40" height="32" rx="10"/>
   <rect x="199"
          y="1309"
          width="40"
          height="32"
          class="terminal"
          rx="10"/>
   <text class="terminal" x="209" y="1329">&gt;&gt;</text>
   <rect x="201" y="1355" width="40" height="32" rx="10"/>
   <rect x="199"
          y="1353"
          width="40"
          height="32"
          class="terminal"
          rx="10"/>
   <text class="terminal" x="209" y="1373">&amp;&amp;</text>
   <rect x="201" y="1399" width="32" height="32" rx="10"/>
   <rect x="199"
          y="1397"
          width="32"
          height="32"
          class="terminal"
          rx="10"/>
   <text class="terminal" x="209" y="1417">||</text>
   <rect x="201" y="1443" width="26" height="32" rx="10"/>
   <rect x="199"
          y="1441"
          width="26"
          height="32"
          class="terminal"
          rx="10"/>
   <text class="terminal" x="209" y="1461">?</text>
   <a xmlns:xlink="http://www.w3.org/1999/xlink"
       xlink:href="#Expression"
       xlink:title="Expression">
      <rect x="247" y="1443" width="90" height="32"/>
      <rect x="245" y="1441" width="90" height="32" class="nonterminal"/>
      <text class="nonterminal" x="255" y="1461">Expression</text>
   </a>
   <rect x="357" y="1443" width="24" height="32" rx="10"/>
   <rect x="355"
          y="1441"
          width="24"
          height="32"
          class="terminal"
          rx="10"/>
   <text class="terminal" x="365" y="1461">:</text>
   <rect x="201" y="1487" width="56" height="32" rx="10"/>
   <rect x="199"
          y="1485"
          width="56"
          height="32"
          class="terminal"
          rx="10"/>
   <text class="terminal" x="209" y="1505">imply</text>
   <rect x="201" y="1531" width="44" height="32" rx="10"/>
   <rect x="199"
          y="1529"
          width="44"
          height="32"
          class="terminal"
          rx="10"/>
   <text class="terminal" x="209" y="1549">and</text>
   <rect x="201" y="1575" width="34" height="32" rx="10"/>
   <rect x="199"
          y="1573"
          width="34"
          height="32"
          class="terminal"
          rx="10"/>
   <text class="terminal" x="209" y="1593">or</text>
   <rect x="201" y="1619" width="42" height="32" rx="10"/>
   <rect x="199"
          y="1617"
          width="42"
          height="32"
          class="terminal"
          rx="10"/>
   <text class="terminal" x="209" y="1637">xor</text>
   <rect x="201" y="1663" width="38" height="32" rx="10"/>
   <rect x="199"
          y="1661"
          width="38"
          height="32"
          class="terminal"
          rx="10"/>
   <text class="terminal" x="209" y="1681">&lt;?</text>
   <rect x="201" y="1707" width="38" height="32" rx="10"/>
   <rect x="199"
          y="1705"
          width="38"
          height="32"
          class="terminal"
          rx="10"/>
   <text class="terminal" x="209" y="1725">&gt;?</text>
   <a xmlns:xlink="http://www.w3.org/1999/xlink"
       xlink:href="#Expression"
       xlink:title="Expression">
      <rect x="421" y="607" width="90" height="32"/>
      <rect x="419" y="605" width="90" height="32" class="nonterminal"/>
      <text class="nonterminal" x="429" y="625">Expression</text>
   </a>
   <rect x="181" y="1751" width="24" height="32" rx="10"/>
   <rect x="179"
          y="1749"
          width="24"
          height="32"
          class="terminal"
          rx="10"/>
   <text class="terminal" x="189" y="1769">.</text>
   <rect x="245" y="1751" width="74" height="32" rx="10"/>
   <rect x="243"
          y="1749"
          width="74"
          height="32"
          class="terminal"
          rx="10"/>
   <text class="terminal" x="253" y="1769">location</text>
   <a xmlns:xlink="http://www.w3.org/1999/xlink"
       xlink:href="#NonTypeId"
       xlink:title="NonTypeId">
      <rect x="245" y="1795" width="88" height="32"/>
      <rect x="243" y="1793" width="88" height="32" class="nonterminal"/>
      <text class="nonterminal" x="253" y="1813">NonTypeId</text>
   </a>
   <rect x="181" y="1839" width="32" height="32" rx="10"/>
   <rect x="179"
          y="1837"
          width="32"
          height="32"
          class="terminal"
          rx="10"/>
   <text class="terminal" x="189" y="1857">\'</text>
   <rect x="71" y="1883" width="40" height="32" rx="10"/>
   <rect x="69"
          y="1881"
          width="40"
          height="32"
          class="terminal"
          rx="10"/>
   <text class="terminal" x="79" y="1901">++</text>
   <rect x="71" y="1927" width="32" height="32" rx="10"/>
   <rect x="69"
          y="1925"
          width="32"
          height="32"
          class="terminal"
          rx="10"/>
   <text class="terminal" x="79" y="1945">--</text>
   <rect x="71" y="1971" width="26" height="32" rx="10"/>
   <rect x="69"
          y="1969"
          width="26"
          height="32"
          class="terminal"
          rx="10"/>
   <text class="terminal" x="79" y="1989">-</text>
   <rect x="71" y="2015" width="30" height="32" rx="10"/>
   <rect x="69"
          y="2013"
          width="30"
          height="32"
          class="terminal"
          rx="10"/>
   <text class="terminal" x="79" y="2033">+</text>
   <rect x="71" y="2059" width="24" height="32" rx="10"/>
   <rect x="69"
          y="2057"
          width="24"
          height="32"
          class="terminal"
          rx="10"/>
   <text class="terminal" x="79" y="2077">!</text>
   <rect x="71" y="2103" width="42" height="32" rx="10"/>
   <rect x="69"
          y="2101"
          width="42"
          height="32"
          class="terminal"
          rx="10"/>
   <text class="terminal" x="79" y="2121">not</text>
   <rect x="91" y="2147" width="48" height="32" rx="10"/>
   <rect x="89"
          y="2145"
          width="48"
          height="32"
          class="terminal"
          rx="10"/>
   <text class="terminal" x="99" y="2165">sum</text>
   <rect x="91" y="2191" width="56" height="32" rx="10"/>
   <rect x="89"
          y="2189"
          width="56"
          height="32"
          class="terminal"
          rx="10"/>
   <text class="terminal" x="99" y="2209">forall</text>
   <rect x="91" y="2235" width="60" height="32" rx="10"/>
   <rect x="89"
          y="2233"
          width="60"
          height="32"
          class="terminal"
          rx="10"/>
   <text class="terminal" x="99" y="2253">exists</text>
   <rect x="191" y="2147" width="26" height="32" rx="10"/>
   <rect x="189"
          y="2145"
          width="26"
          height="32"
          class="terminal"
          rx="10"/>
   <text class="terminal" x="199" y="2165">(</text>
   <a xmlns:xlink="http://www.w3.org/1999/xlink"
       xlink:href="#Id"
       xlink:title="Id">
      <rect x="237" y="2147" width="32" height="32"/>
      <rect x="235" y="2145" width="32" height="32" class="nonterminal"/>
      <text class="nonterminal" x="245" y="2165">Id</text>
   </a>
   <rect x="289" y="2147" width="24" height="32" rx="10"/>
   <rect x="287"
          y="2145"
          width="24"
          height="32"
          class="terminal"
          rx="10"/>
   <text class="terminal" x="297" y="2165">:</text>
   <a xmlns:xlink="http://www.w3.org/1999/xlink"
       xlink:href="#Type"
       xlink:title="Type">
      <rect x="333" y="2147" width="50" height="32"/>
      <rect x="331" y="2145" width="50" height="32" class="nonterminal"/>
      <text class="nonterminal" x="341" y="2165">Type</text>
   </a>
   <rect x="403" y="2147" width="26" height="32" rx="10"/>
   <rect x="401"
          y="2145"
          width="26"
          height="32"
          class="terminal"
          rx="10"/>
   <text class="terminal" x="411" y="2165">)</text>
   <a xmlns:xlink="http://www.w3.org/1999/xlink"
       xlink:href="#Expression"
       xlink:title="Expression">
      <rect x="469" y="1883" width="90" height="32"/>
      <rect x="467" y="1881" width="90" height="32" class="nonterminal"/>
      <text class="nonterminal" x="477" y="1901">Expression</text>
   </a>
   <rect x="51" y="2279" width="26" height="32" rx="10"/>
   <rect x="49"
          y="2277"
          width="26"
          height="32"
          class="terminal"
          rx="10"/>
   <text class="terminal" x="59" y="2297">-</text>
   <rect x="97" y="2279" width="110" height="32" rx="10"/>
   <rect x="95"
          y="2277"
          width="110"
          height="32"
          class="terminal"
          rx="10"/>
   <text class="terminal" x="105" y="2297">2147483648</text>
   <rect x="51" y="2323" width="80" height="32" rx="10"/>
   <rect x="49"
          y="2321"
          width="80"
          height="32"
          class="terminal"
          rx="10"/>
   <text class="terminal" x="59" y="2341">deadlock</text>
   <a xmlns:xlink="http://www.w3.org/1999/xlink"
       xlink:href="#DynamicExpression"
       xlink:title="DynamicExpression">
      <rect x="51" y="2367" width="142" height="32"/>
      <rect x="49" y="2365" width="142" height="32" class="nonterminal"/>
      <text class="nonterminal" x="59" y="2385">DynamicExpression</text>
   </a>
   <a xmlns:xlink="http://www.w3.org/1999/xlink"
       xlink:href="#MITLExpression"
       xlink:title="MITLExpression">
      <rect x="51" y="2411" width="118" height="32"/>
      <rect x="49" y="2409" width="118" height="32" class="nonterminal"/>
      <text class="nonterminal" x="59" y="2429">MITLExpression</text>
   </a>
   <a xmlns:xlink="http://www.w3.org/1999/xlink"
       xlink:href="#Assignment"
       xlink:title="Assignment">
      <rect x="51" y="2455" width="94" height="32"/>
      <rect x="49" y="2453" width="94" height="32" class="nonterminal"/>
      <text class="nonterminal" x="59" y="2473">Assignment</text>
   </a>
   <path class="line"
          d="m17 17 h2 m20 0 h10 m52 0 h10 m0 0 h658 m-750 0 h20 m730 0 h20 m-770 0 q10 0 10 10 m750 0 q0 -10 10 -10 m-760 10 v24 m750 0 v-24 m-750 24 q0 10 10 10 m730 0 q10 0 10 -10 m-740 10 h10 m48 0 h10 m0 0 h662 m-740 -10 v20 m750 0 v-20 m-750 20 v24 m750 0 v-24 m-750 24 q0 10 10 10 m730 0 q10 0 10 -10 m-740 10 h10 m90 0 h10 m0 0 h620 m-740 -10 v20 m750 0 v-20 m-750 20 v24 m750 0 v-24 m-750 24 q0 10 10 10 m730 0 q10 0 10 -10 m-740 10 h10 m118 0 h10 m0 0 h592 m-740 -10 v20 m750 0 v-20 m-750 20 v24 m750 0 v-24 m-750 24 q0 10 10 10 m730 0 q10 0 10 -10 m-740 10 h10 m94 0 h10 m0 0 h616 m-740 -10 v20 m750 0 v-20 m-750 20 v24 m750 0 v-24 m-750 24 q0 10 10 10 m730 0 q10 0 10 -10 m-700 10 h10 m0 0 h130 m-160 0 h20 m140 0 h20 m-180 0 q10 0 10 10 m160 0 q0 -10 10 -10 m-170 10 v12 m160 0 v-12 m-160 12 q0 10 10 10 m140 0 q10 0 10 -10 m-150 10 h10 m120 0 h10 m20 -32 h10 m26 0 h10 m0 0 h308 m-554 0 h20 m534 0 h20 m-574 0 q10 0 10 10 m554 0 q0 -10 10 -10 m-564 10 v56 m554 0 v-56 m-554 56 q0 10 10 10 m534 0 q10 0 10 -10 m-524 10 h10 m120 0 h10 m0 0 h10 m26 0 h10 m0 0 h154 m-360 0 h20 m340 0 h20 m-380 0 q10 0 10 10 m360 0 q0 -10 10 -10 m-370 10 v24 m360 0 v-24 m-360 24 q0 10 10 10 m340 0 q10 0 10 -10 m-350 10 h10 m120 0 h10 m0 0 h10 m26 0 h10 m0 0 h10 m90 0 h10 m0 0 h10 m24 0 h10 m20 -44 h10 m90 0 h10 m0 0 h10 m24 0 h10 m20 -76 h10 m90 0 h10 m0 0 h10 m26 0 h10 m-740 -10 v20 m750 0 v-20 m-750 20 v144 m750 0 v-144 m-750 144 q0 10 10 10 m730 0 q10 0 10 -10 m-740 10 h10 m88 0 h10 m0 0 h622 m-740 -10 v20 m750 0 v-20 m-750 20 v24 m750 0 v-24 m-750 24 q0 10 10 10 m730 0 q10 0 10 -10 m-740 10 h10 m90 0 h10 m20 0 h10 m26 0 h10 m0 0 h10 m64 0 h10 m0 0 h10 m26 0 h10 m0 0 h174 m-370 0 h20 m350 0 h20 m-390 0 q10 0 10 10 m370 0 q0 -10 10 -10 m-380 10 v24 m370 0 v-24 m-370 24 q0 10 10 10 m350 0 q10 0 10 -10 m-360 10 h10 m26 0 h10 m0 0 h10 m90 0 h10 m0 0 h10 m26 0 h10 m0 0 h148 m-360 -10 v20 m370 0 v-20 m-370 20 v24 m370 0 v-24 m-370 24 q0 10 10 10 m350 0 q10 0 10 -10 m-360 10 h10 m40 0 h10 m0 0 h290 m-360 -10 v20 m370 0 v-20 m-370 20 v24 m370 0 v-24 m-370 24 q0 10 10 10 m350 0 q10 0 10 -10 m-360 10 h10 m32 0 h10 m0 0 h298 m-360 -10 v20 m370 0 v-20 m-370 20 v24 m370 0 v-24 m-370 24 q0 10 10 10 m350 0 q10 0 10 -10 m-340 10 h10 m30 0 h10 m0 0 h150 m-220 0 h20 m200 0 h20 m-240 0 q10 0 10 10 m220 0 q0 -10 10 -10 m-230 10 v24 m220 0 v-24 m-220 24 q0 10 10 10 m200 0 q10 0 10 -10 m-210 10 h10 m40 0 h10 m0 0 h140 m-210 -10 v20 m220 0 v-20 m-220 20 v24 m220 0 v-24 m-220 24 q0 10 10 10 m200 0 q10 0 10 -10 m-210 10 h10 m40 0 h10 m0 0 h140 m-210 -10 v20 m220 0 v-20 m-220 20 v24 m220 0 v-24 m-220 24 q0 10 10 10 m200 0 q10 0 10 -10 m-210 10 h10 m34 0 h10 m0 0 h146 m-210 -10 v20 m220 0 v-20 m-220 20 v24 m220 0 v-24 m-220 24 q0 10 10 10 m200 0 q10 0 10 -10 m-210 10 h10 m30 0 h10 m0 0 h150 m-210 -10 v20 m220 0 v-20 m-220 20 v24 m220 0 v-24 m-220 24 q0 10 10 10 m200 0 q10 0 10 -10 m-210 10 h10 m40 0 h10 m0 0 h140 m-210 -10 v20 m220 0 v-20 m-220 20 v24 m220 0 v-24 m-220 24 q0 10 10 10 m200 0 q10 0 10 -10 m-210 10 h10 m30 0 h10 m0 0 h150 m-210 -10 v20 m220 0 v-20 m-220 20 v24 m220 0 v-24 m-220 24 q0 10 10 10 m200 0 q10 0 10 -10 m-210 10 h10 m26 0 h10 m0 0 h154 m-210 -10 v20 m220 0 v-20 m-220 20 v24 m220 0 v-24 m-220 24 q0 10 10 10 m200 0 q10 0 10 -10 m-210 10 h10 m28 0 h10 m0 0 h152 m-210 -10 v20 m220 0 v-20 m-220 20 v24 m220 0 v-24 m-220 24 q0 10 10 10 m200 0 q10 0 10 -10 m-210 10 h10 m28 0 h10 m0 0 h152 m-210 -10 v20 m220 0 v-20 m-220 20 v24 m220 0 v-24 m-220 24 q0 10 10 10 m200 0 q10 0 10 -10 m-210 10 h10 m34 0 h10 m0 0 h146 m-210 -10 v20 m220 0 v-20 m-220 20 v24 m220 0 v-24 m-220 24 q0 10 10 10 m200 0 q10 0 10 -10 m-210 10 h10 m38 0 h10 m0 0 h142 m-210 -10 v20 m220 0 v-20 m-220 20 v24 m220 0 v-24 m-220 24 q0 10 10 10 m200 0 q10 0 10 -10 m-210 10 h10 m30 0 h10 m0 0 h150 m-210 -10 v20 m220 0 v-20 m-220 20 v24 m220 0 v-24 m-220 24 q0 10 10 10 m200 0 q10 0 10 -10 m-210 10 h10 m26 0 h10 m0 0 h154 m-210 -10 v20 m220 0 v-20 m-220 20 v24 m220 0 v-24 m-220 24 q0 10 10 10 m200 0 q10 0 10 -10 m-210 10 h10 m30 0 h10 m0 0 h150 m-210 -10 v20 m220 0 v-20 m-220 20 v24 m220 0 v-24 m-220 24 q0 10 10 10 m200 0 q10 0 10 -10 m-210 10 h10 m40 0 h10 m0 0 h140 m-210 -10 v20 m220 0 v-20 m-220 20 v24 m220 0 v-24 m-220 24 q0 10 10 10 m200 0 q10 0 10 -10 m-210 10 h10 m40 0 h10 m0 0 h140 m-210 -10 v20 m220 0 v-20 m-220 20 v24 m220 0 v-24 m-220 24 q0 10 10 10 m200 0 q10 0 10 -10 m-210 10 h10 m40 0 h10 m0 0 h140 m-210 -10 v20 m220 0 v-20 m-220 20 v24 m220 0 v-24 m-220 24 q0 10 10 10 m200 0 q10 0 10 -10 m-210 10 h10 m32 0 h10 m0 0 h148 m-210 -10 v20 m220 0 v-20 m-220 20 v24 m220 0 v-24 m-220 24 q0 10 10 10 m200 0 q10 0 10 -10 m-210 10 h10 m26 0 h10 m0 0 h10 m90 0 h10 m0 0 h10 m24 0 h10 m-210 -10 v20 m220 0 v-20 m-220 20 v24 m220 0 v-24 m-220 24 q0 10 10 10 m200 0 q10 0 10 -10 m-210 10 h10 m56 0 h10 m0 0 h124 m-210 -10 v20 m220 0 v-20 m-220 20 v24 m220 0 v-24 m-220 24 q0 10 10 10 m200 0 q10 0 10 -10 m-210 10 h10 m44 0 h10 m0 0 h136 m-210 -10 v20 m220 0 v-20 m-220 20 v24 m220 0 v-24 m-220 24 q0 10 10 10 m200 0 q10 0 10 -10 m-210 10 h10 m34 0 h10 m0 0 h146 m-210 -10 v20 m220 0 v-20 m-220 20 v24 m220 0 v-24 m-220 24 q0 10 10 10 m200 0 q10 0 10 -10 m-210 10 h10 m42 0 h10 m0 0 h138 m-210 -10 v20 m220 0 v-20 m-220 20 v24 m220 0 v-24 m-220 24 q0 10 10 10 m200 0 q10 0 10 -10 m-210 10 h10 m38 0 h10 m0 0 h142 m-210 -10 v20 m220 0 v-20 m-220 20 v24 m220 0 v-24 m-220 24 q0 10 10 10 m200 0 q10 0 10 -10 m-210 10 h10 m38 0 h10 m0 0 h142 m20 -1100 h10 m90 0 h10 m-360 -10 v20 m370 0 v-20 m-370 20 v1124 m370 0 v-1124 m-370 1124 q0 10 10 10 m350 0 q10 0 10 -10 m-360 10 h10 m24 0 h10 m20 0 h10 m74 0 h10 m0 0 h14 m-128 0 h20 m108 0 h20 m-148 0 q10 0 10 10 m128 0 q0 -10 10 -10 m-138 10 v24 m128 0 v-24 m-128 24 q0 10 10 10 m108 0 q10 0 10 -10 m-118 10 h10 m88 0 h10 m20 -44 h158 m-360 -10 v20 m370 0 v-20 m-370 20 v68 m370 0 v-68 m-370 68 q0 10 10 10 m350 0 q10 0 10 -10 m-360 10 h10 m32 0 h10 m0 0 h298 m20 -1408 h230 m-740 -10 v20 m750 0 v-20 m-750 20 v1432 m750 0 v-1432 m-750 1432 q0 10 10 10 m730 0 q10 0 10 -10 m-720 10 h10 m40 0 h10 m0 0 h318 m-398 0 h20 m378 0 h20 m-418 0 q10 0 10 10 m398 0 q0 -10 10 -10 m-408 10 v24 m398 0 v-24 m-398 24 q0 10 10 10 m378 0 q10 0 10 -10 m-388 10 h10 m32 0 h10 m0 0 h326 m-388 -10 v20 m398 0 v-20 m-398 20 v24 m398 0 v-24 m-398 24 q0 10 10 10 m378 0 q10 0 10 -10 m-388 10 h10 m26 0 h10 m0 0 h332 m-388 -10 v20 m398 0 v-20 m-398 20 v24 m398 0 v-24 m-398 24 q0 10 10 10 m378 0 q10 0 10 -10 m-388 10 h10 m30 0 h10 m0 0 h328 m-388 -10 v20 m398 0 v-20 m-398 20 v24 m398 0 v-24 m-398 24 q0 10 10 10 m378 0 q10 0 10 -10 m-388 10 h10 m24 0 h10 m0 0 h334 m-388 -10 v20 m398 0 v-20 m-398 20 v24 m398 0 v-24 m-398 24 q0 10 10 10 m378 0 q10 0 10 -10 m-388 10 h10 m42 0 h10 m0 0 h316 m-388 -10 v20 m398 0 v-20 m-398 20 v24 m398 0 v-24 m-398 24 q0 10 10 10 m378 0 q10 0 10 -10 m-368 10 h10 m48 0 h10 m0 0 h12 m-100 0 h20 m80 0 h20 m-120 0 q10 0 10 10 m100 0 q0 -10 10 -10 m-110 10 v24 m100 0 v-24 m-100 24 q0 10 10 10 m80 0 q10 0 10 -10 m-90 10 h10 m56 0 h10 m0 0 h4 m-90 -10 v20 m100 0 v-20 m-100 20 v24 m100 0 v-24 m-100 24 q0 10 10 10 m80 0 q10 0 10 -10 m-90 10 h10 m60 0 h10 m20 -88 h10 m26 0 h10 m0 0 h10 m32 0 h10 m0 0 h10 m24 0 h10 m0 0 h10 m50 0 h10 m0 0 h10 m26 0 h10 m20 -264 h10 m90 0 h10 m0 0 h202 m-740 -10 v20 m750 0 v-20 m-750 20 v376 m750 0 v-376 m-750 376 q0 10 10 10 m730 0 q10 0 10 -10 m-740 10 h10 m26 0 h10 m0 0 h10 m110 0 h10 m0 0 h554 m-740 -10 v20 m750 0 v-20 m-750 20 v24 m750 0 v-24 m-750 24 q0 10 10 10 m730 0 q10 0 10 -10 m-740 10 h10 m80 0 h10 m0 0 h630 m-740 -10 v20 m750 0 v-20 m-750 20 v24 m750 0 v-24 m-750 24 q0 10 10 10 m730 0 q10 0 10 -10 m-740 10 h10 m142 0 h10 m0 0 h568 m-740 -10 v20 m750 0 v-20 m-750 20 v24 m750 0 v-24 m-750 24 q0 10 10 10 m730 0 q10 0 10 -10 m-740 10 h10 m118 0 h10 m0 0 h592 m-740 -10 v20 m750 0 v-20 m-750 20 v24 m750 0 v-24 m-750 24 q0 10 10 10 m730 0 q10 0 10 -10 m-740 10 h10 m94 0 h10 m0 0 h616 m23 -2452 h-3"/>
   <polygon points="799 17 807 13 807 21"/>
   <polygon points="799 17 791 13 791 21"/>
</svg>
