<?xml version="1.0" encoding="UTF-8"?>
<svg xmlns="http://www.w3.org/2000/svg" width="411" height="57">
   <defs>
      <style type="text/css">
    @namespace "http://www.w3.org/2000/svg";
    .line                 {fill: none; stroke: #332900; stroke-width: 1;}
    .bold-line            {stroke: #141000; shape-rendering: crispEdges; stroke-width: 2;}
    .thin-line            {stroke: #1F1800; shape-rendering: crispEdges}
    .filled               {fill: #332900; stroke: none;}
    text.terminal         {font-family: Verdana, Sans-serif;
                            font-size: 12px;
                            fill: #141000;
                            font-weight: bold;
                          }
    text.nonterminal      {font-family: Verdana, Sans-serif;
                            font-size: 12px;
                            fill: #1A1400;
                            font-weight: normal;
                          }
    text.regexp           {font-family: Verdana, Sans-serif;
                            font-size: 12px;
                            fill: #1F1800;
                            font-weight: normal;
                          }
    rect, circle, polygon {fill: #332900; stroke: #332900;}
    rect.terminal         {fill: #FFDB4D; stroke: #332900; stroke-width: 1;}
    rect.nonterminal      {fill: #FFEC9E; stroke: #332900; stroke-width: 1;}
    rect.text             {fill: none; stroke: none;}
    polygon.regexp        {fill: #FFF4C7; stroke: #332900; stroke-width: 1;}
  </style>
   </defs>
   <polygon points="9 5 1 1 1 9"/>
   <polygon points="17 5 9 1 9 9"/>
   <a xmlns:xlink="http://www.w3.org/1999/xlink"
       xlink:href="#BracketExprList"
       xlink:title="BracketExprList">
      <rect x="51" y="23" width="118" height="32"/>
      <rect x="49" y="21" width="118" height="32" class="nonterminal"/>
      <text class="nonterminal" x="59" y="41">BracketExprList</text>
   </a>
   <rect x="189" y="23" width="36" height="32" rx="10"/>
   <rect x="187"
          y="21"
          width="36"
          height="32"
          class="terminal"
          rx="10"/>
   <text class="terminal" x="197" y="41">-&gt;</text>
   <a xmlns:xlink="http://www.w3.org/1999/xlink"
       xlink:href="#BracketExprList"
       xlink:title="BracketExprList">
      <rect x="245" y="23" width="118" height="32"/>
      <rect x="243" y="21" width="118" height="32" class="nonterminal"/>
      <text class="nonterminal" x="253" y="41">BracketExprList</text>
   </a>
   <path class="line"
          d="m17 5 h2 m20 0 h10 m0 0 h322 m-352 0 h20 m332 0 h20 m-372 0 q10 0 10 10 m352 0 q0 -10 10 -10 m-362 10 v12 m352 0 v-12 m-352 12 q0 10 10 10 m332 0 q10 0 10 -10 m-342 10 h10 m118 0 h10 m0 0 h10 m36 0 h10 m0 0 h10 m118 0 h10 m23 -32 h-3"/>
   <polygon points="401 5 409 1 409 9"/>
   <polygon points="401 5 393 1 393 9"/>
</svg>
