<?xml version="1.0" encoding="UTF-8"?>
<svg xmlns="http://www.w3.org/2000/svg" width="721" height="37">
   <defs>
      <style type="text/css">
    @namespace "http://www.w3.org/2000/svg";
    .line                 {fill: none; stroke: #332900; stroke-width: 1;}
    .bold-line            {stroke: #141000; shape-rendering: crispEdges; stroke-width: 2;}
    .thin-line            {stroke: #1F1800; shape-rendering: crispEdges}
    .filled               {fill: #332900; stroke: none;}
    text.terminal         {font-family: Verdana, Sans-serif;
                            font-size: 12px;
                            fill: #141000;
                            font-weight: bold;
                          }
    text.nonterminal      {font-family: Verdana, Sans-serif;
                            font-size: 12px;
                            fill: #1A1400;
                            font-weight: normal;
                          }
    text.regexp           {font-family: Verdana, Sans-serif;
                            font-size: 12px;
                            fill: #1F1800;
                            font-weight: normal;
                          }
    rect, circle, polygon {fill: #332900; stroke: #332900;}
    rect.terminal         {fill: #FFDB4D; stroke: #332900; stroke-width: 1;}
    rect.nonterminal      {fill: #FFEC9E; stroke: #332900; stroke-width: 1;}
    rect.text             {fill: none; stroke: none;}
    polygon.regexp        {fill: #FFF4C7; stroke: #332900; stroke-width: 1;}
  </style>
   </defs>
   <polygon points="9 17 1 13 1 21"/>
   <polygon points="17 17 9 13 9 21"/>
   <a xmlns:xlink="http://www.w3.org/1999/xlink"
       xlink:href="#Type"
       xlink:title="Type">
      <rect x="31" y="3" width="50" height="32"/>
      <rect x="29" y="1" width="50" height="32" class="nonterminal"/>
      <text class="nonterminal" x="39" y="21">Type</text>
   </a>
   <a xmlns:xlink="http://www.w3.org/1999/xlink"
       xlink:href="#Id"
       xlink:title="Id">
      <rect x="101" y="3" width="32" height="32"/>
      <rect x="99" y="1" width="32" height="32" class="nonterminal"/>
      <text class="nonterminal" x="109" y="21">Id</text>
   </a>
   <a xmlns:xlink="http://www.w3.org/1999/xlink"
       xlink:href="#OptionalParameterList"
       xlink:title="OptionalParameterList">
      <rect x="153" y="3" width="162" height="32"/>
      <rect x="151" y="1" width="162" height="32" class="nonterminal"/>
      <text class="nonterminal" x="161" y="21">OptionalParameterList</text>
   </a>
   <rect x="335" y="3" width="28" height="32" rx="10"/>
   <rect x="333"
          y="1"
          width="28"
          height="32"
          class="terminal"
          rx="10"/>
   <text class="terminal" x="343" y="21">{</text>
   <a xmlns:xlink="http://www.w3.org/1999/xlink"
       xlink:href="#BlockLocalDeclList"
       xlink:title="BlockLocalDeclList">
      <rect x="383" y="3" width="134" height="32"/>
      <rect x="381" y="1" width="134" height="32" class="nonterminal"/>
      <text class="nonterminal" x="391" y="21">BlockLocalDeclList</text>
   </a>
   <a xmlns:xlink="http://www.w3.org/1999/xlink"
       xlink:href="#StatementList"
       xlink:title="StatementList">
      <rect x="537" y="3" width="108" height="32"/>
      <rect x="535" y="1" width="108" height="32" class="nonterminal"/>
      <text class="nonterminal" x="545" y="21">StatementList</text>
   </a>
   <rect x="665" y="3" width="28" height="32" rx="10"/>
   <rect x="663"
          y="1"
          width="28"
          height="32"
          class="terminal"
          rx="10"/>
   <text class="terminal" x="673" y="21">}</text>
   <path class="line"
          d="m17 17 h2 m0 0 h10 m50 0 h10 m0 0 h10 m32 0 h10 m0 0 h10 m162 0 h10 m0 0 h10 m28 0 h10 m0 0 h10 m134 0 h10 m0 0 h10 m108 0 h10 m0 0 h10 m28 0 h10 m3 0 h-3"/>
   <polygon points="711 17 719 13 719 21"/>
   <polygon points="711 17 703 13 703 21"/>
</svg>
