<?xml version="1.0" encoding="UTF-8"?>
<svg xmlns="http://www.w3.org/2000/svg" width="395" height="97">
   <defs>
      <style type="text/css">
    @namespace "http://www.w3.org/2000/svg";
    .line                 {fill: none; stroke: #332900; stroke-width: 1;}
    .bold-line            {stroke: #141000; shape-rendering: crispEdges; stroke-width: 2;}
    .thin-line            {stroke: #1F1800; shape-rendering: crispEdges}
    .filled               {fill: #332900; stroke: none;}
    text.terminal         {font-family: Verdana, Sans-serif;
                            font-size: 12px;
                            fill: #141000;
                            font-weight: bold;
                          }
    text.nonterminal      {font-family: Verdana, Sans-serif;
                            font-size: 12px;
                            fill: #1A1400;
                            font-weight: normal;
                          }
    text.regexp           {font-family: Verdana, Sans-serif;
                            font-size: 12px;
                            fill: #1F1800;
                            font-weight: normal;
                          }
    rect, circle, polygon {fill: #332900; stroke: #332900;}
    rect.terminal         {fill: #FFDB4D; stroke: #332900; stroke-width: 1;}
    rect.nonterminal      {fill: #FFEC9E; stroke: #332900; stroke-width: 1;}
    rect.text             {fill: none; stroke: none;}
    polygon.regexp        {fill: #FFF4C7; stroke: #332900; stroke-width: 1;}
  </style>
   </defs>
   <polygon points="9 33 1 29 1 37"/>
   <polygon points="17 33 9 29 9 37"/>
   <rect x="51" y="19" width="28" height="32" rx="10"/>
   <rect x="49"
          y="17"
          width="28"
          height="32"
          class="terminal"
          rx="10"/>
   <text class="terminal" x="59" y="37">{</text>
   <a xmlns:xlink="http://www.w3.org/1999/xlink"
       xlink:href="#FwdDecl"
       xlink:title="FwdDecl">
      <rect x="119" y="19" width="72" height="32"/>
      <rect x="117" y="17" width="72" height="32" class="nonterminal"/>
      <text class="nonterminal" x="127" y="37">FwdDecl</text>
   </a>
   <rect x="211" y="19" width="24" height="32" rx="10"/>
   <rect x="209"
          y="17"
          width="24"
          height="32"
          class="terminal"
          rx="10"/>
   <text class="terminal" x="219" y="37">;</text>
   <rect x="275" y="19" width="28" height="32" rx="10"/>
   <rect x="273"
          y="17"
          width="28"
          height="32"
          class="terminal"
          rx="10"/>
   <text class="terminal" x="283" y="37">}</text>
   <a xmlns:xlink="http://www.w3.org/1999/xlink"
       xlink:href="#FwdDecl"
       xlink:title="FwdDecl">
      <rect x="51" y="63" width="72" height="32"/>
      <rect x="49" y="61" width="72" height="32" class="nonterminal"/>
      <text class="nonterminal" x="59" y="81">FwdDecl</text>
   </a>
   <rect x="343" y="19" width="24" height="32" rx="10"/>
   <rect x="341"
          y="17"
          width="24"
          height="32"
          class="terminal"
          rx="10"/>
   <text class="terminal" x="351" y="37">;</text>
   <path class="line"
          d="m17 33 h2 m20 0 h10 m28 0 h10 m20 0 h10 m72 0 h10 m0 0 h10 m24 0 h10 m-156 0 l20 0 m-1 0 q-9 0 -9 -10 l0 -12 q0 -10 10 -10 m136 32 l20 0 m-20 0 q10 0 10 -10 l0 -12 q0 -10 -10 -10 m-136 0 h10 m0 0 h126 m20 32 h10 m28 0 h10 m-292 0 h20 m272 0 h20 m-312 0 q10 0 10 10 m292 0 q0 -10 10 -10 m-302 10 v24 m292 0 v-24 m-292 24 q0 10 10 10 m272 0 q10 0 10 -10 m-282 10 h10 m72 0 h10 m0 0 h180 m20 -44 h10 m24 0 h10 m3 0 h-3"/>
   <polygon points="385 33 393 29 393 37"/>
   <polygon points="385 33 377 29 377 37"/>
</svg>
