<?xml version="1.0" encoding="UTF-8"?>
<svg xmlns="http://www.w3.org/2000/svg" width="377" height="97">
   <defs>
      <style type="text/css">
    @namespace "http://www.w3.org/2000/svg";
    .line                 {fill: none; stroke: #332900; stroke-width: 1;}
    .bold-line            {stroke: #141000; shape-rendering: crispEdges; stroke-width: 2;}
    .thin-line            {stroke: #1F1800; shape-rendering: crispEdges}
    .filled               {fill: #332900; stroke: none;}
    text.terminal         {font-family: Verdana, Sans-serif;
                            font-size: 12px;
                            fill: #141000;
                            font-weight: bold;
                          }
    text.nonterminal      {font-family: Verdana, Sans-serif;
                            font-size: 12px;
                            fill: #1A1400;
                            font-weight: normal;
                          }
    text.regexp           {font-family: Verdana, Sans-serif;
                            font-size: 12px;
                            fill: #1F1800;
                            font-weight: normal;
                          }
    rect, circle, polygon {fill: #332900; stroke: #332900;}
    rect.terminal         {fill: #FFDB4D; stroke: #332900; stroke-width: 1;}
    rect.nonterminal      {fill: #FFEC9E; stroke: #332900; stroke-width: 1;}
    rect.text             {fill: none; stroke: none;}
    polygon.regexp        {fill: #FFF4C7; stroke: #332900; stroke-width: 1;}
  </style>
   </defs>
   <polygon points="9 61 1 57 1 65"/>
   <polygon points="17 61 9 57 9 65"/>
   <rect x="51" y="47" width="26" height="32" rx="10"/>
   <rect x="49"
          y="45"
          width="26"
          height="32"
          class="terminal"
          rx="10"/>
   <text class="terminal" x="59" y="65">(</text>
   <a xmlns:xlink="http://www.w3.org/1999/xlink"
       xlink:href="#Id"
       xlink:title="Id">
      <rect x="117" y="47" width="32" height="32"/>
      <rect x="115" y="45" width="32" height="32" class="nonterminal"/>
      <text class="nonterminal" x="125" y="65">Id</text>
   </a>
   <rect x="169" y="47" width="24" height="32" rx="10"/>
   <rect x="167"
          y="45"
          width="24"
          height="32"
          class="terminal"
          rx="10"/>
   <text class="terminal" x="177" y="65">:</text>
   <a xmlns:xlink="http://www.w3.org/1999/xlink"
       xlink:href="#Type"
       xlink:title="Type">
      <rect x="213" y="47" width="50" height="32"/>
      <rect x="211" y="45" width="50" height="32" class="nonterminal"/>
      <text class="nonterminal" x="221" y="65">Type</text>
   </a>
   <rect x="117" y="3" width="24" height="32" rx="10"/>
   <rect x="115"
          y="1"
          width="24"
          height="32"
          class="terminal"
          rx="10"/>
   <text class="terminal" x="125" y="21">,</text>
   <rect x="303" y="47" width="26" height="32" rx="10"/>
   <rect x="301"
          y="45"
          width="26"
          height="32"
          class="terminal"
          rx="10"/>
   <text class="terminal" x="311" y="65">)</text>
   <path class="line"
          d="m17 61 h2 m20 0 h10 m26 0 h10 m20 0 h10 m32 0 h10 m0 0 h10 m24 0 h10 m0 0 h10 m50 0 h10 m-186 0 l20 0 m-1 0 q-9 0 -9 -10 l0 -24 q0 -10 10 -10 m166 44 l20 0 m-20 0 q10 0 10 -10 l0 -24 q0 -10 -10 -10 m-166 0 h10 m24 0 h10 m0 0 h122 m20 44 h10 m26 0 h10 m-318 0 h20 m298 0 h20 m-338 0 q10 0 10 10 m318 0 q0 -10 10 -10 m-328 10 v14 m318 0 v-14 m-318 14 q0 10 10 10 m298 0 q10 0 10 -10 m-308 10 h10 m0 0 h288 m23 -34 h-3"/>
   <polygon points="367 61 375 57 375 65"/>
   <polygon points="367 61 359 57 359 65"/>
</svg>
