<?xml version="1.0" encoding="UTF-8"?>
<svg xmlns="http://www.w3.org/2000/svg" width="775" height="129">
   <defs>
      <style type="text/css">
    @namespace "http://www.w3.org/2000/svg";
    .line                 {fill: none; stroke: #332900; stroke-width: 1;}
    .bold-line            {stroke: #141000; shape-rendering: crispEdges; stroke-width: 2;}
    .thin-line            {stroke: #1F1800; shape-rendering: crispEdges}
    .filled               {fill: #332900; stroke: none;}
    text.terminal         {font-family: Verdana, Sans-serif;
                            font-size: 12px;
                            fill: #141000;
                            font-weight: bold;
                          }
    text.nonterminal      {font-family: Verdana, Sans-serif;
                            font-size: 12px;
                            fill: #1A1400;
                            font-weight: normal;
                          }
    text.regexp           {font-family: Verdana, Sans-serif;
                            font-size: 12px;
                            fill: #1F1800;
                            font-weight: normal;
                          }
    rect, circle, polygon {fill: #332900; stroke: #332900;}
    rect.terminal         {fill: #FFDB4D; stroke: #332900; stroke-width: 1;}
    rect.nonterminal      {fill: #FFEC9E; stroke: #332900; stroke-width: 1;}
    rect.text             {fill: none; stroke: none;}
    polygon.regexp        {fill: #FFF4C7; stroke: #332900; stroke-width: 1;}
  </style>
   </defs>
   <polygon points="9 77 1 73 1 81"/>
   <polygon points="17 77 9 73 9 81"/>
   <rect x="51" y="63" width="56" height="32" rx="10"/>
   <rect x="49"
          y="61"
          width="56"
          height="32"
          class="terminal"
          rx="10"/>
   <text class="terminal" x="59" y="81">gantt</text>
   <rect x="127" y="63" width="28" height="32" rx="10"/>
   <rect x="125"
          y="61"
          width="28"
          height="32"
          class="terminal"
          rx="10"/>
   <text class="terminal" x="135" y="81">{</text>
   <a xmlns:xlink="http://www.w3.org/1999/xlink"
       xlink:href="#NonTypeId"
       xlink:title="NonTypeId">
      <rect x="215" y="63" width="88" height="32"/>
      <rect x="213" y="61" width="88" height="32" class="nonterminal"/>
      <text class="nonterminal" x="223" y="81">NonTypeId</text>
   </a>
   <a xmlns:xlink="http://www.w3.org/1999/xlink"
       xlink:href="#GanttArgs"
       xlink:title="GanttArgs">
      <rect x="323" y="63" width="84" height="32"/>
      <rect x="321" y="61" width="84" height="32" class="nonterminal"/>
      <text class="nonterminal" x="331" y="81">GanttArgs</text>
   </a>
   <rect x="427" y="63" width="24" height="32" rx="10"/>
   <rect x="425"
          y="61"
          width="24"
          height="32"
          class="terminal"
          rx="10"/>
   <text class="terminal" x="435" y="81">:</text>
   <a xmlns:xlink="http://www.w3.org/1999/xlink"
       xlink:href="#GanttExpr"
       xlink:title="GanttExpr">
      <rect x="491" y="63" width="84" height="32"/>
      <rect x="489" y="61" width="84" height="32" class="nonterminal"/>
      <text class="nonterminal" x="499" y="81">GanttExpr</text>
   </a>
   <rect x="491" y="19" width="24" height="32" rx="10"/>
   <rect x="489"
          y="17"
          width="24"
          height="32"
          class="terminal"
          rx="10"/>
   <text class="terminal" x="499" y="37">,</text>
   <rect x="615" y="63" width="24" height="32" rx="10"/>
   <rect x="613"
          y="61"
          width="24"
          height="32"
          class="terminal"
          rx="10"/>
   <text class="terminal" x="623" y="81">;</text>
   <rect x="699" y="63" width="28" height="32" rx="10"/>
   <rect x="697"
          y="61"
          width="28"
          height="32"
          class="terminal"
          rx="10"/>
   <text class="terminal" x="707" y="81">}</text>
   <path class="line"
          d="m17 77 h2 m20 0 h10 m56 0 h10 m0 0 h10 m28 0 h10 m40 0 h10 m88 0 h10 m0 0 h10 m84 0 h10 m0 0 h10 m24 0 h10 m20 0 h10 m84 0 h10 m-124 0 l20 0 m-1 0 q-9 0 -9 -10 l0 -24 q0 -10 10 -10 m104 44 l20 0 m-20 0 q10 0 10 -10 l0 -24 q0 -10 -10 -10 m-104 0 h10 m24 0 h10 m0 0 h60 m20 44 h10 m24 0 h10 m-464 0 l20 0 m-1 0 q-9 0 -9 -10 l0 -56 q0 -10 10 -10 m444 76 l20 0 m-20 0 q10 0 10 -10 l0 -56 q0 -10 -10 -10 m-444 0 h10 m0 0 h434 m-484 76 h20 m484 0 h20 m-524 0 q10 0 10 10 m504 0 q0 -10 10 -10 m-514 10 v14 m504 0 v-14 m-504 14 q0 10 10 10 m484 0 q10 0 10 -10 m-494 10 h10 m0 0 h474 m20 -34 h10 m28 0 h10 m-716 0 h20 m696 0 h20 m-736 0 q10 0 10 10 m716 0 q0 -10 10 -10 m-726 10 v30 m716 0 v-30 m-716 30 q0 10 10 10 m696 0 q10 0 10 -10 m-706 10 h10 m0 0 h686 m23 -50 h-3"/>
   <polygon points="765 77 773 73 773 81"/>
   <polygon points="765 77 757 73 757 81"/>
</svg>
