<?xml version="1.0" encoding="UTF-8"?>
<svg xmlns="http://www.w3.org/2000/svg" width="387" height="69">
   <defs>
      <style type="text/css">
    @namespace "http://www.w3.org/2000/svg";
    .line                 {fill: none; stroke: #332900; stroke-width: 1;}
    .bold-line            {stroke: #141000; shape-rendering: crispEdges; stroke-width: 2;}
    .thin-line            {stroke: #1F1800; shape-rendering: crispEdges}
    .filled               {fill: #332900; stroke: none;}
    text.terminal         {font-family: Verdana, Sans-serif;
                            font-size: 12px;
                            fill: #141000;
                            font-weight: bold;
                          }
    text.nonterminal      {font-family: Verdana, Sans-serif;
                            font-size: 12px;
                            fill: #1A1400;
                            font-weight: normal;
                          }
    text.regexp           {font-family: Verdana, Sans-serif;
                            font-size: 12px;
                            fill: #1F1800;
                            font-weight: normal;
                          }
    rect, circle, polygon {fill: #332900; stroke: #332900;}
    rect.terminal         {fill: #FFDB4D; stroke: #332900; stroke-width: 1;}
    rect.nonterminal      {fill: #FFEC9E; stroke: #332900; stroke-width: 1;}
    rect.text             {fill: none; stroke: none;}
    polygon.regexp        {fill: #FFF4C7; stroke: #332900; stroke-width: 1;}
  </style>
   </defs>
   <polygon points="9 17 1 13 1 21"/>
   <polygon points="17 17 9 13 9 21"/>
   <rect x="31" y="3" width="38" height="32" rx="10"/>
   <rect x="29"
          y="1"
          width="38"
          height="32"
          class="terminal"
          rx="10"/>
   <text class="terminal" x="39" y="21">inf</text>
   <rect x="109" y="35" width="28" height="32" rx="10"/>
   <rect x="107"
          y="33"
          width="28"
          height="32"
          class="terminal"
          rx="10"/>
   <text class="terminal" x="117" y="53">{</text>
   <a xmlns:xlink="http://www.w3.org/1999/xlink"
       xlink:href="#Expression"
       xlink:title="Expression">
      <rect x="157" y="35" width="90" height="32"/>
      <rect x="155" y="33" width="90" height="32" class="nonterminal"/>
      <text class="nonterminal" x="165" y="53">Expression</text>
   </a>
   <rect x="267" y="35" width="28" height="32" rx="10"/>
   <rect x="265"
          y="33"
          width="28"
          height="32"
          class="terminal"
          rx="10"/>
   <text class="terminal" x="275" y="53">}</text>
   <rect x="335" y="3" width="24" height="32" rx="10"/>
   <rect x="333"
          y="1"
          width="24"
          height="32"
          class="terminal"
          rx="10"/>
   <text class="terminal" x="343" y="21">:</text>
   <path class="line"
          d="m17 17 h2 m0 0 h10 m38 0 h10 m20 0 h10 m0 0 h196 m-226 0 h20 m206 0 h20 m-246 0 q10 0 10 10 m226 0 q0 -10 10 -10 m-236 10 v12 m226 0 v-12 m-226 12 q0 10 10 10 m206 0 q10 0 10 -10 m-216 10 h10 m28 0 h10 m0 0 h10 m90 0 h10 m0 0 h10 m28 0 h10 m20 -32 h10 m24 0 h10 m3 0 h-3"/>
   <polygon points="377 17 385 13 385 21"/>
   <polygon points="377 17 369 13 369 21"/>
</svg>
