<?xml version="1.0" encoding="UTF-8"?>
<svg xmlns="http://www.w3.org/2000/svg" width="761" height="37">
   <defs>
      <style type="text/css">
    @namespace "http://www.w3.org/2000/svg";
    .line                 {fill: none; stroke: #332900; stroke-width: 1;}
    .bold-line            {stroke: #141000; shape-rendering: crispEdges; stroke-width: 2;}
    .thin-line            {stroke: #1F1800; shape-rendering: crispEdges}
    .filled               {fill: #332900; stroke: none;}
    text.terminal         {font-family: Verdana, Sans-serif;
                            font-size: 12px;
                            fill: #141000;
                            font-weight: bold;
                          }
    text.nonterminal      {font-family: Verdana, Sans-serif;
                            font-size: 12px;
                            fill: #1A1400;
                            font-weight: normal;
                          }
    text.regexp           {font-family: Verdana, Sans-serif;
                            font-size: 12px;
                            fill: #1F1800;
                            font-weight: normal;
                          }
    rect, circle, polygon {fill: #332900; stroke: #332900;}
    rect.terminal         {fill: #FFDB4D; stroke: #332900; stroke-width: 1;}
    rect.nonterminal      {fill: #FFEC9E; stroke: #332900; stroke-width: 1;}
    rect.text             {fill: none; stroke: none;}
    polygon.regexp        {fill: #FFF4C7; stroke: #332900; stroke-width: 1;}
  </style>
   </defs>
   <polygon points="9 17 1 13 1 21"/>
   <polygon points="17 17 9 13 9 21"/>
   <a xmlns:xlink="http://www.w3.org/1999/xlink"
       xlink:href="#NonTypeId"
       xlink:title="NonTypeId">
      <rect x="31" y="3" width="88" height="32"/>
      <rect x="29" y="1" width="88" height="32" class="nonterminal"/>
      <text class="nonterminal" x="39" y="21">NonTypeId</text>
   </a>
   <a xmlns:xlink="http://www.w3.org/1999/xlink"
       xlink:href="#OptionalInstanceParameterList"
       xlink:title="OptionalInstanceParameterList">
      <rect x="139" y="3" width="216" height="32"/>
      <rect x="137" y="1" width="216" height="32" class="nonterminal"/>
      <text class="nonterminal" x="147" y="21">OptionalInstanceParameterList</text>
   </a>
   <rect x="375" y="3" width="30" height="32" rx="10"/>
   <rect x="373"
          y="1"
          width="30"
          height="32"
          class="terminal"
          rx="10"/>
   <text class="terminal" x="383" y="21">=</text>
   <a xmlns:xlink="http://www.w3.org/1999/xlink"
       xlink:href="#NonTypeId"
       xlink:title="NonTypeId">
      <rect x="425" y="3" width="88" height="32"/>
      <rect x="423" y="1" width="88" height="32" class="nonterminal"/>
      <text class="nonterminal" x="433" y="21">NonTypeId</text>
   </a>
   <rect x="533" y="3" width="26" height="32" rx="10"/>
   <rect x="531"
          y="1"
          width="26"
          height="32"
          class="terminal"
          rx="10"/>
   <text class="terminal" x="541" y="21">(</text>
   <a xmlns:xlink="http://www.w3.org/1999/xlink"
       xlink:href="#ArgList"
       xlink:title="ArgList">
      <rect x="579" y="3" width="64" height="32"/>
      <rect x="577" y="1" width="64" height="32" class="nonterminal"/>
      <text class="nonterminal" x="587" y="21">ArgList</text>
   </a>
   <rect x="663" y="3" width="26" height="32" rx="10"/>
   <rect x="661"
          y="1"
          width="26"
          height="32"
          class="terminal"
          rx="10"/>
   <text class="terminal" x="671" y="21">)</text>
   <rect x="709" y="3" width="24" height="32" rx="10"/>
   <rect x="707"
          y="1"
          width="24"
          height="32"
          class="terminal"
          rx="10"/>
   <text class="terminal" x="717" y="21">;</text>
   <path class="line"
          d="m17 17 h2 m0 0 h10 m88 0 h10 m0 0 h10 m216 0 h10 m0 0 h10 m30 0 h10 m0 0 h10 m88 0 h10 m0 0 h10 m26 0 h10 m0 0 h10 m64 0 h10 m0 0 h10 m26 0 h10 m0 0 h10 m24 0 h10 m3 0 h-3"/>
   <polygon points="751 17 759 13 759 21"/>
   <polygon points="751 17 743 13 743 21"/>
</svg>
