<?xml version="1.0" encoding="UTF-8"?>
<svg xmlns="http://www.w3.org/2000/svg" width="891" height="81">
   <defs>
      <style type="text/css">
    @namespace "http://www.w3.org/2000/svg";
    .line                 {fill: none; stroke: #332900; stroke-width: 1;}
    .bold-line            {stroke: #141000; shape-rendering: crispEdges; stroke-width: 2;}
    .thin-line            {stroke: #1F1800; shape-rendering: crispEdges}
    .filled               {fill: #332900; stroke: none;}
    text.terminal         {font-family: Verdana, Sans-serif;
                            font-size: 12px;
                            fill: #141000;
                            font-weight: bold;
                          }
    text.nonterminal      {font-family: Verdana, Sans-serif;
                            font-size: 12px;
                            fill: #1A1400;
                            font-weight: normal;
                          }
    text.regexp           {font-family: Verdana, Sans-serif;
                            font-size: 12px;
                            fill: #1F1800;
                            font-weight: normal;
                          }
    rect, circle, polygon {fill: #332900; stroke: #332900;}
    rect.terminal         {fill: #FFDB4D; stroke: #332900; stroke-width: 1;}
    rect.nonterminal      {fill: #FFEC9E; stroke: #332900; stroke-width: 1;}
    rect.text             {fill: none; stroke: none;}
    polygon.regexp        {fill: #FFF4C7; stroke: #332900; stroke-width: 1;}
  </style>
   </defs>
   <polygon points="9 17 1 13 1 21"/>
   <polygon points="17 17 9 13 9 21"/>
   <rect x="51" y="3" width="54" height="32" rx="10"/>
   <rect x="49"
          y="1"
          width="54"
          height="32"
          class="terminal"
          rx="10"/>
   <text class="terminal" x="59" y="21">minE</text>
   <rect x="51" y="47" width="56" height="32" rx="10"/>
   <rect x="49"
          y="45"
          width="56"
          height="32"
          class="terminal"
          rx="10"/>
   <text class="terminal" x="59" y="65">maxE</text>
   <rect x="167" y="35" width="26" height="32" rx="10"/>
   <rect x="165"
          y="33"
          width="26"
          height="32"
          class="terminal"
          rx="10"/>
   <text class="terminal" x="175" y="53">(</text>
   <a xmlns:xlink="http://www.w3.org/1999/xlink"
       xlink:href="#Expression"
       xlink:title="Expression">
      <rect x="213" y="35" width="90" height="32"/>
      <rect x="211" y="33" width="90" height="32" class="nonterminal"/>
      <text class="nonterminal" x="221" y="53">Expression</text>
   </a>
   <rect x="323" y="35" width="26" height="32" rx="10"/>
   <rect x="321"
          y="33"
          width="26"
          height="32"
          class="terminal"
          rx="10"/>
   <text class="terminal" x="331" y="53">)</text>
   <rect x="389" y="3" width="26" height="32" rx="10"/>
   <rect x="387"
          y="1"
          width="26"
          height="32"
          class="terminal"
          rx="10"/>
   <text class="terminal" x="397" y="21">[</text>
   <a xmlns:xlink="http://www.w3.org/1999/xlink"
       xlink:href="#RunBound"
       xlink:title="RunBound">
      <rect x="435" y="3" width="84" height="32"/>
      <rect x="433" y="1" width="84" height="32" class="nonterminal"/>
      <text class="nonterminal" x="443" y="21">RunBound</text>
   </a>
   <rect x="539" y="3" width="26" height="32" rx="10"/>
   <rect x="537"
          y="1"
          width="26"
          height="32"
          class="terminal"
          rx="10"/>
   <text class="terminal" x="547" y="21">]</text>
   <a xmlns:xlink="http://www.w3.org/1999/xlink"
       xlink:href="#Features"
       xlink:title="Features">
      <rect x="585" y="3" width="76" height="32"/>
      <rect x="583" y="1" width="76" height="32" class="nonterminal"/>
      <text class="nonterminal" x="593" y="21">Features</text>
   </a>
   <a xmlns:xlink="http://www.w3.org/1999/xlink"
       xlink:href="#Subjection"
       xlink:title="Subjection">
      <rect x="681" y="3" width="86" height="32"/>
      <rect x="679" y="1" width="86" height="32" class="nonterminal"/>
      <text class="nonterminal" x="689" y="21">Subjection</text>
   </a>
   <a xmlns:xlink="http://www.w3.org/1999/xlink"
       xlink:href="#Imitation"
       xlink:title="Imitation">
      <rect x="787" y="3" width="76" height="32"/>
      <rect x="785" y="1" width="76" height="32" class="nonterminal"/>
      <text class="nonterminal" x="795" y="21">Imitation</text>
   </a>
   <path class="line"
          d="m17 17 h2 m20 0 h10 m54 0 h10 m0 0 h2 m-96 0 h20 m76 0 h20 m-116 0 q10 0 10 10 m96 0 q0 -10 10 -10 m-106 10 v24 m96 0 v-24 m-96 24 q0 10 10 10 m76 0 q10 0 10 -10 m-86 10 h10 m56 0 h10 m40 -44 h10 m0 0 h192 m-222 0 h20 m202 0 h20 m-242 0 q10 0 10 10 m222 0 q0 -10 10 -10 m-232 10 v12 m222 0 v-12 m-222 12 q0 10 10 10 m202 0 q10 0 10 -10 m-212 10 h10 m26 0 h10 m0 0 h10 m90 0 h10 m0 0 h10 m26 0 h10 m20 -32 h10 m26 0 h10 m0 0 h10 m84 0 h10 m0 0 h10 m26 0 h10 m0 0 h10 m76 0 h10 m0 0 h10 m86 0 h10 m0 0 h10 m76 0 h10 m3 0 h-3"/>
   <polygon points="881 17 889 13 889 21"/>
   <polygon points="881 17 873 13 873 21"/>
</svg>
