<?xml version="1.0" encoding="UTF-8"?>
<svg xmlns="http://www.w3.org/2000/svg" width="877" height="213">
   <defs>
      <style type="text/css">
    @namespace "http://www.w3.org/2000/svg";
    .line                 {fill: none; stroke: #332900; stroke-width: 1;}
    .bold-line            {stroke: #141000; shape-rendering: crispEdges; stroke-width: 2;}
    .thin-line            {stroke: #1F1800; shape-rendering: crispEdges}
    .filled               {fill: #332900; stroke: none;}
    text.terminal         {font-family: Verdana, Sans-serif;
                            font-size: 12px;
                            fill: #141000;
                            font-weight: bold;
                          }
    text.nonterminal      {font-family: Verdana, Sans-serif;
                            font-size: 12px;
                            fill: #1A1400;
                            font-weight: normal;
                          }
    text.regexp           {font-family: Verdana, Sans-serif;
                            font-size: 12px;
                            fill: #1F1800;
                            font-weight: normal;
                          }
    rect, circle, polygon {fill: #332900; stroke: #332900;}
    rect.terminal         {fill: #FFDB4D; stroke: #332900; stroke-width: 1;}
    rect.nonterminal      {fill: #FFEC9E; stroke: #332900; stroke-width: 1;}
    rect.text             {fill: none; stroke: none;}
    polygon.regexp        {fill: #FFF4C7; stroke: #332900; stroke-width: 1;}
  </style>
   </defs>
   <polygon points="9 17 1 13 1 21"/>
   <polygon points="17 17 9 13 9 21"/>
   <rect x="31" y="3" width="26" height="32" rx="10"/>
   <rect x="29"
          y="1"
          width="26"
          height="32"
          class="terminal"
          rx="10"/>
   <text class="terminal" x="39" y="21">(</text>
   <a xmlns:xlink="http://www.w3.org/1999/xlink"
       xlink:href="#Expression"
       xlink:title="Expression">
      <rect x="117" y="3" width="90" height="32"/>
      <rect x="115" y="1" width="90" height="32" class="nonterminal"/>
      <text class="nonterminal" x="125" y="21">Expression</text>
   </a>
   <rect x="247" y="3" width="30" height="32" rx="10"/>
   <rect x="245"
          y="1"
          width="30"
          height="32"
          class="terminal"
          rx="10"/>
   <text class="terminal" x="255" y="21">U</text>
   <rect x="247" y="47" width="28" height="32" rx="10"/>
   <rect x="245"
          y="45"
          width="28"
          height="32"
          class="terminal"
          rx="10"/>
   <text class="terminal" x="255" y="65">R</text>
   <rect x="117" y="91" width="40" height="32" rx="10"/>
   <rect x="115"
          y="89"
          width="40"
          height="32"
          class="terminal"
          rx="10"/>
   <text class="terminal" x="125" y="109">&lt;&gt;</text>
   <rect x="117" y="135" width="32" height="32" rx="10"/>
   <rect x="115"
          y="133"
          width="32"
          height="32"
          class="terminal"
          rx="10"/>
   <text class="terminal" x="125" y="153">[]</text>
   <rect x="337" y="3" width="26" height="32" rx="10"/>
   <rect x="335"
          y="1"
          width="26"
          height="32"
          class="terminal"
          rx="10"/>
   <text class="terminal" x="345" y="21">[</text>
   <a xmlns:xlink="http://www.w3.org/1999/xlink"
       xlink:href="#PosInteger"
       xlink:title="PosInteger">
      <rect x="383" y="3" width="90" height="32"/>
      <rect x="381" y="1" width="90" height="32" class="nonterminal"/>
      <text class="nonterminal" x="391" y="21">PosInteger</text>
   </a>
   <rect x="493" y="3" width="24" height="32" rx="10"/>
   <rect x="491"
          y="1"
          width="24"
          height="32"
          class="terminal"
          rx="10"/>
   <text class="terminal" x="501" y="21">,</text>
   <a xmlns:xlink="http://www.w3.org/1999/xlink"
       xlink:href="#PosInteger"
       xlink:title="PosInteger">
      <rect x="537" y="3" width="90" height="32"/>
      <rect x="535" y="1" width="90" height="32" class="nonterminal"/>
      <text class="nonterminal" x="545" y="21">PosInteger</text>
   </a>
   <rect x="647" y="3" width="26" height="32" rx="10"/>
   <rect x="645"
          y="1"
          width="26"
          height="32"
          class="terminal"
          rx="10"/>
   <text class="terminal" x="655" y="21">]</text>
   <rect x="97" y="179" width="28" height="32" rx="10"/>
   <rect x="95"
          y="177"
          width="28"
          height="32"
          class="terminal"
          rx="10"/>
   <text class="terminal" x="105" y="197">X</text>
   <a xmlns:xlink="http://www.w3.org/1999/xlink"
       xlink:href="#Expression"
       xlink:title="Expression">
      <rect x="713" y="3" width="90" height="32"/>
      <rect x="711" y="1" width="90" height="32" class="nonterminal"/>
      <text class="nonterminal" x="721" y="21">Expression</text>
   </a>
   <rect x="823" y="3" width="26" height="32" rx="10"/>
   <rect x="821"
          y="1"
          width="26"
          height="32"
          class="terminal"
          rx="10"/>
   <text class="terminal" x="831" y="21">)</text>
   <path class="line"
          d="m17 17 h2 m0 0 h10 m26 0 h10 m40 0 h10 m90 0 h10 m20 0 h10 m30 0 h10 m-70 0 h20 m50 0 h20 m-90 0 q10 0 10 10 m70 0 q0 -10 10 -10 m-80 10 v24 m70 0 v-24 m-70 24 q0 10 10 10 m50 0 q10 0 10 -10 m-60 10 h10 m28 0 h10 m0 0 h2 m-200 -44 h20 m200 0 h20 m-240 0 q10 0 10 10 m220 0 q0 -10 10 -10 m-230 10 v68 m220 0 v-68 m-220 68 q0 10 10 10 m200 0 q10 0 10 -10 m-210 10 h10 m40 0 h10 m0 0 h140 m-210 -10 v20 m220 0 v-20 m-220 20 v24 m220 0 v-24 m-220 24 q0 10 10 10 m200 0 q10 0 10 -10 m-210 10 h10 m32 0 h10 m0 0 h148 m20 -132 h10 m26 0 h10 m0 0 h10 m90 0 h10 m0 0 h10 m24 0 h10 m0 0 h10 m90 0 h10 m0 0 h10 m26 0 h10 m-616 0 h20 m596 0 h20 m-636 0 q10 0 10 10 m616 0 q0 -10 10 -10 m-626 10 v156 m616 0 v-156 m-616 156 q0 10 10 10 m596 0 q10 0 10 -10 m-606 10 h10 m28 0 h10 m0 0 h548 m20 -176 h10 m90 0 h10 m0 0 h10 m26 0 h10 m3 0 h-3"/>
   <polygon points="867 17 875 13 875 21"/>
   <polygon points="867 17 859 13 859 21"/>
</svg>
