<?xml version="1.0" encoding="UTF-8"?>
<svg xmlns="http://www.w3.org/2000/svg" width="593" height="463">
   <defs>
      <style type="text/css">
    @namespace "http://www.w3.org/2000/svg";
    .line                 {fill: none; stroke: #332900; stroke-width: 1;}
    .bold-line            {stroke: #141000; shape-rendering: crispEdges; stroke-width: 2;}
    .thin-line            {stroke: #1F1800; shape-rendering: crispEdges}
    .filled               {fill: #332900; stroke: none;}
    text.terminal         {font-family: Verdana, Sans-serif;
                            font-size: 12px;
                            fill: #141000;
                            font-weight: bold;
                          }
    text.nonterminal      {font-family: Verdana, Sans-serif;
                            font-size: 12px;
                            fill: #1A1400;
                            font-weight: normal;
                          }
    text.regexp           {font-family: Verdana, Sans-serif;
                            font-size: 12px;
                            fill: #1F1800;
                            font-weight: normal;
                          }
    rect, circle, polygon {fill: #332900; stroke: #332900;}
    rect.terminal         {fill: #FFDB4D; stroke: #332900; stroke-width: 1;}
    rect.nonterminal      {fill: #FFEC9E; stroke: #332900; stroke-width: 1;}
    rect.text             {fill: none; stroke: none;}
    polygon.regexp        {fill: #FFF4C7; stroke: #332900; stroke-width: 1;}
  </style>
   </defs>
   <polygon points="9 17 1 13 1 21"/>
   <polygon points="17 17 9 13 9 21"/>
   <a xmlns:xlink="http://www.w3.org/1999/xlink"
       xlink:href="#Block"
       xlink:title="Block">
      <rect x="51" y="3" width="52" height="32"/>
      <rect x="49" y="1" width="52" height="32" class="nonterminal"/>
      <text class="nonterminal" x="59" y="21">Block</text>
   </a>
   <rect x="91" y="111" width="62" height="32" rx="10"/>
   <rect x="89"
          y="109"
          width="62"
          height="32"
          class="terminal"
          rx="10"/>
   <text class="terminal" x="99" y="129">assert</text>
   <a xmlns:xlink="http://www.w3.org/1999/xlink"
       xlink:href="#Expression"
       xlink:title="Expression">
      <rect x="193" y="79" width="90" height="32"/>
      <rect x="191" y="77" width="90" height="32" class="nonterminal"/>
      <text class="nonterminal" x="201" y="97">Expression</text>
   </a>
   <rect x="71" y="155" width="58" height="32" rx="10"/>
   <rect x="69"
          y="153"
          width="58"
          height="32"
          class="terminal"
          rx="10"/>
   <text class="terminal" x="79" y="173">break</text>
   <rect x="71" y="199" width="78" height="32" rx="10"/>
   <rect x="69"
          y="197"
          width="78"
          height="32"
          class="terminal"
          rx="10"/>
   <text class="terminal" x="79" y="217">continue</text>
   <rect x="71" y="243" width="62" height="32" rx="10"/>
   <rect x="69"
          y="241"
          width="62"
          height="32"
          class="terminal"
          rx="10"/>
   <text class="terminal" x="79" y="261">return</text>
   <a xmlns:xlink="http://www.w3.org/1999/xlink"
       xlink:href="#Expression"
       xlink:title="Expression">
      <rect x="173" y="275" width="90" height="32"/>
      <rect x="171" y="273" width="90" height="32" class="nonterminal"/>
      <text class="nonterminal" x="181" y="293">Expression</text>
   </a>
   <rect x="323" y="47" width="24" height="32" rx="10"/>
   <rect x="321"
          y="45"
          width="24"
          height="32"
          class="terminal"
          rx="10"/>
   <text class="terminal" x="331" y="65">;</text>
   <a xmlns:xlink="http://www.w3.org/1999/xlink"
       xlink:href="#ForStatement"
       xlink:title="ForStatement">
      <rect x="51" y="319" width="106" height="32"/>
      <rect x="49" y="317" width="106" height="32" class="nonterminal"/>
      <text class="nonterminal" x="59" y="337">ForStatement</text>
   </a>
   <a xmlns:xlink="http://www.w3.org/1999/xlink"
       xlink:href="#WhileStatement"
       xlink:title="WhileStatement">
      <rect x="51" y="363" width="122" height="32"/>
      <rect x="49" y="361" width="122" height="32" class="nonterminal"/>
      <text class="nonterminal" x="59" y="381">WhileStatement</text>
   </a>
   <rect x="51" y="429" width="64" height="32" rx="10"/>
   <rect x="49"
          y="427"
          width="64"
          height="32"
          class="terminal"
          rx="10"/>
   <text class="terminal" x="59" y="447">switch</text>
   <rect x="135" y="429" width="26" height="32" rx="10"/>
   <rect x="133"
          y="427"
          width="26"
          height="32"
          class="terminal"
          rx="10"/>
   <text class="terminal" x="143" y="447">(</text>
   <a xmlns:xlink="http://www.w3.org/1999/xlink"
       xlink:href="#ExprList"
       xlink:title="ExprList">
      <rect x="181" y="429" width="70" height="32"/>
      <rect x="179" y="427" width="70" height="32" class="nonterminal"/>
      <text class="nonterminal" x="189" y="447">ExprList</text>
   </a>
   <rect x="271" y="429" width="26" height="32" rx="10"/>
   <rect x="269"
          y="427"
          width="26"
          height="32"
          class="terminal"
          rx="10"/>
   <text class="terminal" x="279" y="447">)</text>
   <rect x="317" y="429" width="28" height="32" rx="10"/>
   <rect x="315"
          y="427"
          width="28"
          height="32"
          class="terminal"
          rx="10"/>
   <text class="terminal" x="325" y="447">{</text>
   <a xmlns:xlink="http://www.w3.org/1999/xlink"
       xlink:href="#SwitchCase"
       xlink:title="SwitchCase">
      <rect x="385" y="429" width="92" height="32"/>
      <rect x="383" y="427" width="92" height="32" class="nonterminal"/>
      <text class="nonterminal" x="393" y="447">SwitchCase</text>
   </a>
   <rect x="517" y="429" width="28" height="32" rx="10"/>
   <rect x="515"
          y="427"
          width="28"
          height="32"
          class="terminal"
          rx="10"/>
   <text class="terminal" x="525" y="447">}</text>
   <path class="line"
          d="m17 17 h2 m20 0 h10 m52 0 h10 m0 0 h442 m-534 0 h20 m514 0 h20 m-554 0 q10 0 10 10 m534 0 q0 -10 10 -10 m-544 10 v24 m534 0 v-24 m-534 24 q0 10 10 10 m514 0 q10 0 10 -10 m-504 10 h10 m0 0 h222 m-252 0 h20 m232 0 h20 m-272 0 q10 0 10 10 m252 0 q0 -10 10 -10 m-262 10 v12 m252 0 v-12 m-252 12 q0 10 10 10 m232 0 q10 0 10 -10 m-222 10 h10 m0 0 h72 m-102 0 h20 m82 0 h20 m-122 0 q10 0 10 10 m102 0 q0 -10 10 -10 m-112 10 v12 m102 0 v-12 m-102 12 q0 10 10 10 m82 0 q10 0 10 -10 m-92 10 h10 m62 0 h10 m20 -32 h10 m90 0 h10 m-242 -10 v20 m252 0 v-20 m-252 20 v56 m252 0 v-56 m-252 56 q0 10 10 10 m232 0 q10 0 10 -10 m-242 10 h10 m58 0 h10 m0 0 h154 m-242 -10 v20 m252 0 v-20 m-252 20 v24 m252 0 v-24 m-252 24 q0 10 10 10 m232 0 q10 0 10 -10 m-242 10 h10 m78 0 h10 m0 0 h134 m-242 -10 v20 m252 0 v-20 m-252 20 v24 m252 0 v-24 m-252 24 q0 10 10 10 m232 0 q10 0 10 -10 m-242 10 h10 m62 0 h10 m20 0 h10 m0 0 h100 m-130 0 h20 m110 0 h20 m-150 0 q10 0 10 10 m130 0 q0 -10 10 -10 m-140 10 v12 m130 0 v-12 m-130 12 q0 10 10 10 m110 0 q10 0 10 -10 m-120 10 h10 m90 0 h10 m40 -228 h10 m24 0 h10 m0 0 h198 m-524 -10 v20 m534 0 v-20 m-534 20 v252 m534 0 v-252 m-534 252 q0 10 10 10 m514 0 q10 0 10 -10 m-524 10 h10 m106 0 h10 m0 0 h388 m-524 -10 v20 m534 0 v-20 m-534 20 v24 m534 0 v-24 m-534 24 q0 10 10 10 m514 0 q10 0 10 -10 m-524 10 h10 m122 0 h10 m0 0 h372 m-524 -10 v20 m534 0 v-20 m-534 20 v46 m534 0 v-46 m-534 46 q0 10 10 10 m514 0 q10 0 10 -10 m-524 10 h10 m64 0 h10 m0 0 h10 m26 0 h10 m0 0 h10 m70 0 h10 m0 0 h10 m26 0 h10 m0 0 h10 m28 0 h10 m20 0 h10 m92 0 h10 m-132 0 l20 0 m-1 0 q-9 0 -9 -10 l0 -12 q0 -10 10 -10 m112 32 l20 0 m-20 0 q10 0 10 -10 l0 -12 q0 -10 -10 -10 m-112 0 h10 m0 0 h102 m20 32 h10 m28 0 h10 m23 -426 h-3"/>
   <polygon points="583 17 591 13 591 21"/>
   <polygon points="583 17 575 13 575 21"/>
</svg>
