<?xml version="1.0" encoding="UTF-8"?>
<svg xmlns="http://www.w3.org/2000/svg" width="409" height="125">
   <defs>
      <style type="text/css">
    @namespace "http://www.w3.org/2000/svg";
    .line                 {fill: none; stroke: #332900; stroke-width: 1;}
    .bold-line            {stroke: #141000; shape-rendering: crispEdges; stroke-width: 2;}
    .thin-line            {stroke: #1F1800; shape-rendering: crispEdges}
    .filled               {fill: #332900; stroke: none;}
    text.terminal         {font-family: Verdana, Sans-serif;
                            font-size: 12px;
                            fill: #141000;
                            font-weight: bold;
                          }
    text.nonterminal      {font-family: Verdana, Sans-serif;
                            font-size: 12px;
                            fill: #1A1400;
                            font-weight: normal;
                          }
    text.regexp           {font-family: Verdana, Sans-serif;
                            font-size: 12px;
                            fill: #1F1800;
                            font-weight: normal;
                          }
    rect, circle, polygon {fill: #332900; stroke: #332900;}
    rect.terminal         {fill: #FFDB4D; stroke: #332900; stroke-width: 1;}
    rect.nonterminal      {fill: #FFEC9E; stroke: #332900; stroke-width: 1;}
    rect.text             {fill: none; stroke: none;}
    polygon.regexp        {fill: #FFF4C7; stroke: #332900; stroke-width: 1;}
  </style>
   </defs>
   <polygon points="9 105 1 101 1 109"/>
   <polygon points="17 105 9 101 9 109"/>
   <rect x="31" y="91" width="52" height="32" rx="10"/>
   <rect x="29"
          y="89"
          width="52"
          height="32"
          class="terminal"
          rx="10"/>
   <text class="terminal" x="39" y="109">chan</text>
   <rect x="103" y="91" width="70" height="32" rx="10"/>
   <rect x="101"
          y="89"
          width="70"
          height="32"
          class="terminal"
          rx="10"/>
   <text class="terminal" x="111" y="109">priority</text>
   <a xmlns:xlink="http://www.w3.org/1999/xlink"
       xlink:href="#ChanElement"
       xlink:title="ChanElement">
      <rect x="213" y="91" width="104" height="32"/>
      <rect x="211" y="89" width="104" height="32" class="nonterminal"/>
      <text class="nonterminal" x="221" y="109">ChanElement</text>
   </a>
   <rect x="213" y="47" width="24" height="32" rx="10"/>
   <rect x="211"
          y="45"
          width="24"
          height="32"
          class="terminal"
          rx="10"/>
   <text class="terminal" x="221" y="65">,</text>
   <rect x="213" y="3" width="30" height="32" rx="10"/>
   <rect x="211"
          y="1"
          width="30"
          height="32"
          class="terminal"
          rx="10"/>
   <text class="terminal" x="221" y="21">&lt;</text>
   <rect x="357" y="91" width="24" height="32" rx="10"/>
   <rect x="355"
          y="89"
          width="24"
          height="32"
          class="terminal"
          rx="10"/>
   <text class="terminal" x="365" y="109">;</text>
   <path class="line"
          d="m17 105 h2 m0 0 h10 m52 0 h10 m0 0 h10 m70 0 h10 m20 0 h10 m104 0 h10 m-144 0 l20 0 m-1 0 q-9 0 -9 -10 l0 -24 q0 -10 10 -10 m124 44 l20 0 m-20 0 q10 0 10 -10 l0 -24 q0 -10 -10 -10 m-124 0 h10 m24 0 h10 m0 0 h80 m-134 10 l0 -44 q0 -10 10 -10 m134 54 l0 -44 q0 -10 -10 -10 m-124 0 h10 m30 0 h10 m0 0 h74 m20 88 h10 m24 0 h10 m3 0 h-3"/>
   <polygon points="399 105 407 101 407 109"/>
   <polygon points="399 105 391 101 391 109"/>
</svg>
