<?xml version="1.0" encoding="UTF-8"?>
<svg xmlns="http://www.w3.org/2000/svg" width="199" height="145">
   <defs>
      <style type="text/css">
    @namespace "http://www.w3.org/2000/svg";
    .line                 {fill: none; stroke: #332900; stroke-width: 1;}
    .bold-line            {stroke: #141000; shape-rendering: crispEdges; stroke-width: 2;}
    .thin-line            {stroke: #1F1800; shape-rendering: crispEdges}
    .filled               {fill: #332900; stroke: none;}
    text.terminal         {font-family: Verdana, Sans-serif;
                            font-size: 12px;
                            fill: #141000;
                            font-weight: bold;
                          }
    text.nonterminal      {font-family: Verdana, Sans-serif;
                            font-size: 12px;
                            fill: #1A1400;
                            font-weight: normal;
                          }
    text.regexp           {font-family: Verdana, Sans-serif;
                            font-size: 12px;
                            fill: #1F1800;
                            font-weight: normal;
                          }
    rect, circle, polygon {fill: #332900; stroke: #332900;}
    rect.terminal         {fill: #FFDB4D; stroke: #332900; stroke-width: 1;}
    rect.nonterminal      {fill: #FFEC9E; stroke: #332900; stroke-width: 1;}
    rect.text             {fill: none; stroke: none;}
    polygon.regexp        {fill: #FFF4C7; stroke: #332900; stroke-width: 1;}
  </style>
   </defs>
   <polygon points="9 139 1 135 1 143"/>
   <polygon points="17 139 9 135 9 143"/>
   <a xmlns:xlink="http://www.w3.org/1999/xlink"
       xlink:href="#FunctionDecl"
       xlink:title="FunctionDecl">
      <rect x="51" y="91" width="100" height="32"/>
      <rect x="49" y="89" width="100" height="32" class="nonterminal"/>
      <text class="nonterminal" x="59" y="109">FunctionDecl</text>
   </a>
   <a xmlns:xlink="http://www.w3.org/1999/xlink"
       xlink:href="#VariableDecl"
       xlink:title="VariableDecl">
      <rect x="51" y="47" width="98" height="32"/>
      <rect x="49" y="45" width="98" height="32" class="nonterminal"/>
      <text class="nonterminal" x="59" y="65">VariableDecl</text>
   </a>
   <a xmlns:xlink="http://www.w3.org/1999/xlink"
       xlink:href="#TypeDecl"
       xlink:title="TypeDecl">
      <rect x="51" y="3" width="76" height="32"/>
      <rect x="49" y="1" width="76" height="32" class="nonterminal"/>
      <text class="nonterminal" x="59" y="21">TypeDecl</text>
   </a>
   <path class="line"
          d="m17 139 h2 m20 0 h10 m0 0 h110 m-140 0 l20 0 m-1 0 q-9 0 -9 -10 l0 -14 q0 -10 10 -10 m120 34 l20 0 m-20 0 q10 0 10 -10 l0 -14 q0 -10 -10 -10 m-120 0 h10 m100 0 h10 m-130 10 l0 -44 q0 -10 10 -10 m130 54 l0 -44 q0 -10 -10 -10 m-120 0 h10 m98 0 h10 m0 0 h2 m-130 10 l0 -44 q0 -10 10 -10 m130 54 l0 -44 q0 -10 -10 -10 m-120 0 h10 m76 0 h10 m0 0 h24 m23 122 h-3"/>
   <polygon points="189 139 197 135 197 143"/>
   <polygon points="189 139 181 135 181 143"/>
</svg>
