<?xml version="1.0" encoding="UTF-8"?>
<svg xmlns="http://www.w3.org/2000/svg" width="701" height="117">
   <defs>
      <style type="text/css">
    @namespace "http://www.w3.org/2000/svg";
    .line                 {fill: none; stroke: #332900; stroke-width: 1;}
    .bold-line            {stroke: #141000; shape-rendering: crispEdges; stroke-width: 2;}
    .thin-line            {stroke: #1F1800; shape-rendering: crispEdges}
    .filled               {fill: #332900; stroke: none;}
    text.terminal         {font-family: Verdana, Sans-serif;
                            font-size: 12px;
                            fill: #141000;
                            font-weight: bold;
                          }
    text.nonterminal      {font-family: Verdana, Sans-serif;
                            font-size: 12px;
                            fill: #1A1400;
                            font-weight: normal;
                          }
    text.regexp           {font-family: Verdana, Sans-serif;
                            font-size: 12px;
                            fill: #1F1800;
                            font-weight: normal;
                          }
    rect, circle, polygon {fill: #332900; stroke: #332900;}
    rect.terminal         {fill: #FFDB4D; stroke: #332900; stroke-width: 1;}
    rect.nonterminal      {fill: #FFEC9E; stroke: #332900; stroke-width: 1;}
    rect.text             {fill: none; stroke: none;}
    polygon.regexp        {fill: #FFF4C7; stroke: #332900; stroke-width: 1;}
  </style>
   </defs>
   <polygon points="9 33 1 29 1 37"/>
   <polygon points="17 33 9 29 9 37"/>
   <rect x="51" y="19" width="78" height="32" rx="10"/>
   <rect x="49"
          y="17"
          width="78"
          height="32"
          class="terminal"
          rx="10"/>
   <text class="terminal" x="59" y="37">progress</text>
   <rect x="149" y="19" width="28" height="32" rx="10"/>
   <rect x="147"
          y="17"
          width="28"
          height="32"
          class="terminal"
          rx="10"/>
   <text class="terminal" x="157" y="37">{</text>
   <a xmlns:xlink="http://www.w3.org/1999/xlink"
       xlink:href="#Expression"
       xlink:title="Expression">
      <rect x="237" y="19" width="90" height="32"/>
      <rect x="235" y="17" width="90" height="32" class="nonterminal"/>
      <text class="nonterminal" x="245" y="37">Expression</text>
   </a>
   <rect x="367" y="51" width="24" height="32" rx="10"/>
   <rect x="365"
          y="49"
          width="24"
          height="32"
          class="terminal"
          rx="10"/>
   <text class="terminal" x="375" y="69">:</text>
   <a xmlns:xlink="http://www.w3.org/1999/xlink"
       xlink:href="#Expression"
       xlink:title="Expression">
      <rect x="411" y="51" width="90" height="32"/>
      <rect x="409" y="49" width="90" height="32" class="nonterminal"/>
      <text class="nonterminal" x="419" y="69">Expression</text>
   </a>
   <rect x="541" y="19" width="24" height="32" rx="10"/>
   <rect x="539"
          y="17"
          width="24"
          height="32"
          class="terminal"
          rx="10"/>
   <text class="terminal" x="549" y="37">;</text>
   <rect x="625" y="19" width="28" height="32" rx="10"/>
   <rect x="623"
          y="17"
          width="28"
          height="32"
          class="terminal"
          rx="10"/>
   <text class="terminal" x="633" y="37">}</text>
   <path class="line"
          d="m17 33 h2 m20 0 h10 m78 0 h10 m0 0 h10 m28 0 h10 m40 0 h10 m90 0 h10 m20 0 h10 m0 0 h144 m-174 0 h20 m154 0 h20 m-194 0 q10 0 10 10 m174 0 q0 -10 10 -10 m-184 10 v12 m174 0 v-12 m-174 12 q0 10 10 10 m154 0 q10 0 10 -10 m-164 10 h10 m24 0 h10 m0 0 h10 m90 0 h10 m20 -32 h10 m24 0 h10 m-368 0 l20 0 m-1 0 q-9 0 -9 -10 l0 -12 q0 -10 10 -10 m348 32 l20 0 m-20 0 q10 0 10 -10 l0 -12 q0 -10 -10 -10 m-348 0 h10 m0 0 h338 m-388 32 h20 m388 0 h20 m-428 0 q10 0 10 10 m408 0 q0 -10 10 -10 m-418 10 v46 m408 0 v-46 m-408 46 q0 10 10 10 m388 0 q10 0 10 -10 m-398 10 h10 m0 0 h378 m20 -66 h10 m28 0 h10 m-642 0 h20 m622 0 h20 m-662 0 q10 0 10 10 m642 0 q0 -10 10 -10 m-652 10 v62 m642 0 v-62 m-642 62 q0 10 10 10 m622 0 q10 0 10 -10 m-632 10 h10 m0 0 h612 m23 -82 h-3"/>
   <polygon points="691 33 699 29 699 37"/>
   <polygon points="691 33 683 29 683 37"/>
</svg>
