<?xml version="1.0" encoding="UTF-8"?>
<svg xmlns="http://www.w3.org/2000/svg" width="505" height="289">
   <defs>
      <style type="text/css">
    @namespace "http://www.w3.org/2000/svg";
    .line                 {fill: none; stroke: #332900; stroke-width: 1;}
    .bold-line            {stroke: #141000; shape-rendering: crispEdges; stroke-width: 2;}
    .thin-line            {stroke: #1F1800; shape-rendering: crispEdges}
    .filled               {fill: #332900; stroke: none;}
    text.terminal         {font-family: Verdana, Sans-serif;
                            font-size: 12px;
                            fill: #141000;
                            font-weight: bold;
                          }
    text.nonterminal      {font-family: Verdana, Sans-serif;
                            font-size: 12px;
                            fill: #1A1400;
                            font-weight: normal;
                          }
    text.regexp           {font-family: Verdana, Sans-serif;
                            font-size: 12px;
                            fill: #1F1800;
                            font-weight: normal;
                          }
    rect, circle, polygon {fill: #332900; stroke: #332900;}
    rect.terminal         {fill: #FFDB4D; stroke: #332900; stroke-width: 1;}
    rect.nonterminal      {fill: #FFEC9E; stroke: #332900; stroke-width: 1;}
    rect.text             {fill: none; stroke: none;}
    polygon.regexp        {fill: #FFF4C7; stroke: #332900; stroke-width: 1;}
  </style>
   </defs>
   <polygon points="9 17 1 13 1 21"/>
   <polygon points="17 17 9 13 9 21"/>
   <a xmlns:xlink="http://www.w3.org/1999/xlink"
       xlink:href="#SymbolicQuery"
       xlink:title="SymbolicQuery">
      <rect x="71" y="3" width="112" height="32"/>
      <rect x="69" y="1" width="112" height="32" class="nonterminal"/>
      <text class="nonterminal" x="79" y="21">SymbolicQuery</text>
   </a>
   <a xmlns:xlink="http://www.w3.org/1999/xlink"
       xlink:href="#SMCQuery"
       xlink:title="SMCQuery">
      <rect x="71" y="47" width="84" height="32"/>
      <rect x="69" y="45" width="84" height="32" class="nonterminal"/>
      <text class="nonterminal" x="79" y="65">SMCQuery</text>
   </a>
   <a xmlns:xlink="http://www.w3.org/1999/xlink"
       xlink:href="#Subjection"
       xlink:title="Subjection">
      <rect x="223" y="3" width="86" height="32"/>
      <rect x="221" y="1" width="86" height="32" class="nonterminal"/>
      <text class="nonterminal" x="231" y="21">Subjection</text>
   </a>
   <rect x="51" y="91" width="108" height="32" rx="10"/>
   <rect x="49"
          y="89"
          width="108"
          height="32"
          class="terminal"
          rx="10"/>
   <text class="terminal" x="59" y="109">saveStrategy</text>
   <rect x="179" y="91" width="26" height="32" rx="10"/>
   <rect x="177"
          y="89"
          width="26"
          height="32"
          class="terminal"
          rx="10"/>
   <text class="terminal" x="187" y="109">(</text>
   <a xmlns:xlink="http://www.w3.org/1999/xlink"
       xlink:href="#Expression"
       xlink:title="Expression">
      <rect x="225" y="91" width="90" height="32"/>
      <rect x="223" y="89" width="90" height="32" class="nonterminal"/>
      <text class="nonterminal" x="233" y="109">Expression</text>
   </a>
   <rect x="335" y="91" width="24" height="32" rx="10"/>
   <rect x="333"
          y="89"
          width="24"
          height="32"
          class="terminal"
          rx="10"/>
   <text class="terminal" x="343" y="109">,</text>
   <a xmlns:xlink="http://www.w3.org/1999/xlink"
       xlink:href="#Id"
       xlink:title="Id">
      <rect x="379" y="91" width="32" height="32"/>
      <rect x="377" y="89" width="32" height="32" class="nonterminal"/>
      <text class="nonterminal" x="387" y="109">Id</text>
   </a>
   <rect x="431" y="91" width="26" height="32" rx="10"/>
   <rect x="429"
          y="89"
          width="26"
          height="32"
          class="terminal"
          rx="10"/>
   <text class="terminal" x="439" y="109">)</text>
   <rect x="71" y="167" width="76" height="32" rx="10"/>
   <rect x="69"
          y="165"
          width="76"
          height="32"
          class="terminal"
          rx="10"/>
   <text class="terminal" x="79" y="185">strategy</text>
   <a xmlns:xlink="http://www.w3.org/1999/xlink"
       xlink:href="#Id"
       xlink:title="Id">
      <rect x="167" y="167" width="32" height="32"/>
      <rect x="165" y="165" width="32" height="32" class="nonterminal"/>
      <text class="nonterminal" x="175" y="185">Id</text>
   </a>
   <rect x="219" y="167" width="30" height="32" rx="10"/>
   <rect x="217"
          y="165"
          width="30"
          height="32"
          class="terminal"
          rx="10"/>
   <text class="terminal" x="227" y="185">=</text>
   <a xmlns:xlink="http://www.w3.org/1999/xlink"
       xlink:href="#AssignableQuery"
       xlink:title="AssignableQuery">
      <rect x="289" y="135" width="126" height="32"/>
      <rect x="287" y="133" width="126" height="32" class="nonterminal"/>
      <text class="nonterminal" x="297" y="153">AssignableQuery</text>
   </a>
   <rect x="51" y="211" width="58" height="32" rx="10"/>
   <rect x="49"
          y="209"
          width="58"
          height="32"
          class="terminal"
          rx="10"/>
   <text class="terminal" x="59" y="229">Pmax</text>
   <a xmlns:xlink="http://www.w3.org/1999/xlink"
       xlink:href="#Expression"
       xlink:title="Expression">
      <rect x="129" y="211" width="90" height="32"/>
      <rect x="127" y="209" width="90" height="32" class="nonterminal"/>
      <text class="nonterminal" x="137" y="229">Expression</text>
   </a>
   <rect x="51" y="255" width="40" height="32" rx="10"/>
   <rect x="49"
          y="253"
          width="40"
          height="32"
          class="terminal"
          rx="10"/>
   <text class="terminal" x="59" y="273">sat</text>
   <rect x="111" y="255" width="24" height="32" rx="10"/>
   <rect x="109"
          y="253"
          width="24"
          height="32"
          class="terminal"
          rx="10"/>
   <text class="terminal" x="119" y="273">:</text>
   <a xmlns:xlink="http://www.w3.org/1999/xlink"
       xlink:href="#NonTypeId"
       xlink:title="NonTypeId">
      <rect x="155" y="255" width="88" height="32"/>
      <rect x="153" y="253" width="88" height="32" class="nonterminal"/>
      <text class="nonterminal" x="163" y="273">NonTypeId</text>
   </a>
   <path class="line"
          d="m17 17 h2 m40 0 h10 m112 0 h10 m-152 0 h20 m132 0 h20 m-172 0 q10 0 10 10 m152 0 q0 -10 10 -10 m-162 10 v24 m152 0 v-24 m-152 24 q0 10 10 10 m132 0 q10 0 10 -10 m-142 10 h10 m84 0 h10 m0 0 h28 m20 -44 h10 m86 0 h10 m0 0 h148 m-446 0 h20 m426 0 h20 m-466 0 q10 0 10 10 m446 0 q0 -10 10 -10 m-456 10 v68 m446 0 v-68 m-446 68 q0 10 10 10 m426 0 q10 0 10 -10 m-436 10 h10 m108 0 h10 m0 0 h10 m26 0 h10 m0 0 h10 m90 0 h10 m0 0 h10 m24 0 h10 m0 0 h10 m32 0 h10 m0 0 h10 m26 0 h10 m-436 -10 v20 m446 0 v-20 m-446 20 v24 m446 0 v-24 m-446 24 q0 10 10 10 m426 0 q10 0 10 -10 m-416 10 h10 m0 0 h188 m-218 0 h20 m198 0 h20 m-238 0 q10 0 10 10 m218 0 q0 -10 10 -10 m-228 10 v12 m218 0 v-12 m-218 12 q0 10 10 10 m198 0 q10 0 10 -10 m-208 10 h10 m76 0 h10 m0 0 h10 m32 0 h10 m0 0 h10 m30 0 h10 m20 -32 h10 m126 0 h10 m0 0 h42 m-436 -10 v20 m446 0 v-20 m-446 20 v56 m446 0 v-56 m-446 56 q0 10 10 10 m426 0 q10 0 10 -10 m-436 10 h10 m58 0 h10 m0 0 h10 m90 0 h10 m0 0 h238 m-436 -10 v20 m446 0 v-20 m-446 20 v24 m446 0 v-24 m-446 24 q0 10 10 10 m426 0 q10 0 10 -10 m-436 10 h10 m40 0 h10 m0 0 h10 m24 0 h10 m0 0 h10 m88 0 h10 m0 0 h214 m23 -252 h-3"/>
   <polygon points="495 17 503 13 503 21"/>
   <polygon points="495 17 487 13 487 21"/>
</svg>
