<?xml version="1.0" encoding="UTF-8"?>
<svg xmlns="http://www.w3.org/2000/svg" width="623" height="103">
   <defs>
      <style type="text/css">
    @namespace "http://www.w3.org/2000/svg";
    .line                 {fill: none; stroke: #332900; stroke-width: 1;}
    .bold-line            {stroke: #141000; shape-rendering: crispEdges; stroke-width: 2;}
    .thin-line            {stroke: #1F1800; shape-rendering: crispEdges}
    .filled               {fill: #332900; stroke: none;}
    text.terminal         {font-family: Verdana, Sans-serif;
                            font-size: 12px;
                            fill: #141000;
                            font-weight: bold;
                          }
    text.nonterminal      {font-family: Verdana, Sans-serif;
                            font-size: 12px;
                            fill: #1A1400;
                            font-weight: normal;
                          }
    text.regexp           {font-family: Verdana, Sans-serif;
                            font-size: 12px;
                            fill: #1F1800;
                            font-weight: normal;
                          }
    rect, circle, polygon {fill: #332900; stroke: #332900;}
    rect.terminal         {fill: #FFDB4D; stroke: #332900; stroke-width: 1;}
    rect.nonterminal      {fill: #FFEC9E; stroke: #332900; stroke-width: 1;}
    rect.text             {fill: none; stroke: none;}
    polygon.regexp        {fill: #FFF4C7; stroke: #332900; stroke-width: 1;}
  </style>
   </defs>
   <polygon points="9 67 1 63 1 71"/>
   <polygon points="17 67 9 63 9 71"/>
   <a xmlns:xlink="http://www.w3.org/1999/xlink"
       xlink:href="#IfConditionThenMatched"
       xlink:title="IfConditionThenMatched">
      <rect x="91" y="19" width="174" height="32"/>
      <rect x="89" y="17" width="174" height="32" class="nonterminal"/>
      <text class="nonterminal" x="99" y="37">IfConditionThenMatched</text>
   </a>
   <a xmlns:xlink="http://www.w3.org/1999/xlink"
       xlink:href="#IfCondition"
       xlink:title="IfCondition">
      <rect x="305" y="53" width="90" height="32"/>
      <rect x="303" y="51" width="90" height="32" class="nonterminal"/>
      <text class="nonterminal" x="313" y="71">IfCondition</text>
   </a>
   <a xmlns:xlink="http://www.w3.org/1999/xlink"
       xlink:href="#MatchedStatement"
       xlink:title="MatchedStatement">
      <rect x="455" y="53" width="140" height="32"/>
      <rect x="453" y="51" width="140" height="32" class="nonterminal"/>
      <text class="nonterminal" x="463" y="71">MatchedStatement</text>
   </a>
   <path class="line"
          d="m17 67 h2 m60 0 h10 m0 0 h184 m-214 0 l20 0 m-1 0 q-9 0 -9 -10 l0 -14 q0 -10 10 -10 m194 34 l20 0 m-20 0 q10 0 10 -10 l0 -14 q0 -10 -10 -10 m-194 0 h10 m174 0 h10 m20 34 h10 m90 0 h10 m-364 0 l20 0 m-1 0 q-9 0 -9 -10 l0 -46 q0 -10 10 -10 m344 66 l20 0 m-20 0 q10 0 10 -10 l0 -46 q0 -10 -10 -10 m-344 0 h10 m0 0 h334 m-384 66 h20 m384 0 h20 m-424 0 q10 0 10 10 m404 0 q0 -10 10 -10 m-414 10 v14 m404 0 v-14 m-404 14 q0 10 10 10 m384 0 q10 0 10 -10 m-394 10 h10 m0 0 h374 m20 -34 h10 m140 0 h10 m3 0 h-3"/>
   <polygon points="613 67 621 63 621 71"/>
   <polygon points="613 67 605 63 605 71"/>
</svg>
