<?xml version="1.0" encoding="UTF-8"?>
<svg xmlns="http://www.w3.org/2000/svg" width="431" height="81">
   <defs>
      <style type="text/css">
    @namespace "http://www.w3.org/2000/svg";
    .line                 {fill: none; stroke: #332900; stroke-width: 1;}
    .bold-line            {stroke: #141000; shape-rendering: crispEdges; stroke-width: 2;}
    .thin-line            {stroke: #1F1800; shape-rendering: crispEdges}
    .filled               {fill: #332900; stroke: none;}
    text.terminal         {font-family: Verdana, Sans-serif;
                            font-size: 12px;
                            fill: #141000;
                            font-weight: bold;
                          }
    text.nonterminal      {font-family: Verdana, Sans-serif;
                            font-size: 12px;
                            fill: #1A1400;
                            font-weight: normal;
                          }
    text.regexp           {font-family: Verdana, Sans-serif;
                            font-size: 12px;
                            fill: #1F1800;
                            font-weight: normal;
                          }
    rect, circle, polygon {fill: #332900; stroke: #332900;}
    rect.terminal         {fill: #FFDB4D; stroke: #332900; stroke-width: 1;}
    rect.nonterminal      {fill: #FFEC9E; stroke: #332900; stroke-width: 1;}
    rect.text             {fill: none; stroke: none;}
    polygon.regexp        {fill: #FFF4C7; stroke: #332900; stroke-width: 1;}
  </style>
   </defs>
   <polygon points="9 17 1 13 1 21"/>
   <polygon points="17 17 9 13 9 21"/>
   <rect x="51" y="3" width="50" height="32" rx="10"/>
   <rect x="49"
          y="1"
          width="50"
          height="32"
          class="terminal"
          rx="10"/>
   <text class="terminal" x="59" y="21">case</text>
   <a xmlns:xlink="http://www.w3.org/1999/xlink"
       xlink:href="#Expression"
       xlink:title="Expression">
      <rect x="121" y="3" width="90" height="32"/>
      <rect x="119" y="1" width="90" height="32" class="nonterminal"/>
      <text class="nonterminal" x="129" y="21">Expression</text>
   </a>
   <rect x="51" y="47" width="68" height="32" rx="10"/>
   <rect x="49"
          y="45"
          width="68"
          height="32"
          class="terminal"
          rx="10"/>
   <text class="terminal" x="59" y="65">default</text>
   <rect x="251" y="3" width="24" height="32" rx="10"/>
   <rect x="249"
          y="1"
          width="24"
          height="32"
          class="terminal"
          rx="10"/>
   <text class="terminal" x="259" y="21">:</text>
   <a xmlns:xlink="http://www.w3.org/1999/xlink"
       xlink:href="#StatementList"
       xlink:title="StatementList">
      <rect x="295" y="3" width="108" height="32"/>
      <rect x="293" y="1" width="108" height="32" class="nonterminal"/>
      <text class="nonterminal" x="303" y="21">StatementList</text>
   </a>
   <path class="line"
          d="m17 17 h2 m20 0 h10 m50 0 h10 m0 0 h10 m90 0 h10 m-200 0 h20 m180 0 h20 m-220 0 q10 0 10 10 m200 0 q0 -10 10 -10 m-210 10 v24 m200 0 v-24 m-200 24 q0 10 10 10 m180 0 q10 0 10 -10 m-190 10 h10 m68 0 h10 m0 0 h92 m20 -44 h10 m24 0 h10 m0 0 h10 m108 0 h10 m3 0 h-3"/>
   <polygon points="421 17 429 13 429 21"/>
   <polygon points="421 17 413 13 413 21"/>
</svg>
