<?xml version="1.0" encoding="UTF-8"?>
<svg xmlns="http://www.w3.org/2000/svg" width="669" height="477">
   <defs>
      <style type="text/css">
    @namespace "http://www.w3.org/2000/svg";
    .line                 {fill: none; stroke: #332900; stroke-width: 1;}
    .bold-line            {stroke: #141000; shape-rendering: crispEdges; stroke-width: 2;}
    .thin-line            {stroke: #1F1800; shape-rendering: crispEdges}
    .filled               {fill: #332900; stroke: none;}
    text.terminal         {font-family: Verdana, Sans-serif;
                            font-size: 12px;
                            fill: #141000;
                            font-weight: bold;
                          }
    text.nonterminal      {font-family: Verdana, Sans-serif;
                            font-size: 12px;
                            fill: #1A1400;
                            font-weight: normal;
                          }
    text.regexp           {font-family: Verdana, Sans-serif;
                            font-size: 12px;
                            fill: #1F1800;
                            font-weight: normal;
                          }
    rect, circle, polygon {fill: #332900; stroke: #332900;}
    rect.terminal         {fill: #FFDB4D; stroke: #332900; stroke-width: 1;}
    rect.nonterminal      {fill: #FFEC9E; stroke: #332900; stroke-width: 1;}
    rect.text             {fill: none; stroke: none;}
    polygon.regexp        {fill: #FFF4C7; stroke: #332900; stroke-width: 1;}
  </style>
   </defs>
   <polygon points="9 17 1 13 1 21"/>
   <polygon points="17 17 9 13 9 21"/>
   <rect x="71" y="3" width="50" height="32" rx="10"/>
   <rect x="69"
          y="1"
          width="50"
          height="32"
          class="terminal"
          rx="10"/>
   <text class="terminal" x="79" y="21">A&lt;&gt;</text>
   <rect x="71" y="47" width="48" height="32" rx="10"/>
   <rect x="69"
          y="45"
          width="48"
          height="32"
          class="terminal"
          rx="10"/>
   <text class="terminal" x="79" y="65">E&lt;&gt;</text>
   <rect x="71" y="91" width="40" height="32" rx="10"/>
   <rect x="69"
          y="89"
          width="40"
          height="32"
          class="terminal"
          rx="10"/>
   <text class="terminal" x="79" y="109">E[]</text>
   <a xmlns:xlink="http://www.w3.org/1999/xlink"
       xlink:href="#Expression"
       xlink:title="Expression">
      <rect x="71" y="135" width="90" height="32"/>
      <rect x="69" y="133" width="90" height="32" class="nonterminal"/>
      <text class="nonterminal" x="79" y="153">Expression</text>
   </a>
   <rect x="181" y="135" width="42" height="32" rx="10"/>
   <rect x="179"
          y="133"
          width="42"
          height="32"
          class="terminal"
          rx="10"/>
   <text class="terminal" x="189" y="153">--&gt;</text>
   <a xmlns:xlink="http://www.w3.org/1999/xlink"
       xlink:href="#Expression"
       xlink:title="Expression">
      <rect x="263" y="3" width="90" height="32"/>
      <rect x="261" y="1" width="90" height="32" class="nonterminal"/>
      <text class="nonterminal" x="271" y="21">Expression</text>
   </a>
   <rect x="51" y="179" width="42" height="32" rx="10"/>
   <rect x="49"
          y="177"
          width="42"
          height="32"
          class="terminal"
          rx="10"/>
   <text class="terminal" x="59" y="197">A[]</text>
   <a xmlns:xlink="http://www.w3.org/1999/xlink"
       xlink:href="#Expression"
       xlink:title="Expression">
      <rect x="133" y="179" width="90" height="32"/>
      <rect x="131" y="177" width="90" height="32" class="nonterminal"/>
      <text class="nonterminal" x="141" y="197">Expression</text>
   </a>
   <rect x="133" y="223" width="26" height="32" rx="10"/>
   <rect x="131"
          y="221"
          width="26"
          height="32"
          class="terminal"
          rx="10"/>
   <text class="terminal" x="141" y="241">(</text>
   <a xmlns:xlink="http://www.w3.org/1999/xlink"
       xlink:href="#Expression"
       xlink:title="Expression">
      <rect x="179" y="223" width="90" height="32"/>
      <rect x="177" y="221" width="90" height="32" class="nonterminal"/>
      <text class="nonterminal" x="187" y="241">Expression</text>
   </a>
   <rect x="309" y="223" width="44" height="32" rx="10"/>
   <rect x="307"
          y="221"
          width="44"
          height="32"
          class="terminal"
          rx="10"/>
   <text class="terminal" x="317" y="241">and</text>
   <rect x="309" y="267" width="40" height="32" rx="10"/>
   <rect x="307"
          y="265"
          width="40"
          height="32"
          class="terminal"
          rx="10"/>
   <text class="terminal" x="317" y="285">&amp;&amp;</text>
   <rect x="393" y="223" width="50" height="32" rx="10"/>
   <rect x="391"
          y="221"
          width="50"
          height="32"
          class="terminal"
          rx="10"/>
   <text class="terminal" x="401" y="241">A&lt;&gt;</text>
   <a xmlns:xlink="http://www.w3.org/1999/xlink"
       xlink:href="#Expression"
       xlink:title="Expression">
      <rect x="463" y="223" width="90" height="32"/>
      <rect x="461" y="221" width="90" height="32" class="nonterminal"/>
      <text class="nonterminal" x="471" y="241">Expression</text>
   </a>
   <rect x="573" y="223" width="26" height="32" rx="10"/>
   <rect x="571"
          y="221"
          width="26"
          height="32"
          class="terminal"
          rx="10"/>
   <text class="terminal" x="581" y="241">)</text>
   <rect x="51" y="311" width="28" height="32" rx="10"/>
   <rect x="49"
          y="309"
          width="28"
          height="32"
          class="terminal"
          rx="10"/>
   <text class="terminal" x="59" y="329">A</text>
   <rect x="99" y="311" width="26" height="32" rx="10"/>
   <rect x="97"
          y="309"
          width="26"
          height="32"
          class="terminal"
          rx="10"/>
   <text class="terminal" x="107" y="329">[</text>
   <a xmlns:xlink="http://www.w3.org/1999/xlink"
       xlink:href="#Expression"
       xlink:title="Expression">
      <rect x="145" y="311" width="90" height="32"/>
      <rect x="143" y="309" width="90" height="32" class="nonterminal"/>
      <text class="nonterminal" x="153" y="329">Expression</text>
   </a>
   <rect x="275" y="311" width="30" height="32" rx="10"/>
   <rect x="273"
          y="309"
          width="30"
          height="32"
          class="terminal"
          rx="10"/>
   <text class="terminal" x="283" y="329">U</text>
   <rect x="275" y="355" width="34" height="32" rx="10"/>
   <rect x="273"
          y="353"
          width="34"
          height="32"
          class="terminal"
          rx="10"/>
   <text class="terminal" x="283" y="373">W</text>
   <a xmlns:xlink="http://www.w3.org/1999/xlink"
       xlink:href="#Expression"
       xlink:title="Expression">
      <rect x="349" y="311" width="90" height="32"/>
      <rect x="347" y="309" width="90" height="32" class="nonterminal"/>
      <text class="nonterminal" x="357" y="329">Expression</text>
   </a>
   <rect x="459" y="311" width="26" height="32" rx="10"/>
   <rect x="457"
          y="309"
          width="26"
          height="32"
          class="terminal"
          rx="10"/>
   <text class="terminal" x="467" y="329">]</text>
   <rect x="71" y="399" width="44" height="32" rx="10"/>
   <rect x="69"
          y="397"
          width="44"
          height="32"
          class="terminal"
          rx="10"/>
   <text class="terminal" x="79" y="417">sup</text>
   <rect x="71" y="443" width="38" height="32" rx="10"/>
   <rect x="69"
          y="441"
          width="38"
          height="32"
          class="terminal"
          rx="10"/>
   <text class="terminal" x="79" y="461">inf</text>
   <rect x="175" y="431" width="28" height="32" rx="10"/>
   <rect x="173"
          y="429"
          width="28"
          height="32"
          class="terminal"
          rx="10"/>
   <text class="terminal" x="183" y="449">{</text>
   <a xmlns:xlink="http://www.w3.org/1999/xlink"
       xlink:href="#Expression"
       xlink:title="Expression">
      <rect x="223" y="431" width="90" height="32"/>
      <rect x="221" y="429" width="90" height="32" class="nonterminal"/>
      <text class="nonterminal" x="231" y="449">Expression</text>
   </a>
   <rect x="333" y="431" width="28" height="32" rx="10"/>
   <rect x="331"
          y="429"
          width="28"
          height="32"
          class="terminal"
          rx="10"/>
   <text class="terminal" x="341" y="449">}</text>
   <rect x="401" y="399" width="24" height="32" rx="10"/>
   <rect x="399"
          y="397"
          width="24"
          height="32"
          class="terminal"
          rx="10"/>
   <text class="terminal" x="409" y="417">:</text>
   <a xmlns:xlink="http://www.w3.org/1999/xlink"
       xlink:href="#NonEmptyExpressionList"
       xlink:title="NonEmptyExpressionList">
      <rect x="445" y="399" width="176" height="32"/>
      <rect x="443" y="397" width="176" height="32" class="nonterminal"/>
      <text class="nonterminal" x="453" y="417">NonEmptyExpressionList</text>
   </a>
   <path class="line"
          d="m17 17 h2 m40 0 h10 m50 0 h10 m0 0 h102 m-192 0 h20 m172 0 h20 m-212 0 q10 0 10 10 m192 0 q0 -10 10 -10 m-202 10 v24 m192 0 v-24 m-192 24 q0 10 10 10 m172 0 q10 0 10 -10 m-182 10 h10 m48 0 h10 m0 0 h104 m-182 -10 v20 m192 0 v-20 m-192 20 v24 m192 0 v-24 m-192 24 q0 10 10 10 m172 0 q10 0 10 -10 m-182 10 h10 m40 0 h10 m0 0 h112 m-182 -10 v20 m192 0 v-20 m-192 20 v24 m192 0 v-24 m-192 24 q0 10 10 10 m172 0 q10 0 10 -10 m-182 10 h10 m90 0 h10 m0 0 h10 m42 0 h10 m20 -132 h10 m90 0 h10 m0 0 h268 m-610 0 h20 m590 0 h20 m-630 0 q10 0 10 10 m610 0 q0 -10 10 -10 m-620 10 v156 m610 0 v-156 m-610 156 q0 10 10 10 m590 0 q10 0 10 -10 m-600 10 h10 m42 0 h10 m20 0 h10 m90 0 h10 m0 0 h376 m-506 0 h20 m486 0 h20 m-526 0 q10 0 10 10 m506 0 q0 -10 10 -10 m-516 10 v24 m506 0 v-24 m-506 24 q0 10 10 10 m486 0 q10 0 10 -10 m-496 10 h10 m26 0 h10 m0 0 h10 m90 0 h10 m20 0 h10 m44 0 h10 m-84 0 h20 m64 0 h20 m-104 0 q10 0 10 10 m84 0 q0 -10 10 -10 m-94 10 v24 m84 0 v-24 m-84 24 q0 10 10 10 m64 0 q10 0 10 -10 m-74 10 h10 m40 0 h10 m0 0 h4 m20 -44 h10 m50 0 h10 m0 0 h10 m90 0 h10 m0 0 h10 m26 0 h10 m20 -44 h2 m-600 -10 v20 m610 0 v-20 m-610 20 v112 m610 0 v-112 m-610 112 q0 10 10 10 m590 0 q10 0 10 -10 m-600 10 h10 m28 0 h10 m0 0 h10 m26 0 h10 m0 0 h10 m90 0 h10 m20 0 h10 m30 0 h10 m0 0 h4 m-74 0 h20 m54 0 h20 m-94 0 q10 0 10 10 m74 0 q0 -10 10 -10 m-84 10 v24 m74 0 v-24 m-74 24 q0 10 10 10 m54 0 q10 0 10 -10 m-64 10 h10 m34 0 h10 m20 -44 h10 m90 0 h10 m0 0 h10 m26 0 h10 m0 0 h136 m-600 -10 v20 m610 0 v-20 m-610 20 v68 m610 0 v-68 m-610 68 q0 10 10 10 m590 0 q10 0 10 -10 m-580 10 h10 m44 0 h10 m-84 0 h20 m64 0 h20 m-104 0 q10 0 10 10 m84 0 q0 -10 10 -10 m-94 10 v24 m84 0 v-24 m-84 24 q0 10 10 10 m64 0 q10 0 10 -10 m-74 10 h10 m38 0 h10 m0 0 h6 m40 -44 h10 m0 0 h196 m-226 0 h20 m206 0 h20 m-246 0 q10 0 10 10 m226 0 q0 -10 10 -10 m-236 10 v12 m226 0 v-12 m-226 12 q0 10 10 10 m206 0 q10 0 10 -10 m-216 10 h10 m28 0 h10 m0 0 h10 m90 0 h10 m0 0 h10 m28 0 h10 m20 -32 h10 m24 0 h10 m0 0 h10 m176 0 h10 m23 -396 h-3"/>
   <polygon points="659 17 667 13 667 21"/>
   <polygon points="659 17 651 13 651 21"/>
</svg>
