<?xml version="1.0" encoding="UTF-8"?>
<svg xmlns="http://www.w3.org/2000/svg" width="319" height="125">
   <defs>
      <style type="text/css">
    @namespace "http://www.w3.org/2000/svg";
    .line                 {fill: none; stroke: #332900; stroke-width: 1;}
    .bold-line            {stroke: #141000; shape-rendering: crispEdges; stroke-width: 2;}
    .thin-line            {stroke: #1F1800; shape-rendering: crispEdges}
    .filled               {fill: #332900; stroke: none;}
    text.terminal         {font-family: Verdana, Sans-serif;
                            font-size: 12px;
                            fill: #141000;
                            font-weight: bold;
                          }
    text.nonterminal      {font-family: Verdana, Sans-serif;
                            font-size: 12px;
                            fill: #1A1400;
                            font-weight: normal;
                          }
    text.regexp           {font-family: Verdana, Sans-serif;
                            font-size: 12px;
                            fill: #1F1800;
                            font-weight: normal;
                          }
    rect, circle, polygon {fill: #332900; stroke: #332900;}
    rect.terminal         {fill: #FFDB4D; stroke: #332900; stroke-width: 1;}
    rect.nonterminal      {fill: #FFEC9E; stroke: #332900; stroke-width: 1;}
    rect.text             {fill: none; stroke: none;}
    polygon.regexp        {fill: #FFF4C7; stroke: #332900; stroke-width: 1;}
  </style>
   </defs>
   <polygon points="9 105 1 101 1 109"/>
   <polygon points="17 105 9 101 9 109"/>
   <rect x="31" y="91" width="68" height="32" rx="10"/>
   <rect x="29"
          y="89"
          width="68"
          height="32"
          class="terminal"
          rx="10"/>
   <text class="terminal" x="39" y="109">system</text>
   <a xmlns:xlink="http://www.w3.org/1999/xlink"
       xlink:href="#NonTypeId"
       xlink:title="NonTypeId">
      <rect x="139" y="91" width="88" height="32"/>
      <rect x="137" y="89" width="88" height="32" class="nonterminal"/>
      <text class="nonterminal" x="147" y="109">NonTypeId</text>
   </a>
   <rect x="139" y="47" width="24" height="32" rx="10"/>
   <rect x="137"
          y="45"
          width="24"
          height="32"
          class="terminal"
          rx="10"/>
   <text class="terminal" x="147" y="65">,</text>
   <rect x="139" y="3" width="30" height="32" rx="10"/>
   <rect x="137"
          y="1"
          width="30"
          height="32"
          class="terminal"
          rx="10"/>
   <text class="terminal" x="147" y="21">&lt;</text>
   <rect x="267" y="91" width="24" height="32" rx="10"/>
   <rect x="265"
          y="89"
          width="24"
          height="32"
          class="terminal"
          rx="10"/>
   <text class="terminal" x="275" y="109">;</text>
   <path class="line"
          d="m17 105 h2 m0 0 h10 m68 0 h10 m20 0 h10 m88 0 h10 m-128 0 l20 0 m-1 0 q-9 0 -9 -10 l0 -24 q0 -10 10 -10 m108 44 l20 0 m-20 0 q10 0 10 -10 l0 -24 q0 -10 -10 -10 m-108 0 h10 m24 0 h10 m0 0 h64 m-118 10 l0 -44 q0 -10 10 -10 m118 54 l0 -44 q0 -10 -10 -10 m-108 0 h10 m30 0 h10 m0 0 h58 m20 88 h10 m24 0 h10 m3 0 h-3"/>
   <polygon points="309 105 317 101 317 109"/>
   <polygon points="309 105 301 101 301 109"/>
</svg>
