<?xml version="1.0" encoding="UTF-8"?>
<svg xmlns="http://www.w3.org/2000/svg" width="873" height="81">
   <defs>
      <style type="text/css">
    @namespace "http://www.w3.org/2000/svg";
    .line                 {fill: none; stroke: #332900; stroke-width: 1;}
    .bold-line            {stroke: #141000; shape-rendering: crispEdges; stroke-width: 2;}
    .thin-line            {stroke: #1F1800; shape-rendering: crispEdges}
    .filled               {fill: #332900; stroke: none;}
    text.terminal         {font-family: Verdana, Sans-serif;
                            font-size: 12px;
                            fill: #141000;
                            font-weight: bold;
                          }
    text.nonterminal      {font-family: Verdana, Sans-serif;
                            font-size: 12px;
                            fill: #1A1400;
                            font-weight: normal;
                          }
    text.regexp           {font-family: Verdana, Sans-serif;
                            font-size: 12px;
                            fill: #1F1800;
                            font-weight: normal;
                          }
    rect, circle, polygon {fill: #332900; stroke: #332900;}
    rect.terminal         {fill: #FFDB4D; stroke: #332900; stroke-width: 1;}
    rect.nonterminal      {fill: #FFEC9E; stroke: #332900; stroke-width: 1;}
    rect.text             {fill: none; stroke: none;}
    polygon.regexp        {fill: #FFF4C7; stroke: #332900; stroke-width: 1;}
  </style>
   </defs>
   <polygon points="9 17 1 13 1 21"/>
   <polygon points="17 17 9 13 9 21"/>
   <a xmlns:xlink="http://www.w3.org/1999/xlink"
       xlink:href="#NonTypeId"
       xlink:title="NonTypeId">
      <rect x="31" y="3" width="88" height="32"/>
      <rect x="29" y="1" width="88" height="32" class="nonterminal"/>
      <text class="nonterminal" x="39" y="21">NonTypeId</text>
   </a>
   <rect x="159" y="3" width="36" height="32" rx="10"/>
   <rect x="157"
          y="1"
          width="36"
          height="32"
          class="terminal"
          rx="10"/>
   <text class="terminal" x="167" y="21">-&gt;</text>
   <rect x="159" y="47" width="50" height="32" rx="10"/>
   <rect x="157"
          y="45"
          width="50"
          height="32"
          class="terminal"
          rx="10"/>
   <text class="terminal" x="167" y="65">-u-&gt;</text>
   <a xmlns:xlink="http://www.w3.org/1999/xlink"
       xlink:href="#NonTypeId"
       xlink:title="NonTypeId">
      <rect x="249" y="3" width="88" height="32"/>
      <rect x="247" y="1" width="88" height="32" class="nonterminal"/>
      <text class="nonterminal" x="257" y="21">NonTypeId</text>
   </a>
   <rect x="357" y="3" width="28" height="32" rx="10"/>
   <rect x="355"
          y="1"
          width="28"
          height="32"
          class="terminal"
          rx="10"/>
   <text class="terminal" x="365" y="21">{</text>
   <a xmlns:xlink="http://www.w3.org/1999/xlink"
       xlink:href="#Select"
       xlink:title="Select">
      <rect x="405" y="3" width="58" height="32"/>
      <rect x="403" y="1" width="58" height="32" class="nonterminal"/>
      <text class="nonterminal" x="413" y="21">Select</text>
   </a>
   <a xmlns:xlink="http://www.w3.org/1999/xlink"
       xlink:href="#Guard"
       xlink:title="Guard">
      <rect x="483" y="3" width="58" height="32"/>
      <rect x="481" y="1" width="58" height="32" class="nonterminal"/>
      <text class="nonterminal" x="491" y="21">Guard</text>
   </a>
   <a xmlns:xlink="http://www.w3.org/1999/xlink"
       xlink:href="#Sync"
       xlink:title="Sync">
      <rect x="561" y="3" width="48" height="32"/>
      <rect x="559" y="1" width="48" height="32" class="nonterminal"/>
      <text class="nonterminal" x="569" y="21">Sync</text>
   </a>
   <a xmlns:xlink="http://www.w3.org/1999/xlink"
       xlink:href="#Assign"
       xlink:title="Assign">
      <rect x="629" y="3" width="62" height="32"/>
      <rect x="627" y="1" width="62" height="32" class="nonterminal"/>
      <text class="nonterminal" x="637" y="21">Assign</text>
   </a>
   <a xmlns:xlink="http://www.w3.org/1999/xlink"
       xlink:href="#Probability"
       xlink:title="Probability">
      <rect x="711" y="3" width="86" height="32"/>
      <rect x="709" y="1" width="86" height="32" class="nonterminal"/>
      <text class="nonterminal" x="719" y="21">Probability</text>
   </a>
   <rect x="817" y="3" width="28" height="32" rx="10"/>
   <rect x="815"
          y="1"
          width="28"
          height="32"
          class="terminal"
          rx="10"/>
   <text class="terminal" x="825" y="21">}</text>
   <path class="line"
          d="m17 17 h2 m0 0 h10 m88 0 h10 m20 0 h10 m36 0 h10 m0 0 h14 m-90 0 h20 m70 0 h20 m-110 0 q10 0 10 10 m90 0 q0 -10 10 -10 m-100 10 v24 m90 0 v-24 m-90 24 q0 10 10 10 m70 0 q10 0 10 -10 m-80 10 h10 m50 0 h10 m20 -44 h10 m88 0 h10 m0 0 h10 m28 0 h10 m0 0 h10 m58 0 h10 m0 0 h10 m58 0 h10 m0 0 h10 m48 0 h10 m0 0 h10 m62 0 h10 m0 0 h10 m86 0 h10 m0 0 h10 m28 0 h10 m3 0 h-3"/>
   <polygon points="863 17 871 13 871 21"/>
   <polygon points="863 17 855 13 855 21"/>
</svg>
