<?xml version="1.0" encoding="UTF-8"?>
<svg xmlns="http://www.w3.org/2000/svg" width="699" height="125">
   <defs>
      <style type="text/css">
    @namespace "http://www.w3.org/2000/svg";
    .line                 {fill: none; stroke: #332900; stroke-width: 1;}
    .bold-line            {stroke: #141000; shape-rendering: crispEdges; stroke-width: 2;}
    .thin-line            {stroke: #1F1800; shape-rendering: crispEdges}
    .filled               {fill: #332900; stroke: none;}
    text.terminal         {font-family: Verdana, Sans-serif;
                            font-size: 12px;
                            fill: #141000;
                            font-weight: bold;
                          }
    text.nonterminal      {font-family: Verdana, Sans-serif;
                            font-size: 12px;
                            fill: #1A1400;
                            font-weight: normal;
                          }
    text.regexp           {font-family: Verdana, Sans-serif;
                            font-size: 12px;
                            fill: #1F1800;
                            font-weight: normal;
                          }
    rect, circle, polygon {fill: #332900; stroke: #332900;}
    rect.terminal         {fill: #FFDB4D; stroke: #332900; stroke-width: 1;}
    rect.nonterminal      {fill: #FFEC9E; stroke: #332900; stroke-width: 1;}
    rect.text             {fill: none; stroke: none;}
    polygon.regexp        {fill: #FFF4C7; stroke: #332900; stroke-width: 1;}
  </style>
   </defs>
   <polygon points="9 17 1 13 1 21"/>
   <polygon points="17 17 9 13 9 21"/>
   <rect x="71" y="3" width="36" height="32" rx="10"/>
   <rect x="69"
          y="1"
          width="36"
          height="32"
          class="terminal"
          rx="10"/>
   <text class="terminal" x="79" y="21">-&gt;</text>
   <rect x="71" y="47" width="50" height="32" rx="10"/>
   <rect x="69"
          y="45"
          width="50"
          height="32"
          class="terminal"
          rx="10"/>
   <text class="terminal" x="79" y="65">-u-&gt;</text>
   <a xmlns:xlink="http://www.w3.org/1999/xlink"
       xlink:href="#NonTypeId"
       xlink:title="NonTypeId">
      <rect x="161" y="3" width="88" height="32"/>
      <rect x="159" y="1" width="88" height="32" class="nonterminal"/>
      <text class="nonterminal" x="169" y="21">NonTypeId</text>
   </a>
   <rect x="269" y="3" width="28" height="32" rx="10"/>
   <rect x="267"
          y="1"
          width="28"
          height="32"
          class="terminal"
          rx="10"/>
   <text class="terminal" x="277" y="21">{</text>
   <a xmlns:xlink="http://www.w3.org/1999/xlink"
       xlink:href="#Select"
       xlink:title="Select">
      <rect x="317" y="3" width="58" height="32"/>
      <rect x="315" y="1" width="58" height="32" class="nonterminal"/>
      <text class="nonterminal" x="325" y="21">Select</text>
   </a>
   <a xmlns:xlink="http://www.w3.org/1999/xlink"
       xlink:href="#Guard"
       xlink:title="Guard">
      <rect x="395" y="3" width="58" height="32"/>
      <rect x="393" y="1" width="58" height="32" class="nonterminal"/>
      <text class="nonterminal" x="403" y="21">Guard</text>
   </a>
   <a xmlns:xlink="http://www.w3.org/1999/xlink"
       xlink:href="#Sync"
       xlink:title="Sync">
      <rect x="473" y="3" width="48" height="32"/>
      <rect x="471" y="1" width="48" height="32" class="nonterminal"/>
      <text class="nonterminal" x="481" y="21">Sync</text>
   </a>
   <a xmlns:xlink="http://www.w3.org/1999/xlink"
       xlink:href="#Assign"
       xlink:title="Assign">
      <rect x="541" y="3" width="62" height="32"/>
      <rect x="539" y="1" width="62" height="32" class="nonterminal"/>
      <text class="nonterminal" x="549" y="21">Assign</text>
   </a>
   <rect x="623" y="3" width="28" height="32" rx="10"/>
   <rect x="621"
          y="1"
          width="28"
          height="32"
          class="terminal"
          rx="10"/>
   <text class="terminal" x="631" y="21">}</text>
   <a xmlns:xlink="http://www.w3.org/1999/xlink"
       xlink:href="#Transition"
       xlink:title="Transition">
      <rect x="51" y="91" width="82" height="32"/>
      <rect x="49" y="89" width="82" height="32" class="nonterminal"/>
      <text class="nonterminal" x="59" y="109">Transition</text>
   </a>
   <path class="line"
          d="m17 17 h2 m40 0 h10 m36 0 h10 m0 0 h14 m-90 0 h20 m70 0 h20 m-110 0 q10 0 10 10 m90 0 q0 -10 10 -10 m-100 10 v24 m90 0 v-24 m-90 24 q0 10 10 10 m70 0 q10 0 10 -10 m-80 10 h10 m50 0 h10 m20 -44 h10 m88 0 h10 m0 0 h10 m28 0 h10 m0 0 h10 m58 0 h10 m0 0 h10 m58 0 h10 m0 0 h10 m48 0 h10 m0 0 h10 m62 0 h10 m0 0 h10 m28 0 h10 m-640 0 h20 m620 0 h20 m-660 0 q10 0 10 10 m640 0 q0 -10 10 -10 m-650 10 v68 m640 0 v-68 m-640 68 q0 10 10 10 m620 0 q10 0 10 -10 m-630 10 h10 m82 0 h10 m0 0 h518 m23 -88 h-3"/>
   <polygon points="689 17 697 13 697 21"/>
   <polygon points="689 17 681 13 681 21"/>
</svg>
