<?xml version="1.0" encoding="UTF-8"?>
<svg xmlns="http://www.w3.org/2000/svg" width="547" height="85">
   <defs>
      <style type="text/css">
    @namespace "http://www.w3.org/2000/svg";
    .line                 {fill: none; stroke: #332900; stroke-width: 1;}
    .bold-line            {stroke: #141000; shape-rendering: crispEdges; stroke-width: 2;}
    .thin-line            {stroke: #1F1800; shape-rendering: crispEdges}
    .filled               {fill: #332900; stroke: none;}
    text.terminal         {font-family: Verdana, Sans-serif;
                            font-size: 12px;
                            fill: #141000;
                            font-weight: bold;
                          }
    text.nonterminal      {font-family: Verdana, Sans-serif;
                            font-size: 12px;
                            fill: #1A1400;
                            font-weight: normal;
                          }
    text.regexp           {font-family: Verdana, Sans-serif;
                            font-size: 12px;
                            fill: #1F1800;
                            font-weight: normal;
                          }
    rect, circle, polygon {fill: #332900; stroke: #332900;}
    rect.terminal         {fill: #FFDB4D; stroke: #332900; stroke-width: 1;}
    rect.nonterminal      {fill: #FFEC9E; stroke: #332900; stroke-width: 1;}
    rect.text             {fill: none; stroke: none;}
    polygon.regexp        {fill: #FFF4C7; stroke: #332900; stroke-width: 1;}
  </style>
   </defs>
   <polygon points="9 33 1 29 1 37"/>
   <polygon points="17 33 9 29 9 37"/>
   <rect x="51" y="19" width="54" height="32" rx="10"/>
   <rect x="49"
          y="17"
          width="54"
          height="32"
          class="terminal"
          rx="10"/>
   <text class="terminal" x="59" y="37">trans</text>
   <a xmlns:xlink="http://www.w3.org/1999/xlink"
       xlink:href="#Transition"
       xlink:title="Transition">
      <rect x="125" y="19" width="82" height="32"/>
      <rect x="123" y="17" width="82" height="32" class="nonterminal"/>
      <text class="nonterminal" x="133" y="37">Transition</text>
   </a>
   <rect x="267" y="19" width="24" height="32" rx="10"/>
   <rect x="265"
          y="17"
          width="24"
          height="32"
          class="terminal"
          rx="10"/>
   <text class="terminal" x="275" y="37">,</text>
   <a xmlns:xlink="http://www.w3.org/1999/xlink"
       xlink:href="#TransitionOpt"
       xlink:title="TransitionOpt">
      <rect x="311" y="19" width="104" height="32"/>
      <rect x="309" y="17" width="104" height="32" class="nonterminal"/>
      <text class="nonterminal" x="319" y="37">TransitionOpt</text>
   </a>
   <rect x="475" y="19" width="24" height="32" rx="10"/>
   <rect x="473"
          y="17"
          width="24"
          height="32"
          class="terminal"
          rx="10"/>
   <text class="terminal" x="483" y="37">;</text>
   <path class="line"
          d="m17 33 h2 m20 0 h10 m54 0 h10 m0 0 h10 m82 0 h10 m40 0 h10 m24 0 h10 m0 0 h10 m104 0 h10 m-188 0 l20 0 m-1 0 q-9 0 -9 -10 l0 -12 q0 -10 10 -10 m168 32 l20 0 m-20 0 q10 0 10 -10 l0 -12 q0 -10 -10 -10 m-168 0 h10 m0 0 h158 m-208 32 h20 m208 0 h20 m-248 0 q10 0 10 10 m228 0 q0 -10 10 -10 m-238 10 v14 m228 0 v-14 m-228 14 q0 10 10 10 m208 0 q10 0 10 -10 m-218 10 h10 m0 0 h198 m20 -34 h10 m24 0 h10 m-488 0 h20 m468 0 h20 m-508 0 q10 0 10 10 m488 0 q0 -10 10 -10 m-498 10 v30 m488 0 v-30 m-488 30 q0 10 10 10 m468 0 q10 0 10 -10 m-478 10 h10 m0 0 h458 m23 -50 h-3"/>
   <polygon points="537 33 545 29 545 37"/>
   <polygon points="537 33 529 29 529 37"/>
</svg>
