<?xml version="1.0" encoding="UTF-8"?>
<svg xmlns="http://www.w3.org/2000/svg" width="309" height="201">
   <defs>
      <style type="text/css">
    @namespace "http://www.w3.org/2000/svg";
    .line                 {fill: none; stroke: #332900; stroke-width: 1;}
    .bold-line            {stroke: #141000; shape-rendering: crispEdges; stroke-width: 2;}
    .thin-line            {stroke: #1F1800; shape-rendering: crispEdges}
    .filled               {fill: #332900; stroke: none;}
    text.terminal         {font-family: Verdana, Sans-serif;
                            font-size: 12px;
                            fill: #141000;
                            font-weight: bold;
                          }
    text.nonterminal      {font-family: Verdana, Sans-serif;
                            font-size: 12px;
                            fill: #1A1400;
                            font-weight: normal;
                          }
    text.regexp           {font-family: Verdana, Sans-serif;
                            font-size: 12px;
                            fill: #1F1800;
                            font-weight: normal;
                          }
    rect, circle, polygon {fill: #332900; stroke: #332900;}
    rect.terminal         {fill: #FFDB4D; stroke: #332900; stroke-width: 1;}
    rect.nonterminal      {fill: #FFEC9E; stroke: #332900; stroke-width: 1;}
    rect.text             {fill: none; stroke: none;}
    polygon.regexp        {fill: #FFF4C7; stroke: #332900; stroke-width: 1;}
  </style>
   </defs>
   <polygon points="9 17 1 13 1 21"/>
   <polygon points="17 17 9 13 9 21"/>
   <rect x="51" y="3" width="64" height="32" rx="10"/>
   <rect x="49"
          y="1"
          width="64"
          height="32"
          class="terminal"
          rx="10"/>
   <text class="terminal" x="59" y="21">urgent</text>
   <rect x="155" y="35" width="86" height="32" rx="10"/>
   <rect x="153"
          y="33"
          width="86"
          height="32"
          class="terminal"
          rx="10"/>
   <text class="terminal" x="163" y="53">broadcast</text>
   <rect x="51" y="79" width="86" height="32" rx="10"/>
   <rect x="49"
          y="77"
          width="86"
          height="32"
          class="terminal"
          rx="10"/>
   <text class="terminal" x="59" y="97">broadcast</text>
   <rect x="51" y="123" width="56" height="32" rx="10"/>
   <rect x="49"
          y="121"
          width="56"
          height="32"
          class="terminal"
          rx="10"/>
   <text class="terminal" x="59" y="141">const</text>
   <rect x="51" y="167" width="54" height="32" rx="10"/>
   <rect x="49"
          y="165"
          width="54"
          height="32"
          class="terminal"
          rx="10"/>
   <text class="terminal" x="59" y="185">meta</text>
   <path class="line"
          d="m17 17 h2 m20 0 h10 m64 0 h10 m20 0 h10 m0 0 h96 m-126 0 h20 m106 0 h20 m-146 0 q10 0 10 10 m126 0 q0 -10 10 -10 m-136 10 v12 m126 0 v-12 m-126 12 q0 10 10 10 m106 0 q10 0 10 -10 m-116 10 h10 m86 0 h10 m-230 -32 h20 m230 0 h20 m-270 0 q10 0 10 10 m250 0 q0 -10 10 -10 m-260 10 v56 m250 0 v-56 m-250 56 q0 10 10 10 m230 0 q10 0 10 -10 m-240 10 h10 m86 0 h10 m0 0 h124 m-240 -10 v20 m250 0 v-20 m-250 20 v24 m250 0 v-24 m-250 24 q0 10 10 10 m230 0 q10 0 10 -10 m-240 10 h10 m56 0 h10 m0 0 h154 m-240 -10 v20 m250 0 v-20 m-250 20 v24 m250 0 v-24 m-250 24 q0 10 10 10 m230 0 q10 0 10 -10 m-240 10 h10 m54 0 h10 m0 0 h156 m23 -164 h-3"/>
   <polygon points="299 17 307 13 307 21"/>
   <polygon points="299 17 291 13 291 21"/>
</svg>
