<?xml version="1.0" encoding="UTF-8"?>
<svg xmlns="http://www.w3.org/2000/svg" width="423" height="917">
   <defs>
      <style type="text/css">
    @namespace "http://www.w3.org/2000/svg";
    .line                 {fill: none; stroke: #332900; stroke-width: 1;}
    .bold-line            {stroke: #141000; shape-rendering: crispEdges; stroke-width: 2;}
    .thin-line            {stroke: #1F1800; shape-rendering: crispEdges}
    .filled               {fill: #332900; stroke: none;}
    text.terminal         {font-family: Verdana, Sans-serif;
                            font-size: 12px;
                            fill: #141000;
                            font-weight: bold;
                          }
    text.nonterminal      {font-family: Verdana, Sans-serif;
                            font-size: 12px;
                            fill: #1A1400;
                            font-weight: normal;
                          }
    text.regexp           {font-family: Verdana, Sans-serif;
                            font-size: 12px;
                            fill: #1F1800;
                            font-weight: normal;
                          }
    rect, circle, polygon {fill: #332900; stroke: #332900;}
    rect.terminal         {fill: #FFDB4D; stroke: #332900; stroke-width: 1;}
    rect.nonterminal      {fill: #FFEC9E; stroke: #332900; stroke-width: 1;}
    rect.text             {fill: none; stroke: none;}
    polygon.regexp        {fill: #FFF4C7; stroke: #332900; stroke-width: 1;}
  </style>
   </defs>
   <polygon points="9 17 1 13 1 21"/>
   <polygon points="17 17 9 13 9 21"/>
   <a xmlns:xlink="http://www.w3.org/1999/xlink"
       xlink:href="#T_NEW"
       xlink:title="T_NEW">
      <rect x="71" y="3" width="64" height="32"/>
      <rect x="69" y="1" width="64" height="32" class="nonterminal"/>
      <text class="nonterminal" x="79" y="21">T_NEW</text>
   </a>
   <a xmlns:xlink="http://www.w3.org/1999/xlink"
       xlink:href="#T_NEW_SYSTEM"
       xlink:title="T_NEW_SYSTEM">
      <rect x="71" y="47" width="122" height="32"/>
      <rect x="69" y="45" width="122" height="32" class="nonterminal"/>
      <text class="nonterminal" x="79" y="65">T_NEW_SYSTEM</text>
   </a>
   <a xmlns:xlink="http://www.w3.org/1999/xlink"
       xlink:href="#XTA"
       xlink:title="XTA">
      <rect x="233" y="3" width="42" height="32"/>
      <rect x="231" y="1" width="42" height="32" class="nonterminal"/>
      <text class="nonterminal" x="241" y="21">XTA</text>
   </a>
   <a xmlns:xlink="http://www.w3.org/1999/xlink"
       xlink:href="#T_NEW_DECLARATION"
       xlink:title="T_NEW_DECLARATION">
      <rect x="71" y="91" width="160" height="32"/>
      <rect x="69" y="89" width="160" height="32" class="nonterminal"/>
      <text class="nonterminal" x="79" y="109">T_NEW_DECLARATION</text>
   </a>
   <a xmlns:xlink="http://www.w3.org/1999/xlink"
       xlink:href="#T_NEW_INST"
       xlink:title="T_NEW_INST">
      <rect x="71" y="135" width="102" height="32"/>
      <rect x="69" y="133" width="102" height="32" class="nonterminal"/>
      <text class="nonterminal" x="79" y="153">T_NEW_INST</text>
   </a>
   <a xmlns:xlink="http://www.w3.org/1999/xlink"
       xlink:href="#Declarations"
       xlink:title="Declarations">
      <rect x="271" y="91" width="98" height="32"/>
      <rect x="269" y="89" width="98" height="32" class="nonterminal"/>
      <text class="nonterminal" x="279" y="109">Declarations</text>
   </a>
   <a xmlns:xlink="http://www.w3.org/1999/xlink"
       xlink:href="#T_NEW_LOCAL_DECL"
       xlink:title="T_NEW_LOCAL_DECL">
      <rect x="51" y="179" width="154" height="32"/>
      <rect x="49" y="177" width="154" height="32" class="nonterminal"/>
      <text class="nonterminal" x="59" y="197">T_NEW_LOCAL_DECL</text>
   </a>
   <a xmlns:xlink="http://www.w3.org/1999/xlink"
       xlink:href="#ProcLocalDeclList"
       xlink:title="ProcLocalDeclList">
      <rect x="225" y="179" width="128" height="32"/>
      <rect x="223" y="177" width="128" height="32" class="nonterminal"/>
      <text class="nonterminal" x="233" y="197">ProcLocalDeclList</text>
   </a>
   <a xmlns:xlink="http://www.w3.org/1999/xlink"
       xlink:href="#T_NEW_PARAMETERS"
       xlink:title="T_NEW_PARAMETERS">
      <rect x="51" y="223" width="154" height="32"/>
      <rect x="49" y="221" width="154" height="32" class="nonterminal"/>
      <text class="nonterminal" x="59" y="241">T_NEW_PARAMETERS</text>
   </a>
   <a xmlns:xlink="http://www.w3.org/1999/xlink"
       xlink:href="#ParameterList"
       xlink:title="ParameterList">
      <rect x="225" y="223" width="108" height="32"/>
      <rect x="223" y="221" width="108" height="32" class="nonterminal"/>
      <text class="nonterminal" x="233" y="241">ParameterList</text>
   </a>
   <a xmlns:xlink="http://www.w3.org/1999/xlink"
       xlink:href="#T_NEW_INVARIANT"
       xlink:title="T_NEW_INVARIANT">
      <rect x="71" y="267" width="140" height="32"/>
      <rect x="69" y="265" width="140" height="32" class="nonterminal"/>
      <text class="nonterminal" x="79" y="285">T_NEW_INVARIANT</text>
   </a>
   <a xmlns:xlink="http://www.w3.org/1999/xlink"
       xlink:href="#T_NEW_GUARD"
       xlink:title="T_NEW_GUARD">
      <rect x="71" y="311" width="116" height="32"/>
      <rect x="69" y="309" width="116" height="32" class="nonterminal"/>
      <text class="nonterminal" x="79" y="329">T_NEW_GUARD</text>
   </a>
   <rect x="71" y="355" width="92" height="32" rx="10"/>
   <rect x="69"
          y="353"
          width="92"
          height="32"
          class="terminal"
          rx="10"/>
   <text class="terminal" x="79" y="373">probability</text>
   <a xmlns:xlink="http://www.w3.org/1999/xlink"
       xlink:href="#T_EXPRESSION"
       xlink:title="T_EXPRESSION">
      <rect x="71" y="399" width="114" height="32"/>
      <rect x="69" y="397" width="114" height="32" class="nonterminal"/>
      <text class="nonterminal" x="79" y="417">T_EXPRESSION</text>
   </a>
   <a xmlns:xlink="http://www.w3.org/1999/xlink"
       xlink:href="#T_CONDITION"
       xlink:title="T_CONDITION">
      <rect x="71" y="443" width="106" height="32"/>
      <rect x="69" y="441" width="106" height="32" class="nonterminal"/>
      <text class="nonterminal" x="79" y="461">T_CONDITION</text>
   </a>
   <a xmlns:xlink="http://www.w3.org/1999/xlink"
       xlink:href="#Expression"
       xlink:title="Expression">
      <rect x="251" y="267" width="90" height="32"/>
      <rect x="249" y="265" width="90" height="32" class="nonterminal"/>
      <text class="nonterminal" x="259" y="285">Expression</text>
   </a>
   <a xmlns:xlink="http://www.w3.org/1999/xlink"
       xlink:href="#T_NEW_SELECT"
       xlink:title="T_NEW_SELECT">
      <rect x="51" y="487" width="120" height="32"/>
      <rect x="49" y="485" width="120" height="32" class="nonterminal"/>
      <text class="nonterminal" x="59" y="505">T_NEW_SELECT</text>
   </a>
   <a xmlns:xlink="http://www.w3.org/1999/xlink"
       xlink:href="#SelectList"
       xlink:title="SelectList">
      <rect x="191" y="487" width="80" height="32"/>
      <rect x="189" y="485" width="80" height="32" class="nonterminal"/>
      <text class="nonterminal" x="199" y="505">SelectList</text>
   </a>
   <a xmlns:xlink="http://www.w3.org/1999/xlink"
       xlink:href="#T_NEW_SYNC"
       xlink:title="T_NEW_SYNC">
      <rect x="51" y="531" width="106" height="32"/>
      <rect x="49" y="529" width="106" height="32" class="nonterminal"/>
      <text class="nonterminal" x="59" y="549">T_NEW_SYNC</text>
   </a>
   <a xmlns:xlink="http://www.w3.org/1999/xlink"
       xlink:href="#SyncExpr"
       xlink:title="SyncExpr">
      <rect x="177" y="531" width="78" height="32"/>
      <rect x="175" y="529" width="78" height="32" class="nonterminal"/>
      <text class="nonterminal" x="185" y="549">SyncExpr</text>
   </a>
   <a xmlns:xlink="http://www.w3.org/1999/xlink"
       xlink:href="#T_NEW_ASSIGN"
       xlink:title="T_NEW_ASSIGN">
      <rect x="71" y="575" width="120" height="32"/>
      <rect x="69" y="573" width="120" height="32" class="nonterminal"/>
      <text class="nonterminal" x="79" y="593">T_NEW_ASSIGN</text>
   </a>
   <a xmlns:xlink="http://www.w3.org/1999/xlink"
       xlink:href="#T_EXPRESSION_LIST"
       xlink:title="T_EXPRESSION_LIST">
      <rect x="71" y="619" width="150" height="32"/>
      <rect x="69" y="617" width="150" height="32" class="nonterminal"/>
      <text class="nonterminal" x="79" y="637">T_EXPRESSION_LIST</text>
   </a>
   <a xmlns:xlink="http://www.w3.org/1999/xlink"
       xlink:href="#T_UPDATE"
       xlink:title="T_UPDATE">
      <rect x="71" y="663" width="84" height="32"/>
      <rect x="69" y="661" width="84" height="32" class="nonterminal"/>
      <text class="nonterminal" x="79" y="681">T_UPDATE</text>
   </a>
   <a xmlns:xlink="http://www.w3.org/1999/xlink"
       xlink:href="#ExprList"
       xlink:title="ExprList">
      <rect x="261" y="575" width="70" height="32"/>
      <rect x="259" y="573" width="70" height="32" class="nonterminal"/>
      <text class="nonterminal" x="269" y="593">ExprList</text>
   </a>
   <a xmlns:xlink="http://www.w3.org/1999/xlink"
       xlink:href="#T_PROPERTY"
       xlink:title="T_PROPERTY">
      <rect x="51" y="707" width="98" height="32"/>
      <rect x="49" y="705" width="98" height="32" class="nonterminal"/>
      <text class="nonterminal" x="59" y="725">T_PROPERTY</text>
   </a>
   <a xmlns:xlink="http://www.w3.org/1999/xlink"
       xlink:href="#QueryList"
       xlink:title="QueryList">
      <rect x="169" y="707" width="80" height="32"/>
      <rect x="167" y="705" width="80" height="32" class="nonterminal"/>
      <text class="nonterminal" x="177" y="725">QueryList</text>
   </a>
   <a xmlns:xlink="http://www.w3.org/1999/xlink"
       xlink:href="#T_XTA_PROCESS"
       xlink:title="T_XTA_PROCESS">
      <rect x="51" y="751" width="124" height="32"/>
      <rect x="49" y="749" width="124" height="32" class="nonterminal"/>
      <text class="nonterminal" x="59" y="769">T_XTA_PROCESS</text>
   </a>
   <a xmlns:xlink="http://www.w3.org/1999/xlink"
       xlink:href="#ProcDecl"
       xlink:title="ProcDecl">
      <rect x="195" y="751" width="74" height="32"/>
      <rect x="193" y="749" width="74" height="32" class="nonterminal"/>
      <text class="nonterminal" x="203" y="769">ProcDecl</text>
   </a>
   <a xmlns:xlink="http://www.w3.org/1999/xlink"
       xlink:href="#T_EXPONENTIAL_RATE"
       xlink:title="T_EXPONENTIAL_RATE">
      <rect x="51" y="795" width="160" height="32"/>
      <rect x="49" y="793" width="160" height="32" class="nonterminal"/>
      <text class="nonterminal" x="59" y="813">T_EXPONENTIAL_RATE</text>
   </a>
   <a xmlns:xlink="http://www.w3.org/1999/xlink"
       xlink:href="#ExpRate"
       xlink:title="ExpRate">
      <rect x="231" y="795" width="72" height="32"/>
      <rect x="229" y="793" width="72" height="32" class="nonterminal"/>
      <text class="nonterminal" x="239" y="813">ExpRate</text>
   </a>
   <a xmlns:xlink="http://www.w3.org/1999/xlink"
       xlink:href="#T_MESSAGE"
       xlink:title="T_MESSAGE">
      <rect x="51" y="839" width="94" height="32"/>
      <rect x="49" y="837" width="94" height="32" class="nonterminal"/>
      <text class="nonterminal" x="59" y="857">T_MESSAGE</text>
   </a>
   <a xmlns:xlink="http://www.w3.org/1999/xlink"
       xlink:href="#MessExpr"
       xlink:title="MessExpr">
      <rect x="165" y="839" width="80" height="32"/>
      <rect x="163" y="837" width="80" height="32" class="nonterminal"/>
      <text class="nonterminal" x="173" y="857">MessExpr</text>
   </a>
   <a xmlns:xlink="http://www.w3.org/1999/xlink"
       xlink:href="#T_INSTANCE_LINE"
       xlink:title="T_INSTANCE_LINE">
      <rect x="51" y="883" width="134" height="32"/>
      <rect x="49" y="881" width="134" height="32" class="nonterminal"/>
      <text class="nonterminal" x="59" y="901">T_INSTANCE_LINE</text>
   </a>
   <a xmlns:xlink="http://www.w3.org/1999/xlink"
       xlink:href="#InstanceLineExpression"
       xlink:title="InstanceLineExpression">
      <rect x="205" y="883" width="170" height="32"/>
      <rect x="203" y="881" width="170" height="32" class="nonterminal"/>
      <text class="nonterminal" x="213" y="901">InstanceLineExpression</text>
   </a>
   <path class="line"
          d="m17 17 h2 m40 0 h10 m64 0 h10 m0 0 h58 m-162 0 h20 m142 0 h20 m-182 0 q10 0 10 10 m162 0 q0 -10 10 -10 m-172 10 v24 m162 0 v-24 m-162 24 q0 10 10 10 m142 0 q10 0 10 -10 m-152 10 h10 m122 0 h10 m20 -44 h10 m42 0 h10 m0 0 h100 m-364 0 h20 m344 0 h20 m-384 0 q10 0 10 10 m364 0 q0 -10 10 -10 m-374 10 v68 m364 0 v-68 m-364 68 q0 10 10 10 m344 0 q10 0 10 -10 m-334 10 h10 m160 0 h10 m-200 0 h20 m180 0 h20 m-220 0 q10 0 10 10 m200 0 q0 -10 10 -10 m-210 10 v24 m200 0 v-24 m-200 24 q0 10 10 10 m180 0 q10 0 10 -10 m-190 10 h10 m102 0 h10 m0 0 h58 m20 -44 h10 m98 0 h10 m0 0 h6 m-354 -10 v20 m364 0 v-20 m-364 20 v68 m364 0 v-68 m-364 68 q0 10 10 10 m344 0 q10 0 10 -10 m-354 10 h10 m154 0 h10 m0 0 h10 m128 0 h10 m0 0 h22 m-354 -10 v20 m364 0 v-20 m-364 20 v24 m364 0 v-24 m-364 24 q0 10 10 10 m344 0 q10 0 10 -10 m-354 10 h10 m154 0 h10 m0 0 h10 m108 0 h10 m0 0 h42 m-354 -10 v20 m364 0 v-20 m-364 20 v24 m364 0 v-24 m-364 24 q0 10 10 10 m344 0 q10 0 10 -10 m-334 10 h10 m140 0 h10 m-180 0 h20 m160 0 h20 m-200 0 q10 0 10 10 m180 0 q0 -10 10 -10 m-190 10 v24 m180 0 v-24 m-180 24 q0 10 10 10 m160 0 q10 0 10 -10 m-170 10 h10 m116 0 h10 m0 0 h24 m-170 -10 v20 m180 0 v-20 m-180 20 v24 m180 0 v-24 m-180 24 q0 10 10 10 m160 0 q10 0 10 -10 m-170 10 h10 m92 0 h10 m0 0 h48 m-170 -10 v20 m180 0 v-20 m-180 20 v24 m180 0 v-24 m-180 24 q0 10 10 10 m160 0 q10 0 10 -10 m-170 10 h10 m114 0 h10 m0 0 h26 m-170 -10 v20 m180 0 v-20 m-180 20 v24 m180 0 v-24 m-180 24 q0 10 10 10 m160 0 q10 0 10 -10 m-170 10 h10 m106 0 h10 m0 0 h34 m20 -176 h10 m90 0 h10 m0 0 h34 m-354 -10 v20 m364 0 v-20 m-364 20 v200 m364 0 v-200 m-364 200 q0 10 10 10 m344 0 q10 0 10 -10 m-354 10 h10 m120 0 h10 m0 0 h10 m80 0 h10 m0 0 h104 m-354 -10 v20 m364 0 v-20 m-364 20 v24 m364 0 v-24 m-364 24 q0 10 10 10 m344 0 q10 0 10 -10 m-354 10 h10 m106 0 h10 m0 0 h10 m78 0 h10 m0 0 h120 m-354 -10 v20 m364 0 v-20 m-364 20 v24 m364 0 v-24 m-364 24 q0 10 10 10 m344 0 q10 0 10 -10 m-334 10 h10 m120 0 h10 m0 0 h30 m-190 0 h20 m170 0 h20 m-210 0 q10 0 10 10 m190 0 q0 -10 10 -10 m-200 10 v24 m190 0 v-24 m-190 24 q0 10 10 10 m170 0 q10 0 10 -10 m-180 10 h10 m150 0 h10 m-180 -10 v20 m190 0 v-20 m-190 20 v24 m190 0 v-24 m-190 24 q0 10 10 10 m170 0 q10 0 10 -10 m-180 10 h10 m84 0 h10 m0 0 h66 m20 -88 h10 m70 0 h10 m0 0 h44 m-354 -10 v20 m364 0 v-20 m-364 20 v112 m364 0 v-112 m-364 112 q0 10 10 10 m344 0 q10 0 10 -10 m-354 10 h10 m98 0 h10 m0 0 h10 m80 0 h10 m0 0 h126 m-354 -10 v20 m364 0 v-20 m-364 20 v24 m364 0 v-24 m-364 24 q0 10 10 10 m344 0 q10 0 10 -10 m-354 10 h10 m124 0 h10 m0 0 h10 m74 0 h10 m0 0 h106 m-354 -10 v20 m364 0 v-20 m-364 20 v24 m364 0 v-24 m-364 24 q0 10 10 10 m344 0 q10 0 10 -10 m-354 10 h10 m160 0 h10 m0 0 h10 m72 0 h10 m0 0 h72 m-354 -10 v20 m364 0 v-20 m-364 20 v24 m364 0 v-24 m-364 24 q0 10 10 10 m344 0 q10 0 10 -10 m-354 10 h10 m94 0 h10 m0 0 h10 m80 0 h10 m0 0 h130 m-354 -10 v20 m364 0 v-20 m-364 20 v24 m364 0 v-24 m-364 24 q0 10 10 10 m344 0 q10 0 10 -10 m-354 10 h10 m134 0 h10 m0 0 h10 m170 0 h10 m23 -880 h-3"/>
   <polygon points="413 17 421 13 421 21"/>
   <polygon points="413 17 405 13 405 21"/>
</svg>
