<?xml version="1.0" encoding="UTF-8"?>
<svg xmlns="http://www.w3.org/2000/svg" width="543" height="81">
   <defs>
      <style type="text/css">
    @namespace "http://www.w3.org/2000/svg";
    .line                 {fill: none; stroke: #332900; stroke-width: 1;}
    .bold-line            {stroke: #141000; shape-rendering: crispEdges; stroke-width: 2;}
    .thin-line            {stroke: #1F1800; shape-rendering: crispEdges}
    .filled               {fill: #332900; stroke: none;}
    text.terminal         {font-family: Verdana, Sans-serif;
                            font-size: 12px;
                            fill: #141000;
                            font-weight: bold;
                          }
    text.nonterminal      {font-family: Verdana, Sans-serif;
                            font-size: 12px;
                            fill: #1A1400;
                            font-weight: normal;
                          }
    text.regexp           {font-family: Verdana, Sans-serif;
                            font-size: 12px;
                            fill: #1F1800;
                            font-weight: normal;
                          }
    rect, circle, polygon {fill: #332900; stroke: #332900;}
    rect.terminal         {fill: #FFDB4D; stroke: #332900; stroke-width: 1;}
    rect.nonterminal      {fill: #FFEC9E; stroke: #332900; stroke-width: 1;}
    rect.text             {fill: none; stroke: none;}
    polygon.regexp        {fill: #FFF4C7; stroke: #332900; stroke-width: 1;}
  </style>
   </defs>
   <polygon points="9 17 1 13 1 21"/>
   <polygon points="17 17 9 13 9 21"/>
   <rect x="51" y="3" width="56" height="32" rx="10"/>
   <rect x="49"
          y="1"
          width="56"
          height="32"
          class="terminal"
          rx="10"/>
   <text class="terminal" x="59" y="21">while</text>
   <rect x="127" y="3" width="26" height="32" rx="10"/>
   <rect x="125"
          y="1"
          width="26"
          height="32"
          class="terminal"
          rx="10"/>
   <text class="terminal" x="135" y="21">(</text>
   <a xmlns:xlink="http://www.w3.org/1999/xlink"
       xlink:href="#ExprList"
       xlink:title="ExprList">
      <rect x="173" y="3" width="70" height="32"/>
      <rect x="171" y="1" width="70" height="32" class="nonterminal"/>
      <text class="nonterminal" x="181" y="21">ExprList</text>
   </a>
   <rect x="263" y="3" width="26" height="32" rx="10"/>
   <rect x="261"
          y="1"
          width="26"
          height="32"
          class="terminal"
          rx="10"/>
   <text class="terminal" x="271" y="21">)</text>
   <a xmlns:xlink="http://www.w3.org/1999/xlink"
       xlink:href="#Statement"
       xlink:title="Statement">
      <rect x="309" y="3" width="86" height="32"/>
      <rect x="307" y="1" width="86" height="32" class="nonterminal"/>
      <text class="nonterminal" x="317" y="21">Statement</text>
   </a>
   <rect x="51" y="47" width="36" height="32" rx="10"/>
   <rect x="49"
          y="45"
          width="36"
          height="32"
          class="terminal"
          rx="10"/>
   <text class="terminal" x="59" y="65">do</text>
   <a xmlns:xlink="http://www.w3.org/1999/xlink"
       xlink:href="#Statement"
       xlink:title="Statement">
      <rect x="107" y="47" width="86" height="32"/>
      <rect x="105" y="45" width="86" height="32" class="nonterminal"/>
      <text class="nonterminal" x="115" y="65">Statement</text>
   </a>
   <rect x="213" y="47" width="56" height="32" rx="10"/>
   <rect x="211"
          y="45"
          width="56"
          height="32"
          class="terminal"
          rx="10"/>
   <text class="terminal" x="221" y="65">while</text>
   <rect x="289" y="47" width="26" height="32" rx="10"/>
   <rect x="287"
          y="45"
          width="26"
          height="32"
          class="terminal"
          rx="10"/>
   <text class="terminal" x="297" y="65">(</text>
   <a xmlns:xlink="http://www.w3.org/1999/xlink"
       xlink:href="#ExprList"
       xlink:title="ExprList">
      <rect x="335" y="47" width="70" height="32"/>
      <rect x="333" y="45" width="70" height="32" class="nonterminal"/>
      <text class="nonterminal" x="343" y="65">ExprList</text>
   </a>
   <rect x="425" y="47" width="26" height="32" rx="10"/>
   <rect x="423"
          y="45"
          width="26"
          height="32"
          class="terminal"
          rx="10"/>
   <text class="terminal" x="433" y="65">)</text>
   <rect x="471" y="47" width="24" height="32" rx="10"/>
   <rect x="469"
          y="45"
          width="24"
          height="32"
          class="terminal"
          rx="10"/>
   <text class="terminal" x="479" y="65">;</text>
   <path class="line"
          d="m17 17 h2 m20 0 h10 m56 0 h10 m0 0 h10 m26 0 h10 m0 0 h10 m70 0 h10 m0 0 h10 m26 0 h10 m0 0 h10 m86 0 h10 m0 0 h100 m-484 0 h20 m464 0 h20 m-504 0 q10 0 10 10 m484 0 q0 -10 10 -10 m-494 10 v24 m484 0 v-24 m-484 24 q0 10 10 10 m464 0 q10 0 10 -10 m-474 10 h10 m36 0 h10 m0 0 h10 m86 0 h10 m0 0 h10 m56 0 h10 m0 0 h10 m26 0 h10 m0 0 h10 m70 0 h10 m0 0 h10 m26 0 h10 m0 0 h10 m24 0 h10 m23 -44 h-3"/>
   <polygon points="533 17 541 13 541 21"/>
   <polygon points="533 17 525 13 525 21"/>
</svg>
