<?xml version="1.0" encoding="UTF-8"?>
<svg xmlns="http://www.w3.org/2000/svg" width="423" height="85">
   <defs>
      <style type="text/css">
    @namespace "http://www.w3.org/2000/svg";
    .line                 {fill: none; stroke: #332900; stroke-width: 1;}
    .bold-line            {stroke: #141000; shape-rendering: crispEdges; stroke-width: 2;}
    .thin-line            {stroke: #1F1800; shape-rendering: crispEdges}
    .filled               {fill: #332900; stroke: none;}
    text.terminal         {font-family: Verdana, Sans-serif;
                            font-size: 12px;
                            fill: #141000;
                            font-weight: bold;
                          }
    text.nonterminal      {font-family: Verdana, Sans-serif;
                            font-size: 12px;
                            fill: #1A1400;
                            font-weight: normal;
                          }
    text.regexp           {font-family: Verdana, Sans-serif;
                            font-size: 12px;
                            fill: #1F1800;
                            font-weight: normal;
                          }
    rect, circle, polygon {fill: #332900; stroke: #332900;}
    rect.terminal         {fill: #FFDB4D; stroke: #332900; stroke-width: 1;}
    rect.nonterminal      {fill: #FFEC9E; stroke: #332900; stroke-width: 1;}
    rect.text             {fill: none; stroke: none;}
    polygon.regexp        {fill: #FFF4C7; stroke: #332900; stroke-width: 1;}
  </style>
   </defs>
   <polygon points="9 33 1 29 1 37"/>
   <polygon points="17 33 9 29 9 37"/>
   <a xmlns:xlink="http://www.w3.org/1999/xlink"
       xlink:href="#Expression"
       xlink:title="Expression">
      <rect x="51" y="51" width="90" height="32"/>
      <rect x="49" y="49" width="90" height="32" class="nonterminal"/>
      <text class="nonterminal" x="59" y="69">Expression</text>
   </a>
   <rect x="221" y="19" width="24" height="32" rx="10"/>
   <rect x="219"
          y="17"
          width="24"
          height="32"
          class="terminal"
          rx="10"/>
   <text class="terminal" x="229" y="37">,</text>
   <a xmlns:xlink="http://www.w3.org/1999/xlink"
       xlink:href="#Expression"
       xlink:title="Expression">
      <rect x="265" y="19" width="90" height="32"/>
      <rect x="263" y="17" width="90" height="32" class="nonterminal"/>
      <text class="nonterminal" x="273" y="37">Expression</text>
   </a>
   <path class="line"
          d="m17 33 h2 m20 0 h10 m0 0 h100 m-130 0 h20 m110 0 h20 m-150 0 q10 0 10 10 m130 0 q0 -10 10 -10 m-140 10 v12 m130 0 v-12 m-130 12 q0 10 10 10 m110 0 q10 0 10 -10 m-120 10 h10 m90 0 h10 m60 -32 h10 m24 0 h10 m0 0 h10 m90 0 h10 m-174 0 l20 0 m-1 0 q-9 0 -9 -10 l0 -12 q0 -10 10 -10 m154 32 l20 0 m-20 0 q10 0 10 -10 l0 -12 q0 -10 -10 -10 m-154 0 h10 m0 0 h144 m-194 32 h20 m194 0 h20 m-234 0 q10 0 10 10 m214 0 q0 -10 10 -10 m-224 10 v14 m214 0 v-14 m-214 14 q0 10 10 10 m194 0 q10 0 10 -10 m-204 10 h10 m0 0 h184 m23 -34 h-3"/>
   <polygon points="413 33 421 29 421 37"/>
   <polygon points="413 33 405 29 405 37"/>
</svg>
