<?xml version="1.0" encoding="UTF-8"?>
<svg xmlns="http://www.w3.org/2000/svg" width="231" height="1929">
   <defs>
      <style type="text/css">
    @namespace "http://www.w3.org/2000/svg";
    .line                 {fill: none; stroke: #332900; stroke-width: 1;}
    .bold-line            {stroke: #141000; shape-rendering: crispEdges; stroke-width: 2;}
    .thin-line            {stroke: #1F1800; shape-rendering: crispEdges}
    .filled               {fill: #332900; stroke: none;}
    text.terminal         {font-family: Verdana, Sans-serif;
                            font-size: 12px;
                            fill: #141000;
                            font-weight: bold;
                          }
    text.nonterminal      {font-family: Verdana, Sans-serif;
                            font-size: 12px;
                            fill: #1A1400;
                            font-weight: normal;
                          }
    text.regexp           {font-family: Verdana, Sans-serif;
                            font-size: 12px;
                            fill: #1F1800;
                            font-weight: normal;
                          }
    rect, circle, polygon {fill: #332900; stroke: #332900;}
    rect.terminal         {fill: #FFDB4D; stroke: #332900; stroke-width: 1;}
    rect.nonterminal      {fill: #FFEC9E; stroke: #332900; stroke-width: 1;}
    rect.text             {fill: none; stroke: none;}
    polygon.regexp        {fill: #FFF4C7; stroke: #332900; stroke-width: 1;}
  </style>
   </defs>
   <polygon points="9 17 1 13 1 21"/>
   <polygon points="17 17 9 13 9 21"/>
   <rect x="51" y="3" width="44" height="32" rx="10"/>
   <rect x="49"
          y="1"
          width="44"
          height="32"
          class="terminal"
          rx="10"/>
   <text class="terminal" x="59" y="21">abs</text>
   <rect x="51" y="47" width="48" height="32" rx="10"/>
   <rect x="49"
          y="45"
          width="48"
          height="32"
          class="terminal"
          rx="10"/>
   <text class="terminal" x="59" y="65">fabs</text>
   <rect x="51" y="91" width="44" height="32" rx="10"/>
   <rect x="49"
          y="89"
          width="44"
          height="32"
          class="terminal"
          rx="10"/>
   <text class="terminal" x="59" y="109">exp</text>
   <rect x="51" y="135" width="52" height="32" rx="10"/>
   <rect x="49"
          y="133"
          width="52"
          height="32"
          class="terminal"
          rx="10"/>
   <text class="terminal" x="59" y="153">exp2</text>
   <rect x="51" y="179" width="66" height="32" rx="10"/>
   <rect x="49"
          y="177"
          width="66"
          height="32"
          class="terminal"
          rx="10"/>
   <text class="terminal" x="59" y="197">expm1</text>
   <rect x="51" y="223" width="32" height="32" rx="10"/>
   <rect x="49"
          y="221"
          width="32"
          height="32"
          class="terminal"
          rx="10"/>
   <text class="terminal" x="59" y="241">ln</text>
   <rect x="51" y="267" width="40" height="32" rx="10"/>
   <rect x="49"
          y="265"
          width="40"
          height="32"
          class="terminal"
          rx="10"/>
   <text class="terminal" x="59" y="285">log</text>
   <rect x="51" y="311" width="58" height="32" rx="10"/>
   <rect x="49"
          y="309"
          width="58"
          height="32"
          class="terminal"
          rx="10"/>
   <text class="terminal" x="59" y="329">log10</text>
   <rect x="51" y="355" width="50" height="32" rx="10"/>
   <rect x="49"
          y="353"
          width="50"
          height="32"
          class="terminal"
          rx="10"/>
   <text class="terminal" x="59" y="373">log2</text>
   <rect x="51" y="399" width="58" height="32" rx="10"/>
   <rect x="49"
          y="397"
          width="58"
          height="32"
          class="terminal"
          rx="10"/>
   <text class="terminal" x="59" y="417">log1p</text>
   <rect x="51" y="443" width="46" height="32" rx="10"/>
   <rect x="49"
          y="441"
          width="46"
          height="32"
          class="terminal"
          rx="10"/>
   <text class="terminal" x="59" y="461">sqrt</text>
   <rect x="51" y="487" width="46" height="32" rx="10"/>
   <rect x="49"
          y="485"
          width="46"
          height="32"
          class="terminal"
          rx="10"/>
   <text class="terminal" x="59" y="505">cbrt</text>
   <rect x="51" y="531" width="40" height="32" rx="10"/>
   <rect x="49"
          y="529"
          width="40"
          height="32"
          class="terminal"
          rx="10"/>
   <text class="terminal" x="59" y="549">sin</text>
   <rect x="51" y="575" width="42" height="32" rx="10"/>
   <rect x="49"
          y="573"
          width="42"
          height="32"
          class="terminal"
          rx="10"/>
   <text class="terminal" x="59" y="593">cos</text>
   <rect x="51" y="619" width="42" height="32" rx="10"/>
   <rect x="49"
          y="617"
          width="42"
          height="32"
          class="terminal"
          rx="10"/>
   <text class="terminal" x="59" y="637">tan</text>
   <rect x="51" y="663" width="48" height="32" rx="10"/>
   <rect x="49"
          y="661"
          width="48"
          height="32"
          class="terminal"
          rx="10"/>
   <text class="terminal" x="59" y="681">asin</text>
   <rect x="51" y="707" width="50" height="32" rx="10"/>
   <rect x="49"
          y="705"
          width="50"
          height="32"
          class="terminal"
          rx="10"/>
   <text class="terminal" x="59" y="725">acos</text>
   <rect x="51" y="751" width="50" height="32" rx="10"/>
   <rect x="49"
          y="749"
          width="50"
          height="32"
          class="terminal"
          rx="10"/>
   <text class="terminal" x="59" y="769">atan</text>
   <rect x="51" y="795" width="48" height="32" rx="10"/>
   <rect x="49"
          y="793"
          width="48"
          height="32"
          class="terminal"
          rx="10"/>
   <text class="terminal" x="59" y="813">sinh</text>
   <rect x="51" y="839" width="50" height="32" rx="10"/>
   <rect x="49"
          y="837"
          width="50"
          height="32"
          class="terminal"
          rx="10"/>
   <text class="terminal" x="59" y="857">cosh</text>
   <rect x="51" y="883" width="50" height="32" rx="10"/>
   <rect x="49"
          y="881"
          width="50"
          height="32"
          class="terminal"
          rx="10"/>
   <text class="terminal" x="59" y="901">tanh</text>
   <rect x="51" y="927" width="56" height="32" rx="10"/>
   <rect x="49"
          y="925"
          width="56"
          height="32"
          class="terminal"
          rx="10"/>
   <text class="terminal" x="59" y="945">asinh</text>
   <rect x="51" y="971" width="58" height="32" rx="10"/>
   <rect x="49"
          y="969"
          width="58"
          height="32"
          class="terminal"
          rx="10"/>
   <text class="terminal" x="59" y="989">acosh</text>
   <rect x="51" y="1015" width="58" height="32" rx="10"/>
   <rect x="49"
          y="1013"
          width="58"
          height="32"
          class="terminal"
          rx="10"/>
   <text class="terminal" x="59" y="1033">atanh</text>
   <rect x="51" y="1059" width="38" height="32" rx="10"/>
   <rect x="49"
          y="1057"
          width="38"
          height="32"
          class="terminal"
          rx="10"/>
   <text class="terminal" x="59" y="1077">erf</text>
   <rect x="51" y="1103" width="46" height="32" rx="10"/>
   <rect x="49"
          y="1101"
          width="46"
          height="32"
          class="terminal"
          rx="10"/>
   <text class="terminal" x="59" y="1121">erfc</text>
   <rect x="51" y="1147" width="74" height="32" rx="10"/>
   <rect x="49"
          y="1145"
          width="74"
          height="32"
          class="terminal"
          rx="10"/>
   <text class="terminal" x="59" y="1165">tgamma</text>
   <rect x="51" y="1191" width="74" height="32" rx="10"/>
   <rect x="49"
          y="1189"
          width="74"
          height="32"
          class="terminal"
          rx="10"/>
   <text class="terminal" x="59" y="1209">lgamma</text>
   <rect x="51" y="1235" width="42" height="32" rx="10"/>
   <rect x="49"
          y="1233"
          width="42"
          height="32"
          class="terminal"
          rx="10"/>
   <text class="terminal" x="59" y="1253">ceil</text>
   <rect x="51" y="1279" width="52" height="32" rx="10"/>
   <rect x="49"
          y="1277"
          width="52"
          height="32"
          class="terminal"
          rx="10"/>
   <text class="terminal" x="59" y="1297">floor</text>
   <rect x="51" y="1323" width="54" height="32" rx="10"/>
   <rect x="49"
          y="1321"
          width="54"
          height="32"
          class="terminal"
          rx="10"/>
   <text class="terminal" x="59" y="1341">trunc</text>
   <rect x="51" y="1367" width="60" height="32" rx="10"/>
   <rect x="49"
          y="1365"
          width="60"
          height="32"
          class="terminal"
          rx="10"/>
   <text class="terminal" x="59" y="1385">round</text>
   <rect x="51" y="1411" width="42" height="32" rx="10"/>
   <rect x="49"
          y="1409"
          width="42"
          height="32"
          class="terminal"
          rx="10"/>
   <text class="terminal" x="59" y="1429">fint</text>
   <rect x="51" y="1455" width="52" height="32" rx="10"/>
   <rect x="49"
          y="1453"
          width="52"
          height="32"
          class="terminal"
          rx="10"/>
   <text class="terminal" x="59" y="1473">ilogb</text>
   <rect x="51" y="1499" width="48" height="32" rx="10"/>
   <rect x="49"
          y="1497"
          width="48"
          height="32"
          class="terminal"
          rx="10"/>
   <text class="terminal" x="59" y="1517">logb</text>
   <rect x="51" y="1543" width="84" height="32" rx="10"/>
   <rect x="49"
          y="1541"
          width="84"
          height="32"
          class="terminal"
          rx="10"/>
   <text class="terminal" x="59" y="1561">fpclassify</text>
   <rect x="51" y="1587" width="66" height="32" rx="10"/>
   <rect x="49"
          y="1585"
          width="66"
          height="32"
          class="terminal"
          rx="10"/>
   <text class="terminal" x="59" y="1605">isfinite</text>
   <rect x="51" y="1631" width="48" height="32" rx="10"/>
   <rect x="49"
          y="1629"
          width="48"
          height="32"
          class="terminal"
          rx="10"/>
   <text class="terminal" x="59" y="1649">isinf</text>
   <rect x="51" y="1675" width="56" height="32" rx="10"/>
   <rect x="49"
          y="1673"
          width="56"
          height="32"
          class="terminal"
          rx="10"/>
   <text class="terminal" x="59" y="1693">isnan</text>
   <rect x="51" y="1719" width="78" height="32" rx="10"/>
   <rect x="49"
          y="1717"
          width="78"
          height="32"
          class="terminal"
          rx="10"/>
   <text class="terminal" x="59" y="1737">isnormal</text>
   <rect x="51" y="1763" width="66" height="32" rx="10"/>
   <rect x="49"
          y="1761"
          width="66"
          height="32"
          class="terminal"
          rx="10"/>
   <text class="terminal" x="59" y="1781">signbit</text>
   <rect x="51" y="1807" width="100" height="32" rx="10"/>
   <rect x="49"
          y="1805"
          width="100"
          height="32"
          class="terminal"
          rx="10"/>
   <text class="terminal" x="59" y="1825">isunordered</text>
   <rect x="51" y="1851" width="72" height="32" rx="10"/>
   <rect x="49"
          y="1849"
          width="72"
          height="32"
          class="terminal"
          rx="10"/>
   <text class="terminal" x="59" y="1869">random</text>
   <rect x="51" y="1895" width="132" height="32" rx="10"/>
   <rect x="49"
          y="1893"
          width="132"
          height="32"
          class="terminal"
          rx="10"/>
   <text class="terminal" x="59" y="1913">random_poisson</text>
   <path class="line"
          d="m17 17 h2 m20 0 h10 m44 0 h10 m0 0 h88 m-172 0 h20 m152 0 h20 m-192 0 q10 0 10 10 m172 0 q0 -10 10 -10 m-182 10 v24 m172 0 v-24 m-172 24 q0 10 10 10 m152 0 q10 0 10 -10 m-162 10 h10 m48 0 h10 m0 0 h84 m-162 -10 v20 m172 0 v-20 m-172 20 v24 m172 0 v-24 m-172 24 q0 10 10 10 m152 0 q10 0 10 -10 m-162 10 h10 m44 0 h10 m0 0 h88 m-162 -10 v20 m172 0 v-20 m-172 20 v24 m172 0 v-24 m-172 24 q0 10 10 10 m152 0 q10 0 10 -10 m-162 10 h10 m52 0 h10 m0 0 h80 m-162 -10 v20 m172 0 v-20 m-172 20 v24 m172 0 v-24 m-172 24 q0 10 10 10 m152 0 q10 0 10 -10 m-162 10 h10 m66 0 h10 m0 0 h66 m-162 -10 v20 m172 0 v-20 m-172 20 v24 m172 0 v-24 m-172 24 q0 10 10 10 m152 0 q10 0 10 -10 m-162 10 h10 m32 0 h10 m0 0 h100 m-162 -10 v20 m172 0 v-20 m-172 20 v24 m172 0 v-24 m-172 24 q0 10 10 10 m152 0 q10 0 10 -10 m-162 10 h10 m40 0 h10 m0 0 h92 m-162 -10 v20 m172 0 v-20 m-172 20 v24 m172 0 v-24 m-172 24 q0 10 10 10 m152 0 q10 0 10 -10 m-162 10 h10 m58 0 h10 m0 0 h74 m-162 -10 v20 m172 0 v-20 m-172 20 v24 m172 0 v-24 m-172 24 q0 10 10 10 m152 0 q10 0 10 -10 m-162 10 h10 m50 0 h10 m0 0 h82 m-162 -10 v20 m172 0 v-20 m-172 20 v24 m172 0 v-24 m-172 24 q0 10 10 10 m152 0 q10 0 10 -10 m-162 10 h10 m58 0 h10 m0 0 h74 m-162 -10 v20 m172 0 v-20 m-172 20 v24 m172 0 v-24 m-172 24 q0 10 10 10 m152 0 q10 0 10 -10 m-162 10 h10 m46 0 h10 m0 0 h86 m-162 -10 v20 m172 0 v-20 m-172 20 v24 m172 0 v-24 m-172 24 q0 10 10 10 m152 0 q10 0 10 -10 m-162 10 h10 m46 0 h10 m0 0 h86 m-162 -10 v20 m172 0 v-20 m-172 20 v24 m172 0 v-24 m-172 24 q0 10 10 10 m152 0 q10 0 10 -10 m-162 10 h10 m40 0 h10 m0 0 h92 m-162 -10 v20 m172 0 v-20 m-172 20 v24 m172 0 v-24 m-172 24 q0 10 10 10 m152 0 q10 0 10 -10 m-162 10 h10 m42 0 h10 m0 0 h90 m-162 -10 v20 m172 0 v-20 m-172 20 v24 m172 0 v-24 m-172 24 q0 10 10 10 m152 0 q10 0 10 -10 m-162 10 h10 m42 0 h10 m0 0 h90 m-162 -10 v20 m172 0 v-20 m-172 20 v24 m172 0 v-24 m-172 24 q0 10 10 10 m152 0 q10 0 10 -10 m-162 10 h10 m48 0 h10 m0 0 h84 m-162 -10 v20 m172 0 v-20 m-172 20 v24 m172 0 v-24 m-172 24 q0 10 10 10 m152 0 q10 0 10 -10 m-162 10 h10 m50 0 h10 m0 0 h82 m-162 -10 v20 m172 0 v-20 m-172 20 v24 m172 0 v-24 m-172 24 q0 10 10 10 m152 0 q10 0 10 -10 m-162 10 h10 m50 0 h10 m0 0 h82 m-162 -10 v20 m172 0 v-20 m-172 20 v24 m172 0 v-24 m-172 24 q0 10 10 10 m152 0 q10 0 10 -10 m-162 10 h10 m48 0 h10 m0 0 h84 m-162 -10 v20 m172 0 v-20 m-172 20 v24 m172 0 v-24 m-172 24 q0 10 10 10 m152 0 q10 0 10 -10 m-162 10 h10 m50 0 h10 m0 0 h82 m-162 -10 v20 m172 0 v-20 m-172 20 v24 m172 0 v-24 m-172 24 q0 10 10 10 m152 0 q10 0 10 -10 m-162 10 h10 m50 0 h10 m0 0 h82 m-162 -10 v20 m172 0 v-20 m-172 20 v24 m172 0 v-24 m-172 24 q0 10 10 10 m152 0 q10 0 10 -10 m-162 10 h10 m56 0 h10 m0 0 h76 m-162 -10 v20 m172 0 v-20 m-172 20 v24 m172 0 v-24 m-172 24 q0 10 10 10 m152 0 q10 0 10 -10 m-162 10 h10 m58 0 h10 m0 0 h74 m-162 -10 v20 m172 0 v-20 m-172 20 v24 m172 0 v-24 m-172 24 q0 10 10 10 m152 0 q10 0 10 -10 m-162 10 h10 m58 0 h10 m0 0 h74 m-162 -10 v20 m172 0 v-20 m-172 20 v24 m172 0 v-24 m-172 24 q0 10 10 10 m152 0 q10 0 10 -10 m-162 10 h10 m38 0 h10 m0 0 h94 m-162 -10 v20 m172 0 v-20 m-172 20 v24 m172 0 v-24 m-172 24 q0 10 10 10 m152 0 q10 0 10 -10 m-162 10 h10 m46 0 h10 m0 0 h86 m-162 -10 v20 m172 0 v-20 m-172 20 v24 m172 0 v-24 m-172 24 q0 10 10 10 m152 0 q10 0 10 -10 m-162 10 h10 m74 0 h10 m0 0 h58 m-162 -10 v20 m172 0 v-20 m-172 20 v24 m172 0 v-24 m-172 24 q0 10 10 10 m152 0 q10 0 10 -10 m-162 10 h10 m74 0 h10 m0 0 h58 m-162 -10 v20 m172 0 v-20 m-172 20 v24 m172 0 v-24 m-172 24 q0 10 10 10 m152 0 q10 0 10 -10 m-162 10 h10 m42 0 h10 m0 0 h90 m-162 -10 v20 m172 0 v-20 m-172 20 v24 m172 0 v-24 m-172 24 q0 10 10 10 m152 0 q10 0 10 -10 m-162 10 h10 m52 0 h10 m0 0 h80 m-162 -10 v20 m172 0 v-20 m-172 20 v24 m172 0 v-24 m-172 24 q0 10 10 10 m152 0 q10 0 10 -10 m-162 10 h10 m54 0 h10 m0 0 h78 m-162 -10 v20 m172 0 v-20 m-172 20 v24 m172 0 v-24 m-172 24 q0 10 10 10 m152 0 q10 0 10 -10 m-162 10 h10 m60 0 h10 m0 0 h72 m-162 -10 v20 m172 0 v-20 m-172 20 v24 m172 0 v-24 m-172 24 q0 10 10 10 m152 0 q10 0 10 -10 m-162 10 h10 m42 0 h10 m0 0 h90 m-162 -10 v20 m172 0 v-20 m-172 20 v24 m172 0 v-24 m-172 24 q0 10 10 10 m152 0 q10 0 10 -10 m-162 10 h10 m52 0 h10 m0 0 h80 m-162 -10 v20 m172 0 v-20 m-172 20 v24 m172 0 v-24 m-172 24 q0 10 10 10 m152 0 q10 0 10 -10 m-162 10 h10 m48 0 h10 m0 0 h84 m-162 -10 v20 m172 0 v-20 m-172 20 v24 m172 0 v-24 m-172 24 q0 10 10 10 m152 0 q10 0 10 -10 m-162 10 h10 m84 0 h10 m0 0 h48 m-162 -10 v20 m172 0 v-20 m-172 20 v24 m172 0 v-24 m-172 24 q0 10 10 10 m152 0 q10 0 10 -10 m-162 10 h10 m66 0 h10 m0 0 h66 m-162 -10 v20 m172 0 v-20 m-172 20 v24 m172 0 v-24 m-172 24 q0 10 10 10 m152 0 q10 0 10 -10 m-162 10 h10 m48 0 h10 m0 0 h84 m-162 -10 v20 m172 0 v-20 m-172 20 v24 m172 0 v-24 m-172 24 q0 10 10 10 m152 0 q10 0 10 -10 m-162 10 h10 m56 0 h10 m0 0 h76 m-162 -10 v20 m172 0 v-20 m-172 20 v24 m172 0 v-24 m-172 24 q0 10 10 10 m152 0 q10 0 10 -10 m-162 10 h10 m78 0 h10 m0 0 h54 m-162 -10 v20 m172 0 v-20 m-172 20 v24 m172 0 v-24 m-172 24 q0 10 10 10 m152 0 q10 0 10 -10 m-162 10 h10 m66 0 h10 m0 0 h66 m-162 -10 v20 m172 0 v-20 m-172 20 v24 m172 0 v-24 m-172 24 q0 10 10 10 m152 0 q10 0 10 -10 m-162 10 h10 m100 0 h10 m0 0 h32 m-162 -10 v20 m172 0 v-20 m-172 20 v24 m172 0 v-24 m-172 24 q0 10 10 10 m152 0 q10 0 10 -10 m-162 10 h10 m72 0 h10 m0 0 h60 m-162 -10 v20 m172 0 v-20 m-172 20 v24 m172 0 v-24 m-172 24 q0 10 10 10 m152 0 q10 0 10 -10 m-162 10 h10 m132 0 h10 m23 -1892 h-3"/>
   <polygon points="221 17 229 13 229 21"/>
   <polygon points="221 17 213 13 213 21"/>
</svg>
