<?xml version="1.0" encoding="UTF-8"?>
<svg xmlns="http://www.w3.org/2000/svg" width="693" height="81">
   <defs>
      <style type="text/css">
    @namespace "http://www.w3.org/2000/svg";
    .line                 {fill: none; stroke: #332900; stroke-width: 1;}
    .bold-line            {stroke: #141000; shape-rendering: crispEdges; stroke-width: 2;}
    .thin-line            {stroke: #1F1800; shape-rendering: crispEdges}
    .filled               {fill: #332900; stroke: none;}
    text.terminal         {font-family: Verdana, Sans-serif;
                            font-size: 12px;
                            fill: #141000;
                            font-weight: bold;
                          }
    text.nonterminal      {font-family: Verdana, Sans-serif;
                            font-size: 12px;
                            fill: #1A1400;
                            font-weight: normal;
                          }
    text.regexp           {font-family: Verdana, Sans-serif;
                            font-size: 12px;
                            fill: #1F1800;
                            font-weight: normal;
                          }
    rect, circle, polygon {fill: #332900; stroke: #332900;}
    rect.terminal         {fill: #FFDB4D; stroke: #332900; stroke-width: 1;}
    rect.nonterminal      {fill: #FFEC9E; stroke: #332900; stroke-width: 1;}
    rect.text             {fill: none; stroke: none;}
    polygon.regexp        {fill: #FFF4C7; stroke: #332900; stroke-width: 1;}
  </style>
   </defs>
   <polygon points="9 17 1 13 1 21"/>
   <polygon points="17 17 9 13 9 21"/>
   <rect x="31" y="3" width="38" height="32" rx="10"/>
   <rect x="29"
          y="1"
          width="38"
          height="32"
          class="terminal"
          rx="10"/>
   <text class="terminal" x="39" y="21">for</text>
   <rect x="89" y="3" width="26" height="32" rx="10"/>
   <rect x="87"
          y="1"
          width="26"
          height="32"
          class="terminal"
          rx="10"/>
   <text class="terminal" x="97" y="21">(</text>
   <a xmlns:xlink="http://www.w3.org/1999/xlink"
       xlink:href="#ExprList"
       xlink:title="ExprList">
      <rect x="155" y="3" width="70" height="32"/>
      <rect x="153" y="1" width="70" height="32" class="nonterminal"/>
      <text class="nonterminal" x="163" y="21">ExprList</text>
   </a>
   <rect x="245" y="3" width="24" height="32" rx="10"/>
   <rect x="243"
          y="1"
          width="24"
          height="32"
          class="terminal"
          rx="10"/>
   <text class="terminal" x="253" y="21">;</text>
   <a xmlns:xlink="http://www.w3.org/1999/xlink"
       xlink:href="#ExprList"
       xlink:title="ExprList">
      <rect x="289" y="3" width="70" height="32"/>
      <rect x="287" y="1" width="70" height="32" class="nonterminal"/>
      <text class="nonterminal" x="297" y="21">ExprList</text>
   </a>
   <rect x="379" y="3" width="24" height="32" rx="10"/>
   <rect x="377"
          y="1"
          width="24"
          height="32"
          class="terminal"
          rx="10"/>
   <text class="terminal" x="387" y="21">;</text>
   <a xmlns:xlink="http://www.w3.org/1999/xlink"
       xlink:href="#ExprList"
       xlink:title="ExprList">
      <rect x="423" y="3" width="70" height="32"/>
      <rect x="421" y="1" width="70" height="32" class="nonterminal"/>
      <text class="nonterminal" x="431" y="21">ExprList</text>
   </a>
   <a xmlns:xlink="http://www.w3.org/1999/xlink"
       xlink:href="#Id"
       xlink:title="Id">
      <rect x="155" y="47" width="32" height="32"/>
      <rect x="153" y="45" width="32" height="32" class="nonterminal"/>
      <text class="nonterminal" x="163" y="65">Id</text>
   </a>
   <rect x="207" y="47" width="24" height="32" rx="10"/>
   <rect x="205"
          y="45"
          width="24"
          height="32"
          class="terminal"
          rx="10"/>
   <text class="terminal" x="215" y="65">:</text>
   <a xmlns:xlink="http://www.w3.org/1999/xlink"
       xlink:href="#Type"
       xlink:title="Type">
      <rect x="251" y="47" width="50" height="32"/>
      <rect x="249" y="45" width="50" height="32" class="nonterminal"/>
      <text class="nonterminal" x="259" y="65">Type</text>
   </a>
   <rect x="533" y="3" width="26" height="32" rx="10"/>
   <rect x="531"
          y="1"
          width="26"
          height="32"
          class="terminal"
          rx="10"/>
   <text class="terminal" x="541" y="21">)</text>
   <a xmlns:xlink="http://www.w3.org/1999/xlink"
       xlink:href="#Statement"
       xlink:title="Statement">
      <rect x="579" y="3" width="86" height="32"/>
      <rect x="577" y="1" width="86" height="32" class="nonterminal"/>
      <text class="nonterminal" x="587" y="21">Statement</text>
   </a>
   <path class="line"
          d="m17 17 h2 m0 0 h10 m38 0 h10 m0 0 h10 m26 0 h10 m20 0 h10 m70 0 h10 m0 0 h10 m24 0 h10 m0 0 h10 m70 0 h10 m0 0 h10 m24 0 h10 m0 0 h10 m70 0 h10 m-378 0 h20 m358 0 h20 m-398 0 q10 0 10 10 m378 0 q0 -10 10 -10 m-388 10 v24 m378 0 v-24 m-378 24 q0 10 10 10 m358 0 q10 0 10 -10 m-368 10 h10 m32 0 h10 m0 0 h10 m24 0 h10 m0 0 h10 m50 0 h10 m0 0 h192 m20 -44 h10 m26 0 h10 m0 0 h10 m86 0 h10 m3 0 h-3"/>
   <polygon points="683 17 691 13 691 21"/>
   <polygon points="683 17 675 13 675 21"/>
</svg>
