<?xml version="1.0" encoding="UTF-8"?>
<svg xmlns="http://www.w3.org/2000/svg" width="711" height="97">
   <defs>
      <style type="text/css">
    @namespace "http://www.w3.org/2000/svg";
    .line                 {fill: none; stroke: #332900; stroke-width: 1;}
    .bold-line            {stroke: #141000; shape-rendering: crispEdges; stroke-width: 2;}
    .thin-line            {stroke: #1F1800; shape-rendering: crispEdges}
    .filled               {fill: #332900; stroke: none;}
    text.terminal         {font-family: Verdana, Sans-serif;
                            font-size: 12px;
                            fill: #141000;
                            font-weight: bold;
                          }
    text.nonterminal      {font-family: Verdana, Sans-serif;
                            font-size: 12px;
                            fill: #1A1400;
                            font-weight: normal;
                          }
    text.regexp           {font-family: Verdana, Sans-serif;
                            font-size: 12px;
                            fill: #1F1800;
                            font-weight: normal;
                          }
    rect, circle, polygon {fill: #332900; stroke: #332900;}
    rect.terminal         {fill: #FFDB4D; stroke: #332900; stroke-width: 1;}
    rect.nonterminal      {fill: #FFEC9E; stroke: #332900; stroke-width: 1;}
    rect.text             {fill: none; stroke: none;}
    polygon.regexp        {fill: #FFF4C7; stroke: #332900; stroke-width: 1;}
  </style>
   </defs>
   <polygon points="9 61 1 57 1 65"/>
   <polygon points="17 61 9 57 9 65"/>
   <rect x="51" y="47" width="38" height="32" rx="10"/>
   <rect x="49"
          y="45"
          width="38"
          height="32"
          class="terminal"
          rx="10"/>
   <text class="terminal" x="59" y="65">for</text>
   <rect x="109" y="47" width="26" height="32" rx="10"/>
   <rect x="107"
          y="45"
          width="26"
          height="32"
          class="terminal"
          rx="10"/>
   <text class="terminal" x="117" y="65">(</text>
   <a xmlns:xlink="http://www.w3.org/1999/xlink"
       xlink:href="#Id"
       xlink:title="Id">
      <rect x="175" y="47" width="32" height="32"/>
      <rect x="173" y="45" width="32" height="32" class="nonterminal"/>
      <text class="nonterminal" x="183" y="65">Id</text>
   </a>
   <rect x="227" y="47" width="24" height="32" rx="10"/>
   <rect x="225"
          y="45"
          width="24"
          height="32"
          class="terminal"
          rx="10"/>
   <text class="terminal" x="235" y="65">:</text>
   <a xmlns:xlink="http://www.w3.org/1999/xlink"
       xlink:href="#Type"
       xlink:title="Type">
      <rect x="271" y="47" width="50" height="32"/>
      <rect x="269" y="45" width="50" height="32" class="nonterminal"/>
      <text class="nonterminal" x="279" y="65">Type</text>
   </a>
   <rect x="175" y="3" width="24" height="32" rx="10"/>
   <rect x="173"
          y="1"
          width="24"
          height="32"
          class="terminal"
          rx="10"/>
   <text class="terminal" x="183" y="21">,</text>
   <rect x="361" y="47" width="26" height="32" rx="10"/>
   <rect x="359"
          y="45"
          width="26"
          height="32"
          class="terminal"
          rx="10"/>
   <text class="terminal" x="369" y="65">)</text>
   <a xmlns:xlink="http://www.w3.org/1999/xlink"
       xlink:href="#Expression"
       xlink:title="Expression">
      <rect x="427" y="47" width="90" height="32"/>
      <rect x="425" y="45" width="90" height="32" class="nonterminal"/>
      <text class="nonterminal" x="435" y="65">Expression</text>
   </a>
   <rect x="537" y="47" width="36" height="32" rx="10"/>
   <rect x="535"
          y="45"
          width="36"
          height="32"
          class="terminal"
          rx="10"/>
   <text class="terminal" x="545" y="65">-&gt;</text>
   <a xmlns:xlink="http://www.w3.org/1999/xlink"
       xlink:href="#Expression"
       xlink:title="Expression">
      <rect x="593" y="47" width="90" height="32"/>
      <rect x="591" y="45" width="90" height="32" class="nonterminal"/>
      <text class="nonterminal" x="601" y="65">Expression</text>
   </a>
   <path class="line"
          d="m17 61 h2 m20 0 h10 m38 0 h10 m0 0 h10 m26 0 h10 m20 0 h10 m32 0 h10 m0 0 h10 m24 0 h10 m0 0 h10 m50 0 h10 m-186 0 l20 0 m-1 0 q-9 0 -9 -10 l0 -24 q0 -10 10 -10 m166 44 l20 0 m-20 0 q10 0 10 -10 l0 -24 q0 -10 -10 -10 m-166 0 h10 m24 0 h10 m0 0 h122 m20 44 h10 m26 0 h10 m-376 0 h20 m356 0 h20 m-396 0 q10 0 10 10 m376 0 q0 -10 10 -10 m-386 10 v14 m376 0 v-14 m-376 14 q0 10 10 10 m356 0 q10 0 10 -10 m-366 10 h10 m0 0 h346 m20 -34 h10 m90 0 h10 m0 0 h10 m36 0 h10 m0 0 h10 m90 0 h10 m3 0 h-3"/>
   <polygon points="701 61 709 57 709 65"/>
   <polygon points="701 61 693 57 693 65"/>
</svg>
