<?xml version="1.0" encoding="UTF-8"?>
<svg xmlns="http://www.w3.org/2000/svg" width="363" height="69">
   <defs>
      <style type="text/css">
    @namespace "http://www.w3.org/2000/svg";
    .line                 {fill: none; stroke: #332900; stroke-width: 1;}
    .bold-line            {stroke: #141000; shape-rendering: crispEdges; stroke-width: 2;}
    .thin-line            {stroke: #1F1800; shape-rendering: crispEdges}
    .filled               {fill: #332900; stroke: none;}
    text.terminal         {font-family: Verdana, Sans-serif;
                            font-size: 12px;
                            fill: #141000;
                            font-weight: bold;
                          }
    text.nonterminal      {font-family: Verdana, Sans-serif;
                            font-size: 12px;
                            fill: #1A1400;
                            font-weight: normal;
                          }
    text.regexp           {font-family: Verdana, Sans-serif;
                            font-size: 12px;
                            fill: #1F1800;
                            font-weight: normal;
                          }
    rect, circle, polygon {fill: #332900; stroke: #332900;}
    rect.terminal         {fill: #FFDB4D; stroke: #332900; stroke-width: 1;}
    rect.nonterminal      {fill: #FFEC9E; stroke: #332900; stroke-width: 1;}
    rect.text             {fill: none; stroke: none;}
    polygon.regexp        {fill: #FFF4C7; stroke: #332900; stroke-width: 1;}
  </style>
   </defs>
   <polygon points="9 17 1 13 1 21"/>
   <polygon points="17 17 9 13 9 21"/>
   <a xmlns:xlink="http://www.w3.org/1999/xlink"
       xlink:href="#NonTypeId"
       xlink:title="NonTypeId">
      <rect x="31" y="3" width="88" height="32"/>
      <rect x="29" y="1" width="88" height="32" class="nonterminal"/>
      <text class="nonterminal" x="39" y="21">NonTypeId</text>
   </a>
   <rect x="159" y="35" width="26" height="32" rx="10"/>
   <rect x="157"
          y="33"
          width="26"
          height="32"
          class="terminal"
          rx="10"/>
   <text class="terminal" x="167" y="53">(</text>
   <a xmlns:xlink="http://www.w3.org/1999/xlink"
       xlink:href="#ArgList"
       xlink:title="ArgList">
      <rect x="205" y="35" width="64" height="32"/>
      <rect x="203" y="33" width="64" height="32" class="nonterminal"/>
      <text class="nonterminal" x="213" y="53">ArgList</text>
   </a>
   <rect x="289" y="35" width="26" height="32" rx="10"/>
   <rect x="287"
          y="33"
          width="26"
          height="32"
          class="terminal"
          rx="10"/>
   <text class="terminal" x="297" y="53">)</text>
   <path class="line"
          d="m17 17 h2 m0 0 h10 m88 0 h10 m20 0 h10 m0 0 h166 m-196 0 h20 m176 0 h20 m-216 0 q10 0 10 10 m196 0 q0 -10 10 -10 m-206 10 v12 m196 0 v-12 m-196 12 q0 10 10 10 m176 0 q10 0 10 -10 m-186 10 h10 m26 0 h10 m0 0 h10 m64 0 h10 m0 0 h10 m26 0 h10 m23 -32 h-3"/>
   <polygon points="353 17 361 13 361 21"/>
   <polygon points="353 17 345 13 345 21"/>
</svg>
