<?xml version="1.0" encoding="UTF-8"?>
<svg xmlns="http://www.w3.org/2000/svg" width="345" height="57">
   <defs>
      <style type="text/css">
    @namespace "http://www.w3.org/2000/svg";
    .line                 {fill: none; stroke: #332900; stroke-width: 1;}
    .bold-line            {stroke: #141000; shape-rendering: crispEdges; stroke-width: 2;}
    .thin-line            {stroke: #1F1800; shape-rendering: crispEdges}
    .filled               {fill: #332900; stroke: none;}
    text.terminal         {font-family: Verdana, Sans-serif;
                            font-size: 12px;
                            fill: #141000;
                            font-weight: bold;
                          }
    text.nonterminal      {font-family: Verdana, Sans-serif;
                            font-size: 12px;
                            fill: #1A1400;
                            font-weight: normal;
                          }
    text.regexp           {font-family: Verdana, Sans-serif;
                            font-size: 12px;
                            fill: #1F1800;
                            font-weight: normal;
                          }
    rect, circle, polygon {fill: #332900; stroke: #332900;}
    rect.terminal         {fill: #FFDB4D; stroke: #332900; stroke-width: 1;}
    rect.nonterminal      {fill: #FFEC9E; stroke: #332900; stroke-width: 1;}
    rect.text             {fill: none; stroke: none;}
    polygon.regexp        {fill: #FFF4C7; stroke: #332900; stroke-width: 1;}
  </style>
   </defs>
   <polygon points="9 5 1 1 1 9"/>
   <polygon points="17 5 9 1 9 9"/>
   <rect x="51" y="23" width="92" height="32" rx="10"/>
   <rect x="49"
          y="21"
          width="92"
          height="32"
          class="terminal"
          rx="10"/>
   <text class="terminal" x="59" y="41">probability</text>
   <a xmlns:xlink="http://www.w3.org/1999/xlink"
       xlink:href="#Expression"
       xlink:title="Expression">
      <rect x="163" y="23" width="90" height="32"/>
      <rect x="161" y="21" width="90" height="32" class="nonterminal"/>
      <text class="nonterminal" x="171" y="41">Expression</text>
   </a>
   <rect x="273" y="23" width="24" height="32" rx="10"/>
   <rect x="271"
          y="21"
          width="24"
          height="32"
          class="terminal"
          rx="10"/>
   <text class="terminal" x="281" y="41">;</text>
   <path class="line"
          d="m17 5 h2 m20 0 h10 m0 0 h256 m-286 0 h20 m266 0 h20 m-306 0 q10 0 10 10 m286 0 q0 -10 10 -10 m-296 10 v12 m286 0 v-12 m-286 12 q0 10 10 10 m266 0 q10 0 10 -10 m-276 10 h10 m92 0 h10 m0 0 h10 m90 0 h10 m0 0 h10 m24 0 h10 m23 -32 h-3"/>
   <polygon points="335 5 343 1 343 9"/>
   <polygon points="335 5 327 1 327 9"/>
</svg>
