<?xml version="1.0" encoding="UTF-8"?>
<svg xmlns="http://www.w3.org/2000/svg" width="559" height="37">
   <defs>
      <style type="text/css">
    @namespace "http://www.w3.org/2000/svg";
    .line                 {fill: none; stroke: #332900; stroke-width: 1;}
    .bold-line            {stroke: #141000; shape-rendering: crispEdges; stroke-width: 2;}
    .thin-line            {stroke: #1F1800; shape-rendering: crispEdges}
    .filled               {fill: #332900; stroke: none;}
    text.terminal         {font-family: Verdana, Sans-serif;
                            font-size: 12px;
                            fill: #141000;
                            font-weight: bold;
                          }
    text.nonterminal      {font-family: Verdana, Sans-serif;
                            font-size: 12px;
                            fill: #1A1400;
                            font-weight: normal;
                          }
    text.regexp           {font-family: Verdana, Sans-serif;
                            font-size: 12px;
                            fill: #1F1800;
                            font-weight: normal;
                          }
    rect, circle, polygon {fill: #332900; stroke: #332900;}
    rect.terminal         {fill: #FFDB4D; stroke: #332900; stroke-width: 1;}
    rect.nonterminal      {fill: #FFEC9E; stroke: #332900; stroke-width: 1;}
    rect.text             {fill: none; stroke: none;}
    polygon.regexp        {fill: #FFF4C7; stroke: #332900; stroke-width: 1;}
  </style>
   </defs>
   <polygon points="9 17 1 13 1 21"/>
   <polygon points="17 17 9 13 9 21"/>
   <rect x="31" y="3" width="72" height="32" rx="10"/>
   <rect x="29"
          y="1"
          width="72"
          height="32"
          class="terminal"
          rx="10"/>
   <text class="terminal" x="39" y="21">process</text>
   <a xmlns:xlink="http://www.w3.org/1999/xlink"
       xlink:href="#Id"
       xlink:title="Id">
      <rect x="123" y="3" width="32" height="32"/>
      <rect x="121" y="1" width="32" height="32" class="nonterminal"/>
      <text class="nonterminal" x="131" y="21">Id</text>
   </a>
   <a xmlns:xlink="http://www.w3.org/1999/xlink"
       xlink:href="#OptionalParameterList"
       xlink:title="OptionalParameterList">
      <rect x="175" y="3" width="162" height="32"/>
      <rect x="173" y="1" width="162" height="32" class="nonterminal"/>
      <text class="nonterminal" x="183" y="21">OptionalParameterList</text>
   </a>
   <rect x="357" y="3" width="28" height="32" rx="10"/>
   <rect x="355"
          y="1"
          width="28"
          height="32"
          class="terminal"
          rx="10"/>
   <text class="terminal" x="365" y="21">{</text>
   <a xmlns:xlink="http://www.w3.org/1999/xlink"
       xlink:href="#ProcBody"
       xlink:title="ProcBody">
      <rect x="405" y="3" width="78" height="32"/>
      <rect x="403" y="1" width="78" height="32" class="nonterminal"/>
      <text class="nonterminal" x="413" y="21">ProcBody</text>
   </a>
   <rect x="503" y="3" width="28" height="32" rx="10"/>
   <rect x="501"
          y="1"
          width="28"
          height="32"
          class="terminal"
          rx="10"/>
   <text class="terminal" x="511" y="21">}</text>
   <path class="line"
          d="m17 17 h2 m0 0 h10 m72 0 h10 m0 0 h10 m32 0 h10 m0 0 h10 m162 0 h10 m0 0 h10 m28 0 h10 m0 0 h10 m78 0 h10 m0 0 h10 m28 0 h10 m3 0 h-3"/>
   <polygon points="549 17 557 13 557 21"/>
   <polygon points="549 17 541 13 541 21"/>
</svg>
