<?xml version="1.0" encoding="UTF-8"?>
<svg xmlns="http://www.w3.org/2000/svg" width="609" height="145">
   <defs>
      <style type="text/css">
    @namespace "http://www.w3.org/2000/svg";
    .line                 {fill: none; stroke: #332900; stroke-width: 1;}
    .bold-line            {stroke: #141000; shape-rendering: crispEdges; stroke-width: 2;}
    .thin-line            {stroke: #1F1800; shape-rendering: crispEdges}
    .filled               {fill: #332900; stroke: none;}
    text.terminal         {font-family: Verdana, Sans-serif;
                            font-size: 12px;
                            fill: #141000;
                            font-weight: bold;
                          }
    text.nonterminal      {font-family: Verdana, Sans-serif;
                            font-size: 12px;
                            fill: #1A1400;
                            font-weight: normal;
                          }
    text.regexp           {font-family: Verdana, Sans-serif;
                            font-size: 12px;
                            fill: #1F1800;
                            font-weight: normal;
                          }
    rect, circle, polygon {fill: #332900; stroke: #332900;}
    rect.terminal         {fill: #FFDB4D; stroke: #332900; stroke-width: 1;}
    rect.nonterminal      {fill: #FFEC9E; stroke: #332900; stroke-width: 1;}
    rect.text             {fill: none; stroke: none;}
    polygon.regexp        {fill: #FFF4C7; stroke: #332900; stroke-width: 1;}
  </style>
   </defs>
   <polygon points="9 17 1 13 1 21"/>
   <polygon points="17 17 9 13 9 21"/>
   <a xmlns:xlink="http://www.w3.org/1999/xlink"
       xlink:href="#NonTypeId"
       xlink:title="NonTypeId">
      <rect x="31" y="3" width="88" height="32"/>
      <rect x="29" y="1" width="88" height="32" class="nonterminal"/>
      <text class="nonterminal" x="39" y="21">NonTypeId</text>
   </a>
   <rect x="159" y="35" width="28" height="32" rx="10"/>
   <rect x="157"
          y="33"
          width="28"
          height="32"
          class="terminal"
          rx="10"/>
   <text class="terminal" x="167" y="53">{</text>
   <rect x="227" y="35" width="24" height="32" rx="10"/>
   <rect x="225"
          y="33"
          width="24"
          height="32"
          class="terminal"
          rx="10"/>
   <text class="terminal" x="235" y="53">;</text>
   <a xmlns:xlink="http://www.w3.org/1999/xlink"
       xlink:href="#ExpRate"
       xlink:title="ExpRate">
      <rect x="271" y="35" width="72" height="32"/>
      <rect x="269" y="33" width="72" height="32" class="nonterminal"/>
      <text class="nonterminal" x="279" y="53">ExpRate</text>
   </a>
   <a xmlns:xlink="http://www.w3.org/1999/xlink"
       xlink:href="#Expression"
       xlink:title="Expression">
      <rect x="227" y="79" width="90" height="32"/>
      <rect x="225" y="77" width="90" height="32" class="nonterminal"/>
      <text class="nonterminal" x="235" y="97">Expression</text>
   </a>
   <rect x="357" y="111" width="24" height="32" rx="10"/>
   <rect x="355"
          y="109"
          width="24"
          height="32"
          class="terminal"
          rx="10"/>
   <text class="terminal" x="365" y="129">;</text>
   <a xmlns:xlink="http://www.w3.org/1999/xlink"
       xlink:href="#ExpRate"
       xlink:title="ExpRate">
      <rect x="401" y="111" width="72" height="32"/>
      <rect x="399" y="109" width="72" height="32" class="nonterminal"/>
      <text class="nonterminal" x="409" y="129">ExpRate</text>
   </a>
   <rect x="533" y="35" width="28" height="32" rx="10"/>
   <rect x="531"
          y="33"
          width="28"
          height="32"
          class="terminal"
          rx="10"/>
   <text class="terminal" x="541" y="53">}</text>
   <path class="line"
          d="m17 17 h2 m0 0 h10 m88 0 h10 m20 0 h10 m0 0 h412 m-442 0 h20 m422 0 h20 m-462 0 q10 0 10 10 m442 0 q0 -10 10 -10 m-452 10 v12 m442 0 v-12 m-442 12 q0 10 10 10 m422 0 q10 0 10 -10 m-432 10 h10 m28 0 h10 m20 0 h10 m24 0 h10 m0 0 h10 m72 0 h10 m0 0 h150 m-306 0 h20 m286 0 h20 m-326 0 q10 0 10 10 m306 0 q0 -10 10 -10 m-316 10 v24 m306 0 v-24 m-306 24 q0 10 10 10 m286 0 q10 0 10 -10 m-296 10 h10 m90 0 h10 m20 0 h10 m0 0 h126 m-156 0 h20 m136 0 h20 m-176 0 q10 0 10 10 m156 0 q0 -10 10 -10 m-166 10 v12 m156 0 v-12 m-156 12 q0 10 10 10 m136 0 q10 0 10 -10 m-146 10 h10 m24 0 h10 m0 0 h10 m72 0 h10 m40 -76 h10 m28 0 h10 m23 -32 h-3"/>
   <polygon points="599 17 607 13 607 21"/>
   <polygon points="599 17 591 13 591 21"/>
</svg>
