<?xml version="1.0" encoding="UTF-8"?>
<svg xmlns="http://www.w3.org/2000/svg" width="365" height="37">
   <defs>
      <style type="text/css">
    @namespace "http://www.w3.org/2000/svg";
    .line                 {fill: none; stroke: #332900; stroke-width: 1;}
    .bold-line            {stroke: #141000; shape-rendering: crispEdges; stroke-width: 2;}
    .thin-line            {stroke: #1F1800; shape-rendering: crispEdges}
    .filled               {fill: #332900; stroke: none;}
    text.terminal         {font-family: Verdana, Sans-serif;
                            font-size: 12px;
                            fill: #141000;
                            font-weight: bold;
                          }
    text.nonterminal      {font-family: Verdana, Sans-serif;
                            font-size: 12px;
                            fill: #1A1400;
                            font-weight: normal;
                          }
    text.regexp           {font-family: Verdana, Sans-serif;
                            font-size: 12px;
                            fill: #1F1800;
                            font-weight: normal;
                          }
    rect, circle, polygon {fill: #332900; stroke: #332900;}
    rect.terminal         {fill: #FFDB4D; stroke: #332900; stroke-width: 1;}
    rect.nonterminal      {fill: #FFEC9E; stroke: #332900; stroke-width: 1;}
    rect.text             {fill: none; stroke: none;}
    polygon.regexp        {fill: #FFF4C7; stroke: #332900; stroke-width: 1;}
  </style>
   </defs>
   <polygon points="9 17 1 13 1 21"/>
   <polygon points="17 17 9 13 9 21"/>
   <a xmlns:xlink="http://www.w3.org/1999/xlink"
       xlink:href="#Declarations"
       xlink:title="Declarations">
      <rect x="31" y="3" width="98" height="32"/>
      <rect x="29" y="1" width="98" height="32" class="nonterminal"/>
      <text class="nonterminal" x="39" y="21">Declarations</text>
   </a>
   <a xmlns:xlink="http://www.w3.org/1999/xlink"
       xlink:href="#System"
       xlink:title="System">
      <rect x="149" y="3" width="66" height="32"/>
      <rect x="147" y="1" width="66" height="32" class="nonterminal"/>
      <text class="nonterminal" x="157" y="21">System</text>
   </a>
   <a xmlns:xlink="http://www.w3.org/1999/xlink"
       xlink:href="#XTAQueryList"
       xlink:title="XTAQueryList">
      <rect x="235" y="3" width="102" height="32"/>
      <rect x="233" y="1" width="102" height="32" class="nonterminal"/>
      <text class="nonterminal" x="243" y="21">XTAQueryList</text>
   </a>
   <path class="line"
          d="m17 17 h2 m0 0 h10 m98 0 h10 m0 0 h10 m66 0 h10 m0 0 h10 m102 0 h10 m3 0 h-3"/>
   <polygon points="355 17 363 13 363 21"/>
   <polygon points="355 17 347 13 347 21"/>
</svg>
